<?xml version="1.0" encoding="UTF-8"?>
<svg xmlns="http://www.w3.org/2000/svg" xmlns:xlink="http://www.w3.org/1999/xlink" viewBox="0 0 1350 450">
  <defs>
    <style>
      .cls-1 {
        fill: url(#linear-gradient-4);
      }

      .cls-1, .cls-2, .cls-3, .cls-4, .cls-5, .cls-6, .cls-7, .cls-8, .cls-9, .cls-10, .cls-11, .cls-12, .cls-13 {
        fill-rule: evenodd;
      }

      .cls-14 {
        fill: #48212f;
      }

      .cls-2, .cls-15 {
        fill: #562736;
      }

      .cls-16 {
        fill: url(#linear-gradient-14);
      }

      .cls-16, .cls-17, .cls-18, .cls-19, .cls-20, .cls-21, .cls-12, .cls-22 {
        mix-blend-mode: multiply;
      }

      .cls-16, .cls-23, .cls-20 {
        opacity: .5;
      }

      .cls-24 {
        fill: #632933;
      }

      .cls-17, .cls-12 {
        opacity: .75;
      }

      .cls-25 {
        fill: #7a3c4f;
      }

      .cls-26 {
        fill: url(#linear-gradient-18);
      }

      .cls-18 {
        fill: url(#linear-gradient-15);
      }

      .cls-18, .cls-21, .cls-22 {
        opacity: .65;
      }

      .cls-27 {
        fill: url(#linear-gradient-20);
      }

      .cls-28 {
        fill: url(#linear-gradient-6);
      }

      .cls-29 {
        isolation: isolate;
      }

      .cls-3 {
        fill: #4a2130;
      }

      .cls-4 {
        fill: url(#linear-gradient-2);
      }

      .cls-5 {
        fill: url(#linear-gradient);
      }

      .cls-30 {
        fill: url(#linear-gradient-11);
      }

      .cls-31, .cls-23, .cls-32, .cls-8, .cls-33 {
        mix-blend-mode: soft-light;
      }

      .cls-34 {
        fill: #622a39;
      }

      .cls-19 {
        opacity: .57;
      }

      .cls-35 {
        fill: url(#linear-gradient-10);
      }

      .cls-36 {
        fill: #813c53;
      }

      .cls-32, .cls-8 {
        opacity: .6;
      }

      .cls-37 {
        fill: #663040;
      }

      .cls-6 {
        fill: #b0687a;
      }

      .cls-38 {
        fill: url(#linear-gradient-21);
      }

      .cls-39 {
        fill: url(#linear-gradient-5);
      }

      .cls-40 {
        clip-path: url(#clippath);
      }

      .cls-7, .cls-8 {
        fill: #af6d80;
      }

      .cls-41 {
        fill: none;
      }

      .cls-42 {
        mix-blend-mode: overlay;
        opacity: .3;
      }

      .cls-33 {
        opacity: .2;
      }

      .cls-43 {
        fill: url(#linear-gradient-7);
      }

      .cls-21 {
        fill: url(#linear-gradient-16);
      }

      .cls-44 {
        fill: url(#linear-gradient-9);
      }

      .cls-45 {
        fill: url(#linear-gradient-22);
      }

      .cls-46 {
        fill: #6d2f45;
      }

      .cls-9 {
        fill: #4d2332;
      }

      .cls-10 {
        fill: #bb7d90;
      }

      .cls-11, .cls-12 {
        fill: #ab6d82;
      }

      .cls-47 {
        fill: url(#linear-gradient-23);
      }

      .cls-48 {
        fill: url(#linear-gradient-19);
      }

      .cls-13 {
        fill: url(#linear-gradient-3);
      }

      .cls-49 {
        fill: url(#linear-gradient-8);
      }

      .cls-22 {
        fill: url(#linear-gradient-17);
      }

      .cls-50 {
        fill: url(#linear-gradient-12);
      }

      .cls-51 {
        fill: url(#linear-gradient-13);
      }
    </style>
    <clipPath id="clippath">
      <rect class="cls-41" width="1350" height="450"/>
    </clipPath>
    <linearGradient id="linear-gradient" x1="-319.17" y1="451.12" x2="-319.17" y2="307.95" gradientTransform="translate(766.45) rotate(-180) scale(1 -1)" gradientUnits="userSpaceOnUse">
      <stop offset="0" stop-color="#6a3448"/>
      <stop offset="1" stop-color="#703547"/>
    </linearGradient>
    <linearGradient id="linear-gradient-2" x1="-120.92" y1="450.06" x2="-120.92" y2="376.36" xlink:href="#linear-gradient"/>
    <linearGradient id="linear-gradient-3" x1="-189.77" y1="450.06" x2="-189.77" y2="401.45" xlink:href="#linear-gradient"/>
    <linearGradient id="linear-gradient-4" x1="-65.5" y1="450.06" x2="-65.5" y2="398.91" gradientTransform="translate(766.45) rotate(-180) scale(1 -1)" gradientUnits="userSpaceOnUse">
      <stop offset="0" stop-color="#532637"/>
      <stop offset=".99" stop-color="#612d3f"/>
    </linearGradient>
    <linearGradient id="linear-gradient-5" x1="-322.19" y1="408.45" x2="-322.98" y2="407.09" gradientTransform="translate(766.45) rotate(-180) scale(1 -1)" gradientUnits="userSpaceOnUse">
      <stop offset="0" stop-color="#602d3c"/>
      <stop offset="1" stop-color="#7a3a4c"/>
    </linearGradient>
    <linearGradient id="linear-gradient-6" x1="688.95" y1="454.82" x2="677.76" y2="213.21" gradientTransform="translate(1861.63) rotate(-180) scale(1 -1)" gradientUnits="userSpaceOnUse">
      <stop offset="0" stop-color="#3e1c29"/>
      <stop offset="1" stop-color="#562836"/>
    </linearGradient>
    <linearGradient id="linear-gradient-7" x1="774.65" y1="450.86" x2="763.47" y2="209.24" xlink:href="#linear-gradient-6"/>
    <linearGradient id="linear-gradient-8" x1="664.21" y1="455.97" x2="653.03" y2="214.35" xlink:href="#linear-gradient-6"/>
    <linearGradient id="linear-gradient-9" x1="715.89" y1="453.58" x2="704.7" y2="211.96" xlink:href="#linear-gradient-6"/>
    <linearGradient id="linear-gradient-10" x1="702.65" y1="454.19" x2="691.46" y2="212.58" xlink:href="#linear-gradient-6"/>
    <linearGradient id="linear-gradient-11" x1="576.64" y1="460.02" x2="565.45" y2="218.41" xlink:href="#linear-gradient-6"/>
    <linearGradient id="linear-gradient-12" x1="584.6" y1="459.66" x2="573.42" y2="218.04" xlink:href="#linear-gradient-6"/>
    <linearGradient id="linear-gradient-13" x1="637.98" y1="457.18" x2="626.8" y2="215.57" xlink:href="#linear-gradient-6"/>
    <linearGradient id="linear-gradient-14" x1="637.68" y1="257.05" x2="584.98" y2="380" gradientTransform="translate(1861.63) rotate(-180) scale(1 -1)" gradientUnits="userSpaceOnUse">
      <stop offset="0" stop-color="#dfb4c2"/>
      <stop offset=".19" stop-color="#d4a6b5"/>
      <stop offset=".53" stop-color="#b88394"/>
      <stop offset=".99" stop-color="#8c4c5f"/>
    </linearGradient>
    <linearGradient id="linear-gradient-15" x1="665.91" y1="269.14" x2="613.21" y2="392.1" gradientTransform="translate(1861.63) rotate(-180) scale(1 -1)" gradientUnits="userSpaceOnUse">
      <stop offset="0" stop-color="#dfb4c2"/>
      <stop offset="1" stop-color="#4c2330"/>
    </linearGradient>
    <linearGradient id="linear-gradient-16" x1="707.82" y1="287.11" x2="655.13" y2="410.06" xlink:href="#linear-gradient-15"/>
    <linearGradient id="linear-gradient-17" x1="761.04" y1="309.91" x2="708.34" y2="432.87" xlink:href="#linear-gradient-15"/>
    <linearGradient id="linear-gradient-18" x1="-258.8" y1="450.06" x2="-258.8" y2="382.3" gradientTransform="translate(766.45) rotate(-180) scale(1 -1)" gradientUnits="userSpaceOnUse">
      <stop offset="0" stop-color="#46202e"/>
      <stop offset="1" stop-color="#5f2a37"/>
    </linearGradient>
    <linearGradient id="linear-gradient-19" x1="-230.93" y1="442.48" x2="-261.14" y2="390.15" gradientTransform="translate(766.45) rotate(-180) scale(1 -1)" gradientUnits="userSpaceOnUse">
      <stop offset="0" stop-color="#46202e"/>
      <stop offset=".99" stop-color="#512332"/>
    </linearGradient>
    <linearGradient id="linear-gradient-20" x1="-302.29" y1="449.42" x2="-302.29" y2="401.45" xlink:href="#linear-gradient-19"/>
    <linearGradient id="linear-gradient-21" x1="-222.53" y1="451.12" x2="-222.53" y2="392.19" gradientTransform="translate(766.45) rotate(-180) scale(1 -1)" gradientUnits="userSpaceOnUse">
      <stop offset="0" stop-color="#703542"/>
      <stop offset="1" stop-color="#964751"/>
    </linearGradient>
    <linearGradient id="linear-gradient-22" x1="-210.59" y1="436.28" x2="-210.59" y2="384.06" xlink:href="#linear-gradient-21"/>
    <linearGradient id="linear-gradient-23" x1="-222.77" y1="440.53" x2="-242.25" y2="406.78" xlink:href="#linear-gradient-19"/>
  </defs>
  <g class="cls-29">
    <g id="Layer_2" data-name="Layer 2">
      <g id="layer1">
        <g class="cls-40">
          <g>
            <g>
              <g>
                <path class="cls-36" d="m1128.77,302.19c.26-.26,10.59-17.36,15.8-16.28,5.2,1.08-15.8,16.28-15.8,16.28Z"/>
                <path class="cls-36" d="m1129.48,299.46c.12-.18,2.5-12.66,6.92-11.64,4.42,1.02-6.92,11.64-6.92,11.64Z"/>
                <path class="cls-36" d="m1132.34,299.66c.23-.13,10.04-11.51,14.12-8.51,4.07,2.99-14.12,8.51-14.12,8.51Z"/>
                <path class="cls-36" d="m1127.5,303.17c.25-.07,12.36-6.35,15.35-4.69,2.98,1.67-15.35,4.69-15.35,4.69Z"/>
                <path class="cls-14" d="m1092.18,357.92c11.62-31.86,34.78-53.93,34.78-53.93l6.78-10.94-2.09,5.74,9.52-2.54s-15.64,7.6-28.73,26.41c-13.1,18.81-18.78,38.07-18.78,38.07l-1.48-2.81Z"/>
              </g>
              <g>
                <path class="cls-46" d="m1091.03,279.36c.24-.69,7.59-42.08,14.52-43.36,6.92-1.28-14.52,43.36-14.52,43.36Z"/>
                <path class="cls-46" d="m1091.02,273.4c.09-.45-1.05-27.22,4.86-28.1,5.91-.88-4.86,28.1-4.86,28.1Z"/>
                <path class="cls-36" d="m1094.7,271.9c.25-.42,8.85-29.9,14.98-26.57,6.13,3.34-14.98,26.57-14.98,26.57Z"/>
                <path class="cls-36" d="m1089.75,282.2c.29-.31,13.48-21.04,17.8-19.66,4.32,1.38-17.8,19.66-17.8,19.66Z"/>
                <path class="cls-14" d="m1063.4,416.19c4.06-72.05,25.95-131.99,25.95-131.99l4.91-26.59-.72,12.97,11.16-11.46s-17.2,25.74-27.47,72.42c-10.27,46.68-11.04,89.33-11.04,89.33l-2.8-4.69Z"/>
              </g>
              <g>
                <path class="cls-36" d="m1007.4,350.96c.1-.59-1.3-32.15,5.69-36.62,6.99-4.48-5.69,36.62-5.69,36.62Z"/>
                <path class="cls-46" d="m1006.07,346.97c0-.34-7.1-17.68-1.09-21.36,6.01-3.68,1.09,21.36,1.09,21.36Z"/>
                <path class="cls-36" d="m1009.6,344.04c.17-.41,2.7-24.65,9.87-25.62,7.17-.97-9.87,25.62-9.87,25.62Z"/>
                <path class="cls-36" d="m1006.67,353.53c.23-.36,9.52-21.13,14.36-22.47s-14.36,22.47-14.36,22.47Z"/>
                <path class="cls-14" d="m1008.53,457.02c-11.61-50.37-1.83-101.94-1.83-101.94l-.7-20.37,2.1,9.07,9.19-13.51s-12.39,26.22-12.88,62.84c-.49,36.62,8.1,65.59,8.1,65.59l-3.97-1.68Z"/>
              </g>
            </g>
            <g>
              <path class="cls-5" d="m1019.31,450.06l34.5,1.05-.38-1.05,80.58-.56s.55-.7,1.44-1.85c.43-.53.91-1.17,1.46-1.89,4.24-5.55,11.8-15.78,13.36-20.25.04-.13.09-.25.12-.37.09-.29.17-.67.24-1.13,1.24-7.4,1.64-36.02,1.23-47.35-.09-2.56-.22-4.24-.39-4.58-.99-1.97-10.54-4.62-10.54-4.62.07,0,.14,0,.21.02.27.03.8.06,1.44.05,1.74-.02,4.35-.33,5.23-1.99.03-.03.03-.05.03-.05.14-.29.1-1.01-.11-2.09-.08-.4-.17-.85-.3-1.35-2.55-10.58-14.39-41.36-20.02-46.99-6.59-6.59-37.24-9.12-44.83-5.38-6.06,2.99-13.61,6.97-16.38,10.12v.02s-.06.05-.14.16c-.62.72-.95,1.4-.95,2.01,0,1.19.3,2.47.69,3.62.19.57.4,1.1.61,1.57.27.63.6,1.32,1,2.05-.28-.1-6-2.27-9.22-.98-3.3,1.31-9.01,8.9-9.23,10.87-.09.79.1,1.93.37,3.01h0s0,.03,0,.05v.04c.24.96.53,1.87.71,2.44.09.24.15.43.18.53l.03.08-.09-.03c-.2-.08-.69-.26-1.34-.44h0c-1.28-.37-3.16-.71-4.49-.18-.52.21-1.41,1.14-2.46,2.49-3.33,4.26-8.39,12.66-9.4,15.42-.24.68-.9,3.17-1.81,6.95-3.18,13.34-9.38,42.75-11.05,65.19-.39,5.27-.53,11.2-.33,15.4Z"/>
              <path class="cls-25" d="m1151.47,372.08s-47.45-16.09-81.03-21.53c0,0,36.82,2.88,70.49,16.91,0,0,7.57,1.54,10.54,4.62Z"/>
              <g class="cls-31">
                <path class="cls-7" d="m1066.2,319.82s6.64,3.74,18.47,3.25c11.84-.49,37.71-7.11,37.71-7.11,14.73,8.91,25.13,48.27,25.45,49.5v.03s-.4-3.44-.4-3.44c-2.55-10.58-14.39-41.36-20.02-46.99-6.59-6.59-37.24-9.12-44.83-5.38-6.06,2.99-13.61,6.97-16.38,10.12v.02Z"/>
              </g>
              <g class="cls-31">
                <path class="cls-7" d="m1058.2,328.25l19.15,6.48-9.93-5.5s-4.87-2.11-9.22-.98Z"/>
              </g>
              <g class="cls-31">
                <path class="cls-7" d="m1041.89,347.11l32.09,3.8-23.7-5.63-.1-.03-1.34-.44h0c-1.28-.37-3.16-.71-4.49-.18-.52.21-1.41,1.14-2.46,2.49Z"/>
              </g>
              <g class="cls-17">
                <path class="cls-11" d="m1019.31,450.06h34.11s.17-.9.17-.9l80.41.34h33.84l-24.83-3.71c-2,.07-4.04.05-6.11-.03-22.01-.9-46.56-9.52-46.56-9.52-10.47-22.2-8.82-84.37-8.82-84.37,18.46,2.14,59.39,15.6,59.39,15.6.07,0,.14,0,.21.02,4.76.37,6.42-1.6,6.67-1.94.03-.03.03-.05.03-.05,0,0-50.84-10.98-52.75-13.62-1.91-2.64-5.49-29.23-5.49-29.23-13.79,2.35-23.4-2.84-23.4-2.84v.02c-.7.78-1.09,1.51-1.09,2.17,0,1.19.3,2.47.69,3.62.64,1.92,1.53,3.48,1.61,3.63-.28-.1-6-2.27-9.22-.98-3.3,1.31-9.01,8.9-9.23,10.87-.09.79.1,1.93.37,3.01h0s0,.03,0,.05v.04c.35,1.37.78,2.63.9,2.97l.03.08-.09-.03c-.2-.08-.69-.26-1.34-.44h0c-1.28-.37-3.16-.71-4.49-.18-.52.21-1.41,1.14-2.46,2.49-3.33,4.26-8.39,12.66-9.4,15.42-1.11,3.06-10.71,43.33-12.85,72.13-.39,5.27-.53,11.2-.33,15.4Z"/>
              </g>
              <g class="cls-19">
                <path class="cls-10" d="m1066.42,327.18c.27.63.6,1.32,1,2.05l9.93,5.5,13.68,18.71s30.65,4.61,50.1,14.05c.27.03.8.06,1.44.05,1.74-.02,4.35-.33,5.23-1.99.03-.03.03-.05.03-.05.14-.29.1-1.01-.11-2.09-4.19-.73-37.6-6.6-52.64-11.53l-5.49-29.23s-11.01,1.94-23.4-2.82c0,0-.05.05-.13.16-.43.57-1.57,2.7.35,7.2Z"/>
              </g>
              <g class="cls-19">
                <path class="cls-10" d="m1049.34,342.13h0s0,.03,0,.05v.04c.35,1.37.78,2.63.9,2.97l.03.08,23.71,5.64-4.23-18.74c-4.04-1.47-11.56-3.91-11.56-3.91-3.3,1.31-9.01,8.9-9.23,10.87-.09.79.1,1.93.37,3.01Z"/>
              </g>
              <g class="cls-33">
                <path class="cls-7" d="m1145.87,376.7c1.82,4.84,3.07,9.66,3.82,14.81.67,4.58,1.61,10.19.15,14.75-.54,1.68-1.62,3.05-3.1,4.06-1.22.83-2.66,1.39-3.8,2.31-.81.66-1.38,1.37-2.34,1.84-3.61,1.77-7-1.45-9.74-3.49-1.33-.99-2.65-1.88-4.02-2.76-3.95-2.54-7.28-6.2-10.4-9.69-4.32-4.83-8.97-9.27-13.46-13.94-3.08-3.21-5.51-6.38-6.98-10.56-1.58-4.49-2.35-8.41-.23-12.83.56-1.16,1.24-2.64,2.6-2.99,1.8-.47,4.25.26,5.94.69,1.44.37,2.84.47,4.3.71,2.08.33,4.03,1.33,6.06,1.91,4.51,1.29,8.52,3.37,12.78,5.23,4.54,1.98,8.98,4.25,13.28,6.47,1.13.58,2.26,1.4,3.15,2.3.43.44,1.17,1.12,1.5,1.65.41.65.53,1.63.48-.48Z"/>
              </g>
              <g class="cls-33">
                <path class="cls-7" d="m1091.16,358.9c2,4.2,2.67,10,1.47,14.5-.39,1.48-.21,2.81-.73,4.29-.47,1.35-.98,3.36-1.86,4.47-.36.45-.96.66-1.35,1.11-.62.72-1.07,1.63-1.75,2.36-1.19,1.29-2.32,2.48-3.71,3.62-.84.68-2.01,1.63-3.01,1.9-2.46.67-4.98-.91-7.25-1.61-3.28-1.01-6.34-1.62-9.5-2.93-1.41-.58-2.19-1.26-3.32-2.33-2.33-2.22-4.61-4.28-6.51-6.89-4.09-5.6-7.95-11.43-7.96-18.49,0-1.3-.37-3.25.13-4.46.55-1.34,2.23-2.33,3.46-2.86,1.92-.83,4.22-1.29,6.31-1.25,1.3.02,2.34-.09,3.58-.34,1.66-.33,3.25.17,4.94.43,4.14.63,8.34,1.54,12.45,2.4,2.86.59,5.84,1.1,8.55,2.14,1.32.51,2.6,1.15,3.82,1.91,1.02.63,2.63,1.83,2.23,2.05Z"/>
              </g>
              <g class="cls-33">
                <path class="cls-7" d="m1111.59,399.77c-3.66-3.98-7.14-8.24-11.17-11.86-1.02-.92-2.47-2.01-3.66-2.65-.33-.18-.62-.48-.97-.67.57.31-2.07-.52-1.48-.53-2.13.04-4.85,3.36-6.14,4.83-.98,1.11-1.91,2.42-2.79,3.63-.57.77-1.77,2.15-2.07,3.02-1.01,2.9,1.35,5.52,3.83,6.35,2.69.91,5.27,2.12,8.01,2.85,1.97.53,4.03.28,6.07.3,3.08.03,5.76-1.08,7.91-3.26,2.03-2.05.99-4.46,2.48-2.01Z"/>
              </g>
              <g class="cls-33">
                <path class="cls-7" d="m1124.12,330.56c2.6,2.76,3.74,4.02,5.28,7.24,1.19,2.51,2.05,4.8,2.65,7.49.7,3.11,1.36,5.1-1.63,7.02-3.08,1.98-6,2.82-9.53,3.63-3.85.89-7.85-.6-11.2-2.61-3.62-2.17-7.71-5.8-9.99-9.39-3.3-5.2-3.57-10.67.7-15.45,3.04-3.41,7.52-3.35,11.7-3.82.73-.08,1.43-.54,2.13-.6,1.24-.11,1.95.36,3.07.83,1.62.68,3.35,1.15,4.74,2.27,1.6,1.28,2.76,3.16,2.09,3.4Z"/>
              </g>
              <g class="cls-33">
                <path class="cls-7" d="m1140.6,351.65c.33,1.84.76,3.5,1.32,5.23.24.77,1.16,2.83.64,3.65-.88,1.37-3.62-.41-4.46-1.13-1.04-.9-1.14-3.15-.82-4.48.14-.6.66-1.77,1-2.3.57-.91,1.7-1.4,1.67.36l.66-1.32Z"/>
              </g>
              <g class="cls-33">
                <path class="cls-7" d="m1093.09,441.3c.55.74,1.41,1.38,2.13,1.94,1.25.97,2.49,2.3,3.9,2.97,2.58,1.24,5.87,1.41,8.67,1.84,1.32.21,2.62.64,3.97.55,1.28-.09,2.5-.58,3.78-.7,2.45-.24,4.69-.67,7.21-.66,2.99,0,6.04-.17,9.02.06,1.23.1,2.45.23,3.67.37.43-.53.91-1.17,1.46-1.89,4.36-5.71,12.24-16.37,13.48-20.62.09-.29.17-.67.24-1.13-1.11-.64-2.23-1.26-3.3-1.86-4.88-2.73-10.45-4.29-15.15-7.23-4.54-2.84-9.41-4.22-14.83-4-7.11.29-14.26,6.47-18.82,11.45-1.69,1.84-3.08,3.88-3.96,6.24-.96,2.58-1.07,5.11-1.5,7.76-.31,1.84-1.22,3.24.02,4.91Z"/>
              </g>
              <g class="cls-20">
                <path class="cls-10" d="m1081.73,378.73s13.56,2.91,18.32,5.34c4.77,2.43,26.89,26.84,26.89,26.84,0,0-22.59-24.93-29.75-26.84-7.16-1.91-15.34-1.76-15.34-1.76l-13.12,7.42-13.43,9.39,15.12-11.73,11.29-8.66Z"/>
              </g>
              <g class="cls-19">
                <polygon class="cls-11" points="1084.68 449.24 1090.36 436.24 1083.06 410.11 1079.65 353.77 1073.15 394.57 1057.34 431.7 1019.31 449.02 1084.68 449.24"/>
              </g>
              <polygon class="cls-9" points="1127.32 361.96 1130.79 355.66 1123.85 360.94 1127.32 361.96"/>
              <g class="cls-23">
                <path class="cls-7" d="m1102.14,367.03c.16.81.66,2.46-.21,3.03-.76.5-1.76.51-2.6.7-.26.06-.61.34-.87.2-.16-.09-.59-.72-.71-.88-.58-.83-1.15-2.04-1.3-3.05-.11-.69.08-1.35.25-2.02.21-.8.87-1.2,1.69-1.28.95-.08,2.2-.18,2.94.45,1.18,1.01.58,2.49,1.25,3.74l-.44-.88Z"/>
              </g>
              <g class="cls-23">
                <path class="cls-7" d="m1103.9,373.4c.47.66.79.99.66,1.76-.08.5-.18.48-.66.65-.48.17-1.24.73-1.52.09-.22-.5.03-1.42.2-1.86.07-.18.23-.58.38-.72.29-.26.42-.08.73.06h.22Z"/>
              </g>
              <g class="cls-23">
                <path class="cls-7" d="m1112.47,425.03c.55,1.13.72,2.08.97,3.3.14.71.32,1.47-.18,2.07-.46.55-1.2.73-1.84,1-.68.29-1.29.6-2.02.78-.64.16-1.46.26-1.99-.21-.84-.75-1.43-1.97-1.87-2.98-.5-1.18-.87-2.45-.43-3.74.27-.79.86-1.53,1.4-2.15.68-.78,1.5-1.05,2.45-1.37,1.39-.48,2.1-.73,3.06.5.28.36.72.81.85,1.25.19.65.03,1.53.03,2.21l-.44-.66Z"/>
              </g>
              <g class="cls-23">
                <path class="cls-7" d="m1044.38,399.71c.55,1.13.72,2.08.97,3.3.14.71.32,1.47-.18,2.07-.46.55-1.2.73-1.84,1-.68.29-1.29.6-2.02.78-.64.16-1.46.26-1.99-.21-.84-.75-1.43-1.97-1.87-2.98-.5-1.18-.87-2.45-.43-3.74.27-.79.86-1.53,1.4-2.15.68-.78,1.5-1.05,2.45-1.37,1.39-.48,2.1-.73,3.06.5.28.36.72.81.85,1.25.19.65.03,1.53.03,2.21l-.44-.66Z"/>
              </g>
              <g class="cls-23">
                <path class="cls-7" d="m1118.84,432.94c.25.43,1.35,2.28.23,2.65-.39.13-1.25.03-1.55-.23-.33-.28-.57-.77-.39-1.27.12-.34.61-1.05,1.05-.93l.66-.22Z"/>
              </g>
              <g class="cls-23">
                <path class="cls-7" d="m1101.93,328.58c-.12.48-.32,1-.42,1.49-.1.46-.05.94-.21,1.4-.27.75-.95,1.12-1.74.82-.28-.11-.94-.57-1.05-.85-.13-.31,0-.45.16-.76.35-.72.74-1.12,1.46-1.5.2-.1.62-.4.88-.35.37.08.4.71.71.84l.22-1.1Z"/>
              </g>
              <g class="cls-23">
                <path class="cls-7" d="m1059.94,350.55c-.12.49-.32,1-.42,1.49-.1.46-.05.94-.21,1.4-.27.75-.95,1.12-1.74.82-.28-.11-.94-.57-1.05-.85-.13-.31,0-.45.16-.76.35-.72.74-1.12,1.46-1.5.2-.1.62-.4.88-.35.37.08.4.71.71.84l.22-1.1Z"/>
              </g>
              <g class="cls-23">
                <path class="cls-7" d="m1136.2,348.35c.55.84,1.01,1.61,1.09,2.63.05.65-.2.67-.76.67-.72,0-1.3.07-1.83-.5.22-.53.49-1.15.74-1.7.09-.2.89-1.4.99-.66l-.22-.44Z"/>
              </g>
              <g class="cls-23">
                <path class="cls-7" d="m1042.67,383.79c.55.84,1.01,1.61,1.09,2.63.05.64-.2.67-.76.67-.72,0-1.3.07-1.83-.5.22-.53.49-1.15.74-1.7.09-.2.89-1.4.99-.66l-.22-.44Z"/>
              </g>
              <g class="cls-42">
                <path class="cls-15" d="m1107.64,361.21c1.24,1.5,2.66,3.46,1.94,5.59-.76.22-1.69-.4-2.42-.56-1.17-.26-2.3-.69-3.49-.74-1.59-.07-2.54-.83-3.74-1.8-.73-.59-1.3-1.31-2.1-1.84-.69-.46-1.36-.63-2.11-.94-1.77-.74-3.74-2.07-5.07-3.48-.69-.73-1.81-2.38-.3-2.8,1.1-.31,2.66.13,3.75.3,1.63.26,3.23.74,4.84,1.1,1.69.38,3.38.51,5.08.97.71.19,1.66.37,2.29.78,1.11.72,1.86,2.25,1.32,3.43Z"/>
              </g>
              <g class="cls-42">
                <path class="cls-15" d="m1114.23,362.85c-.08-.12,2.56,2.87,1.6,3.58-.38.29-1.47-.4-1.8-.58-.4-.21-.89-.43-1.09-.89-.36-.82.19-1.36.96-1.46l.33-.66Z"/>
              </g>
              <g class="cls-42">
                <path class="cls-15" d="m1143.58,406.28c.09,1.03.19,1.97.38,2.97.16.07.25.19.27.37,0,.31,0,.62-.02.93,0,.8-.08,1.63.08,2.42.3,1.57.46,2.9,1.24,4.34,1.17,2.17,2.26,4.06,3.97,5.86.42,1.67.5,1.69.59,1.7.03.32.1.52.18.64.04-.13.09-.25.12-.37.09-.29.17-.67.24-1.13,1.24-7.4,1.64-36.02,1.23-47.35-.21.58-.32,1.3-.48,1.67-.42.96-.64,2.06-.98,3.06-.34,1.01-.95,1.64-1.49,2.54-.33.54-.36,1-.41,1.62-.05.67-.28,1.28-.35,1.95-.17,1.73.02,3.59.02,5.33,0,.56-.03,1.11,0,1.66.03.56.23.97.31,1.5.05.32.12.83.04,1.16-.08.36-.39.52-.43.94-.4-.09-.55-1.32-1.24-1.32-.76,0-1.1,1.86-1.24,2.42-.14.57-.14,1.06-.48,1.57-.34.51-.89.83-1.26,1.31-1.07,1.38-.43,2.7-.3,4.21Z"/>
              </g>
              <g class="cls-42">
                <path class="cls-15" d="m1142.24,420.86c.84.81,1.54,1.71,2.11,2.71-.05.55,0,1.11.12,1.65.09.78.35,1.9-.2,2.59-.54.68-1.65.58-2.36,1.01-.95.57-1.49,1.43-2.22,2.21-2.72,2.87-5.57-2.72-5.98-4.88-.31-1.64-.9-3.59-.71-5.28.16-1.45.76-3.68,1.98-4.65,1.32-1.05,2.96-.63,4.3.02,2.21,1.07,3.54,3.54,3.63,5.95l-.66-1.32Z"/>
              </g>
              <path class="cls-37" d="m1130.71,425.47c-1.25.32-2.46.75-3.62,1.29-.06.98,1.3,1.44,1.98,1.18.91-.35,1.39-1.05,1.97-1.82l-.33-.66Z"/>
              <g class="cls-42">
                <path class="cls-15" d="m1104.34,327.26c.32.57,1.59,2.09,1.15,2.77-.25.39-1.43.7-1.83.79-.77.17-1.81.17-2.22-.66-.35-.7-.06-1.84.22-2.45.07-.14.31-.98.43-1.05.68-.47,1.47.6,1.92.93l.33-.33Z"/>
              </g>
              <g class="cls-42">
                <path class="cls-15" d="m1030.68,369.47c1.21.83,2.53,1.5,3.77,2.29.81.5,1.82,1.22,2.84.99.44-.1.65-.28,1.12-.35.59-.09,1.15.16,1.64.33.6.2,1.29.33,1.84.65,1.8,1.06,3.04,2.94,4.12,4.67.62.98.93,2.14,1.7,2.93.46.47.97.55,1.57.73.43.13,1.02.43,1.39.5,1.01.22,1.8-.37,2.9-.26.55.05.77.14,1.07.65.29.49.09,1.17.49,1.55.33-.13.57-.79.73-1.1.43-.84,1.02-1.56,1.5-2.37,1.27-2.15,2.88-4.04,3.97-6.31.5-1.03.94-2.31,1.77-3.16.74-.73,1.88-1.03,2.61-1.78.86-.89,1.42-2.16,1.95-3.28.66-1.43,1.14-3.16,2.06-4.44.6-.83,1.13-1.19,2.13-1.17,1.52.02,2.74-.1,3.79-1.3,1.81-2.04,3.05-5.28,3.64-7.93-.18-1.08-.94-1.33-2.3-1.32-1.47,0-2.9-.17-4.34-.4-1.16-.17-2.35-.45-3.5-.67-1.16-.22-2.29-.3-3.44-.5-2.24-.41-4.52-.45-6.77-.97-2.94-.67-6.13-.86-8.65-2.64-.07-.05-.15-.1-.22-.15.09.24.15.43.18.53l.03.08-.09-.03c-.2-.08-.69-.26-1.34-.44h0c-1.28-.37-3.16-.71-4.49-.18-.52.21-1.41,1.14-2.46,2.49-3.33,4.26-8.39,12.66-9.4,15.42-.24.68-.9,3.17-1.81,6.95Z"/>
              </g>
              <g>
                <path class="cls-4" d="m839.47,449.02l19.83.24h.79s.66.02.66.02l3.22.04,8,.1,51.1.63s7.17-14.64,10.51-23.33c1.08-2.8,1.76-4.98,1.68-5.87-.03-.34-.1-.73-.2-1.17h0c-.21-.9-.57-1.96-1.03-3.14-1.54-3.89-4.35-9.06-7.56-13.27-.49-.63-.97-1.24-1.47-1.83-4.04-4.73-29.9-16.58-44.1-22.13-4.48-1.75-7.8-2.88-8.91-2.96-4.61-.33-15.49,8.24-17.79,11.2-.59.77-1.7,2.66-2.99,5.04-1.17,2.14-2.51,4.69-3.79,7.17-1.51,2.94-2.96,5.79-3.96,7.78-.84,1.68-1.37,2.75-1.37,2.75-.8,4.19-1.46,14.15-1.92,22.92-.33,6.44-.56,12.24-.64,14.63-.03.74-.04,1.16-.04,1.16Z"/>
                <path class="cls-12" d="m851.2,392.62c5.91-12.42,20.79-16.25,20.79-16.25,3.36,25.05,12.93,37.52,14.31,39.21,3.49,1.48,5.51,2.06,5.51,2.06,0,0-.96,26.94,0,28.91.96,1.97,31.26,3.5,31.26,3.5h-101.17c6.76-16.28,29.3-57.44,29.3-57.44Z"/>
                <path class="cls-8" d="m871.99,376.37c1.84,21.46,14.1,38.88,14.48,39.42h0c11.37,5.47,48.55,6.7,48.55,6.7,1.05-3.19-3.67-13.92-10.11-20.95-.45-.5-.91-.97-1.38-1.43-7.12-6.91-51.55-23.73-51.55-23.73Z"/>
              </g>
              <g>
                <path class="cls-13" d="m933.52,435.51c.05,4.83.27,9.79.72,14.55l44.68-1.04s-.6-4.51-1.57-10.26c0,0,0-.03-.03-.1-.1-.57-.19-1.14-.3-1.72-.77-4.37-1.7-9.24-2.77-13.3-.97-3.75-2.02-6.81-3.08-8.19-3.95-5.12-11.27-11.05-11.27-11.05,0,0-17.55-6.59-24.89,0,0,0-.56,4.9-.99,12.17h0c-.18,3.04-.35,6.49-.44,10.17h0c-.07,2.83-.1,5.78-.07,8.79Z"/>
                <path class="cls-8" d="m935.02,404.39s4.85,12.84,10.62,15.68c2.59,1.27,22.72,0,22.72,0,2.8-1.07,3.88-3.24,2.82-4.63-3.95-5.12-11.27-11.05-11.27-11.05,0,0-17.55-6.59-24.89,0Z"/>
                <path class="cls-12" d="m978.92,449.02s-28.16-1.7-30.14-3.89c-1.98-2.19-3.14-25.07-3.14-25.07,0,0-6.91-2.82-10.62-15.68,0,0-2.14,24.12-.78,45.68l44.68-1.04Z"/>
              </g>
              <path class="cls-3" d="m871.93,449.28l-5.87-21.83,8.85,20.94,19.33-2.09,28.85,3.76-50.86-.55c-.14,0-.26-.09-.29-.23Z"/>
              <polygon class="cls-3" points="854.19 387.57 871.78 410.11 853.59 388.53 854.19 387.57"/>
              <g class="cls-32">
                <path class="cls-7" d="m853.59,388.53l-3.57,8.03s8.52,8.71,21.76,14.28l-18.19-22.3Z"/>
              </g>
              <g class="cls-20">
                <path class="cls-11" d="m891.81,446.56v-28.91l-5.35-1.86s-9.16,14.45-11.98,17.45c-2.83,3-33.5-13.17-33.5-13.17l-1.71,29.93,52.53.07v-3.5Z"/>
              </g>
              <path class="cls-1" d="m791.9,450.06l68.01-.47h.9s11.17-.09,11.17-.09c0,0,0-.03-.02-.07h0c-.15-.69-1.34-6.06-2.69-11.42-1.13-4.43-2.37-8.84-3.23-10.57-1.4-2.8-11.54-12.98-22.6-19.88-4.57-2.85-9.31-5.14-13.65-6.11-10.81-2.43-19.87-3.16-24.88-2.03h-.02c-1.85.42-3.15,1.09-3.77,2.03-1.5,2.26-3.93,8.15-5.61,12.44-.75,1.92-1.35,3.52-1.65,4.33-.36.97-.72,5.56-1.03,10.96-.54,9.25-.93,20.88-.93,20.88Z"/>
              <g class="cls-31">
                <path class="cls-7" d="m795.52,413.89c5.61,5.6,14.98,12.88,27.81,15.86,16.45,3.83,36.62,6.92,45.95,8.26-1.13-4.43-2.37-8.84-3.23-10.57-1.97-3.96-21.42-22.66-36.25-26-14.83-3.33-26.37-3.47-28.67,0-1.5,2.26-3.93,8.15-5.61,12.44Z"/>
              </g>
              <g class="cls-20">
                <path class="cls-11" d="m871.99,449.51l-49.1-.9-2.73-19.7s-13.43-3.86-24.63-15.01l-1.65,4.33-1.97,31.84,80.08-.56Z"/>
              </g>
              <path class="cls-6" d="m935.02,404.39c4.48-3.07,15.18-2.48,19.91,0,4.73,2.48,13.4,10.32,15.86,14.07,2.35,3.58,6.17,18.78,6.53,20.19-.81-4.78-1.86-10.42-3.06-15.02-.97-3.75-2.02-6.81-3.08-8.19-3.95-5.12-11.27-11.05-11.27-11.05,0,0-17.55-6.59-24.89,0Z"/>
              <path class="cls-6" d="m934.48,416.18s-14.38-15.98-20.14-20.17c-11.87-8.63-42.35-19.64-42.35-19.64,0,0,40.73,12.57,51.09,22.28,8.09,7.59,11.41,17.53,11.41,17.53Z"/>
              <g class="cls-31">
                <path class="cls-6" d="m804.92,399.43c.93,0,13.38.09,24.4,3.74,11.45,3.8,30.26,21.21,33.92,24.28,3.53,2.97,8.39,20.74,8.73,21.99-.14-.65-1.33-6.04-2.69-11.42-1.13-4.43-2.37-8.84-3.23-10.57-1.97-3.96-21.42-22.66-36.25-26-10.81-2.43-19.87-3.16-24.88-2.03Z"/>
              </g>
              <g class="cls-33">
                <path class="cls-7" d="m929.89,425.69c-3.76-1.23-6.66-1.77-10.56-1.76-2.45,0-5.04-.27-7.47.04-3.08.39-6.42,1.25-7.94,4.24-1.45,2.87-.7,5.95.37,8.83.84,2.25,3.2,3.4,5.38,4.15,2.8.96,5.93.06,8.7-.46,1.12-.21,2.09-.4,3.16-.85,1.03-.43,1.47-1.08,2.2-1.88,1.79-1.96,3.66-4.46,4.75-6.92.55-1.25.95-2.75,1.31-4.06.34-1.28-.65-1.88.1-1.32Z"/>
                <path class="cls-7" d="m918.02,404.6c2.22,1.01,4.21,1.89,6.03,3.48,1.19,1.05,2.13,2.45,3,3.77.55.84,2.11,3.22,1.5,4.36-.64,1.19-3.3,1.41-4.48,1.68-1.44.33-3.14.71-4.51-.09-1.25-.73-2.11-2.42-2.64-3.72-.51-1.25-.96-2.5-1.11-3.76-.11-.96-.23-2.61-.01-3.55.34-1.5,1.24-1.76,2.66-1.73l-.44-.44Z"/>
                <path class="cls-7" d="m912.75,397.13c.24.18,5.31,3.19,4.34,4.87-.4.69-2.14.53-2.8.43-2.23-.34-1.98-3.09-1.98-4.85l.44-.44Z"/>
                <path class="cls-7" d="m900,389.22c2.59,1.54,4.42,2.17,5.73,4.83.62,1.26,1.19,2.84,1.3,4.21.14,1.83.88,3.57.13,5.39-.78,1.87-2.2,2.13-4.06,2.25-2.24.15-4.36.45-6.62.45-2.11,0-4.59.35-6.58-.43-.83-.33-1.76-.42-2.54-.84-.78-.43-1.6-1.3-2.31-1.88-1.34-1.11-1.98-2.78-2.73-4.31-.65-1.32-1.38-2.62-2-3.96-1.14-2.47-1.69-5.03-2.07-7.7-.14-.98-.11-2.01-.31-2.98-.08-.37-.58-1.23-.39-1.67.31-.69,1.61-.86,2.32-.84,1.86.05,3.83.61,5.56,1.32,3.52,1.44,6.76,3.57,10.19,5.17.85.4,1.88,1.11,2.72,1.33.91.24,2.33-.32,1.66-.34Z"/>
                <path class="cls-7" d="m870.56,381.75c.69.94,1.72,1.95,2.2,3.03.26.59.3,1.45.44,2.07.45,1.96.23,3.85.53,5.81.22,1.41,1.16,4.43-.74,4.92-1.63.42-4.02-.72-5.31-1.55-1.52-.98-3.2-2.36-4.39-3.74-1.02-1.18-1.95-2.39-2.33-3.94-.38-1.56,1.16-3.61,2.31-4.64.6-.53,1.37-1.03,2-1.55.54-.45,1.32-.83,1.98-1.09.42-.17,1.35-.63,1.78-.63.81.01,1.36,1.15,1.96,1.74l-.44-.44Z"/>
                <path class="cls-7" d="m874.96,403.28c.25.44,1.91,2.59,1.35,3.54-.32.55-.32.33-.9.42-.72.12-2-.24-2.45-.87-1.19-1.65,1.33-2.99,2.44-3.54l-.44.44Z"/>
                <path class="cls-7" d="m845.51,414.71c2.54,2.12,5.12,4.69,6.39,7.79.91,2.22,2.15,6.01-.65,7.44-2.42,1.24-5.58.88-8.13.26-1.48-.36-2.83-.73-4.19-1.42-1.66-.85-3.33-1.74-5.06-2.44-1.48-.59-2.55-1.26-3.49-2.56-1.02-1.4-1.42-2.84-1.55-4.56-.12-1.68.22-3.74,1.49-4.95,1.08-1.04,2.59-1.25,4.01-1.32,2.05-.11,4.06-.68,6.14-.39.72.1,1.48.17,2.18.37,1.16.33,2.05,1.15,2.86,1.78Z"/>
                <path class="cls-7" d="m834.75,409.65c.2-.77.38-1.27-.43-1.64-.49-.22-1.26-.22-1.74.08-.66.41-1.11,1.44-.67,2.08.41.6.86.8,1.6.8.42,0,.53-.01.84-.22.32-.21.81-.45.83-.88l-.44-.22Z"/>
                <path class="cls-7" d="m818.71,409.22c.59.57,1.22,1.07,1.58,1.81.51,1.05,1.02,2.16,1.45,3.24.76,1.92,1.21,3.75,1.48,5.79.14,1.07.18,1.94-.75,2.65-1.1.84-3.23.29-4.5.15-2.67-.29-5.42-1.25-7.84-2.38-1.07-.5-2.18-.85-3.25-1.37-1.2-.58-2.38-1.23-3.51-1.92-1.01-.62-1.82-1.33-2.55-2.27-.62-.79-1.37-2.09-1.47-3.1-.15-1.57.19-2.92,1.23-4.12,1.08-1.26,2.52-2.06,4.12-2.44,1.64-.39,3.36-.24,5.01-.03,1.18.14,2.31.16,3.46.49,3.19.94,6.07,1.96,5.54,3.51Z"/>
                <path class="cls-7" d="m820.69,403.5c.64.45,1.57.9,1.93,1.61.17.33.39.88.46,1.23.11.54-.1.67-.65.69-1.32.05-2.59-.11-3.57-1.05-.34-.32-.78-.64-.98-1.06-.15-.31-.33-.86-.23-1.19.56-1.93,3.56-.34,4.36.44l-1.32-.66Z"/>
                <path class="cls-7" d="m813,428.55c1.04.74,1.86,1.43,2.42,2.6.7,1.45,1.38,3.15,1.51,4.75.16,1.85.15,3.83-.18,5.66-.19,1.03-.5,2.56-1.42,3.23-.96.7-2.04.42-3.08.15-1.52-.39-3-.74-4.41-1.47-1.01-.52-1.85-1.07-2.54-1.99-.82-1.1-1.57-2.23-1.99-3.55-.61-1.92-1.24-3.86-.62-5.88.63-2.01,2.55-3.82,4.39-4.72,1.25-.61,2.59-1.05,3.93-.54,1.35.51,2.54,1.13,1.98,1.76Z"/>
                <path class="cls-7" d="m805.09,423.5c.42.66,1.18,1.5.84,2.37-.27.71-1.01.7-1.64.82-.62.11-1.32.26-1.93.32-.64.06-1.12-.26-1.4-.81-.58-1.14-.03-2.29.81-3.12.36-.36.9-1.08,1.44-1.13.87-.08,1.71.98,2.1,1.55h-.22Z"/>
                <path class="cls-7" d="m866.39,446.57c-.07-2.29-1.53-5.07-3.72-6-2.79-1.18-5.73-1.15-8.69-.82-2.55.28-6.09,1.12-7.5,3.51-.99,1.67.48,2.9,1.94,3.48.82.33,1.75.42,2.59.71,1.07.37,2.11.56,3.23.71,2.02.28,4.12.72,6.17.62,1.1-.06,2.47-.43,3.46-.89.36-.16.77-.34,1.08-.58.25-.2.47-.67,1.45-.74Z"/>
                <path class="cls-7" d="m849.25,436.02c.45.64,1.35,1.69.67,2.51-.51.62-2.02.73-2.75.9-.5.11-.99.05-1.49.16-.4.08-.63.23-1.04.13-.39-.1-.94-.36-1.23-.63-.29-.27-.46-.75-.7-1.09-.86-1.21,1.13-2.12,2.15-2.36.69-.16,1.15-.26,1.91-.27,1.05,0,1.96.25,2.92.66h-.44Z"/>
                <path class="cls-7" d="m967.47,425.7c1.08,1.15,1.91,2.34,2.52,3.8.8,1.9,1.25,4.24,1.38,6.3.11,1.7.21,3.57-.12,5.25-.16.83-.62,1.38-1.36,1.78-1.76.95-4.08.31-5.84-.33-2.47-.9-4.79-2.81-6.29-4.97-1.76-2.53-2.19-5.81-1.81-8.81.08-.63.17-1.26.23-1.89.09-1,.21-2.15-.2-3.1-.88-2.03-3.69-1.14-4.86.1-2.42,2.57,1.16,4.9,3.48,5.39,3.52.74,3.99-3.91,6.41-5.36,1.09-.65,2.74-.84,3.94-.47.33.1,3.75,1.82,2.52,2.3Z"/>
                <path class="cls-7" d="m952.3,440.63c-.06-1.3-.35-3.14-1.54-3.97-.38-.27-.91-.54-1.33-.26-.25.17-.46.49-.69.7-.49.46-.72.91-.89,1.55-.23.88-.44,1.68-.39,2.6.08,1.43,1.84,2.59,3.14,2.86.66.14,1.49-.31,1.88-.84.85-1.15.52-2.4-.18-3.52v.88Z"/>
                <path class="cls-7" d="m941.97,409c.35.6,1.44,2.63-.27,2.39-.59-.09-1.43-.59-1.82-1.06-.38-.46-.48-.99-.12-1.46.59-.78.95-.46,1.55.14h.66Z"/>
                <path class="cls-7" d="m799.59,439.98c.53.93,1.52,2.44.83,3.53-.46.74-1.46.42-1.92-.15-.39-.49-.11-.8,0-1.28.1-.46.04-1.3.65-1.44l.44-.66Z"/>
                <path class="cls-7" d="m795.2,425.69c.21.39.22.76.03,1.12-.31.11-.32-.09-.52-.19-.32-.16-.29-.03-.4-.37-.21-.63.12-.66.5-.92.16.09.28.21.39.36h0Z"/>
              </g>
              <g class="cls-23">
                <path class="cls-7" d="m889.85,389.86c.13.66.55,2.02-.17,2.5-.63.41-1.45.42-2.14.57-.22.05-.51.28-.72.16-.13-.07-.49-.59-.58-.73-.48-.69-.94-1.68-1.07-2.51-.09-.57.07-1.12.21-1.66.17-.66.72-.99,1.39-1.05.78-.07,1.81-.15,2.42.37.98.83.48,2.05,1.03,3.08l-.36-.72Z"/>
              </g>
              <g class="cls-23">
                <path class="cls-7" d="m828.9,440.95c.13.66.55,2.02-.17,2.5-.63.41-1.45.42-2.14.57-.22.05-.51.28-.72.16-.13-.07-.49-.59-.58-.73-.48-.69-.94-1.68-1.07-2.51-.09-.57.07-1.12.21-1.66.17-.66.72-.99,1.39-1.05.78-.07,1.81-.15,2.42.37.98.83.48,2.05,1.03,3.08l-.36-.72Z"/>
              </g>
              <g class="cls-23">
                <path class="cls-7" d="m891.3,395.11c.39.55.65.82.55,1.45-.07.42-.15.4-.55.54-.4.14-1.02.6-1.25.08-.18-.41.03-1.17.16-1.53.06-.15.19-.48.31-.59.24-.21.35-.07.6.05h.18Z"/>
              </g>
              <g class="cls-23">
                <path class="cls-7" d="m968.74,438.47c.39.55.65.82.55,1.45-.07.42-.15.4-.55.54-.4.14-1.02.6-1.25.08-.18-.41.03-1.17.16-1.53.06-.15.19-.48.31-.59.24-.21.35-.07.6.05h.18Z"/>
              </g>
              <g class="cls-23">
                <path class="cls-7" d="m898.35,437.62c.46.93.6,1.71.8,2.72.12.59.26,1.21-.15,1.7-.38.45-.99.6-1.51.82-.56.24-1.06.5-1.66.64-.52.13-1.2.21-1.64-.18-.69-.62-1.18-1.62-1.54-2.45-.41-.97-.71-2.02-.36-3.08.22-.65.71-1.26,1.15-1.77.56-.65,1.24-.86,2.02-1.13,1.14-.39,1.73-.6,2.52.41.23.3.59.66.7,1.03.16.54.03,1.26.03,1.82l-.36-.54Z"/>
              </g>
              <g class="cls-23">
                <path class="cls-7" d="m809.93,410.77c.29.6.38,1.1.51,1.75.08.38.17.78-.1,1.1-.24.29-.64.39-.97.53-.36.15-.69.32-1.07.41-.34.08-.77.14-1.05-.11-.44-.4-.76-1.04-.99-1.58-.27-.62-.46-1.3-.23-1.98.14-.42.46-.81.74-1.14.36-.42.8-.55,1.3-.73.74-.25,1.11-.39,1.62.26.15.19.38.43.45.66.1.35.02.81.02,1.17l-.23-.35Z"/>
              </g>
              <g class="cls-42">
                <path class="cls-2" d="m881.32,382.76c.66,1.05,1.77,2.26,2.84,2.9,1,.59,2.24,1.23,3.34,1.6.54.18,1.11.23,1.64.41,1.28.45,1.97,2.04,2.41,3.2.35.94.89,1.78,1.21,2.73.29.83.55,1.65.89,2.46.28.64.71,1.19.98,1.83.37.84-.21,2.54.97,2.76,1.03.18,2.05-.29,3.03-.5.97-.23,2.53-.41,3.37.27.56.43.82,1.36,1.08,1.98.5,1.19,1.53,1.48,2.64,1.99,1.85.86,3.72,1.9,5.71,2.36.66.15,1.34.03,2.01.17,2.65.6,5.32.46,7.84-.61,1.83-.77,3.51-1.98,5.19-3.04-.49-.63-.97-1.24-1.47-1.83-4.04-4.73-29.9-16.58-44.1-22.13-.1.33-.18.67-.23,1-.11.91.16,1.66.64,2.43Z"/>
              </g>
              <g class="cls-42">
                <path class="cls-2" d="m926.59,428.55c-.74-.34-1.52-.57-2.32-.67-.21.5-.79.69-1.15,1.05-.28.28-.5.63-.65.99-.35.81-.47,1.65-.91,2.42-.61,1.05-1.44,1.73-1.56,3.03-.08.81-.25,2.48.57,2.96.5.3,1.11.05,1.62-.09.98-.28,1.73-.58,2.54-1.19,1.14-.86,2.1-2.01,2.88-3.2.53-.82.84-1.69.74-2.67-.09-.97-.36-3.1-1.74-2.63Z"/>
              </g>
              <g class="cls-42">
                <path class="cls-2" d="m881.55,415.81c.22,1.24.66,2.45.84,3.69.11.74.31,2.28-.15,2.91-.45.61-1.87.99-2.48,1.24-1.41.58-2.86,1.05-4.24,1.71-2.1,1-4.61,3.31-6.95,1.41-.68-.55-1.21-1.36-1.73-2.06-.59-.79-1.26-1.72-1.72-2.59-.48-.89-.71-1.89-1.08-2.83-.27-.71-.7-1.41-.9-2.14-.22-.83-.29-1.66-.26-2.52.03-.71.26-1,.9-1.36,1.18-.67,2.88-.76,4.2-.79,1.86-.05,3.93.53,5.76.86,1.77.32,3.63.27,5.37.76,1.24.35,1.25,2.19,2.45,1.71Z"/>
              </g>
              <g class="cls-42">
                <path class="cls-2" d="m933.52,435.51c.05,4.83.27,9.79.72,14.55l44.68-1.04s-.6-4.51-1.57-10.26c0,0,0-.03-.03-.1-.1-.57-.19-1.14-.3-1.72-.25.68-.46,1.64-1.23,1.74-.17.03-.35-.03-.53,0-.12.02-.13.16-.25.18-.38.07-.77-.03-1.14.07-.76.19-1.41.94-2.01,1.42-.63.51-1.27,1.04-1.99,1.4-1.2.59-2.07.83-3.31.23-2.26-1.1-4.2-3.15-5.82-5.04-1.87-2.18-3.56-4.51-5.54-6.59-.79-.83-1.64-1.64-2.52-2.4-.48-.41-1.02-1.02-1.65-1.15-.28-.06-.86-.1-1.12.03-.47.25-.76,1.02-.98,1.45-.31.61-.74,1.41-1.35,1.82-.51.34-1.26.32-1.76.66-.26.17-.47.57-.63.86-.23.43-.45.74-.81,1.09-.59.59-.92.9-1.77.91-1.18.02-2.17-.37-3.24-.84-1.47-.64-2.89-1.71-4.51-1.22-.7.22-1.19.64-1.27,1.37-.03.3,0,.63,0,.92,0,.56-.05,1.1-.1,1.65Z"/>
              </g>
              <g class="cls-42">
                <path class="cls-2" d="m860.09,449.27c-.03.1-.04.2-.06.32h.79c0-.06-.03-.11-.03-.17,0-.05-.03-.1-.03-.15-.2-.83-.37-1.59-.66,0Z"/>
              </g>
              <g class="cls-42">
                <path class="cls-2" d="m791.9,450.06l68.01-.47c-.21-.11-.41-.22-.62-.33h0c-1.41-.75-2.79-1.47-4.39-1.77-.88-.17-1.72-.27-2.62-.27s-1.81.19-2.72.23c-.43.03-.87-.08-1.29,0-.29.07-.47.19-.77.21-1.77.1-3.55-.12-5.31.04-.9.08-1.77.18-2.67.15-.37,0-.75-.03-1.13-.1-1.07-.18-2.17-.29-3.23-.52-1.39-.3-2.45-.91-3.92-.88-.55,0-1.03-.14-1.56-.21-.64-.09-1.34-.03-1.99-.03-1.01,0-2.06.12-3.04-.19-1.14-.36-2.33-.85-3.3-1.54-1.05-.75-1.99-1.5-3.18-2.02-1.13-.5-2.18-.84-3.39-1.09-1.51-.3-3.05-.51-4.56-.84-1.91-.42-3.6-1.37-5.32-2.26-1.74-.9-3.44-1.85-4.98-3.05-1.14-.88-2.2-1.85-3.29-2.8-1.18-1.03-2.41-2.32-3.78-3.15-.54,9.25-.93,20.88-.93,20.88Z"/>
              </g>
              <path class="cls-39" d="m1091.49,408.67s-4.21,1.04-4.28-2.87l4.28,2.87Z"/>
              <g class="cls-31">
                <path class="cls-6" d="m1082.59,309.68c11.2-2.64,39.8,6.28,39.8,6.28,14.73,8.91,25.13,48.27,25.45,49.5v.03s-.4-3.44-.4-3.44c-2.55-10.58-14.39-41.36-20.02-46.99-6.59-6.59-37.24-9.12-44.83-5.38Z"/>
              </g>
            </g>
            <g>
              <path class="cls-28" d="m1163.59,391.08c-1.97-69.5,29.45-102.53,29.45-102.53l-29.45,102.53Z"/>
              <path class="cls-43" d="m1076.21,386.02c17.86,17.82,24.75,60.3,24.75,60.3,0,0-2.75-38.88-6.73-46.68-3.98-7.8-18.03-13.62-18.03-13.62Z"/>
              <path class="cls-49" d="m1167.9,387.23c20.84-86.57,70.62-112.65,70.62-112.65l-70.62,112.65Z"/>
              <path class="cls-44" d="m1150.75,396.48c5.79-24.11-3.57-50.78-3.57-50.78l3.57,50.78Z"/>
              <path class="cls-35" d="m1159.3,395.55c11.07-52.22,7.84-105.88,7.84-105.88l-7.84,105.88Z"/>
              <path class="cls-30" d="m1278.99,428.78l17.07-46.81s-16.07,21.78-17.07,46.81Z"/>
              <path class="cls-50" d="m1276.76,425.85l.54-5.73,9.32-99.91s-8.84,38.04-9.99,82.73c-.2,7.5-.18,15.19.14,22.92Z"/>
              <path class="cls-51" d="m1103.03,450.68l19.64-.23,23.01-.27,41.03-.49,3.87-.04,13.45-.16,140.96-1.66s-2.54-34.37-22.76-48.6c-1.33-.93-2.68-1.57-4.04-1.96-15.55,14.64-26.44,36.39-26.99,37.49l12.85-33.72c-14.65,10.62-27.43,37.61-27.43,37.61,0,0,.72-7.48.68-18.54-.02-5.1-.19-10.95-.68-17.18-1.09-14.14-3.76-30.22-9.67-43.76-5.18-11.86-12.86-21.77-24.17-26.69-11.6,12.49-21.53,29.71-28.55,43.75l20.67-46.24c-2.24-.45-4.6-.74-7.08-.84-2.06-.08-4.09-.06-6.09.07l-16.8,37.08-10.81,23.86c.08-.86,2.89-28.58,15.44-58.81-2.97.86-5.85,1.94-8.63,3.22-.29.13-.58.27-.88.41h0c-7.12,3.4-13.61,8.06-19.48,13.44,0,0,0,0,0,0-2.29,2.1-4.49,4.31-6.59,6.6h0c-3.48,3.79-6.7,7.78-9.66,11.84-.08.11-.15.21-.23.32-.14.2-.29.4-.44.6-.01.01-.02.03-.03.05-.85,1.18-1.68,2.36-2.48,3.55-3.26,4.8-6.15,9.61-8.68,14.19,0,0,0,0,0,0-.75,1.34-1.46,2.67-2.15,3.97h0c-7.1,13.53-10.83,24.23-11.19,25.27.5-1.8,8.55-31.73-2.11-43.67-1-1.13-2.17-2.09-3.53-2.86-2.79-1.58-5.51-.18-8.12,3.22,1.15,34.08-3.76,70.67-3.86,66.79-.08-3.14-2.37-29.43-4.17-49.77-8.44,24.59-14.26,62.13-14.26,62.13Z"/>
              <path class="cls-16" d="m1278.99,428.78l17.07-46.81s-16.07,21.78-17.07,46.81Z"/>
              <path class="cls-18" d="m1204.04,449.5l92.04-1.09c1.31-9.13,5.58-29.1,19.08-48.13-13.92,14.44-23.44,33.46-23.96,34.49l12.85-33.72c-14.65,10.62-27.43,37.61-27.43,37.61,0,0,.72-7.48.68-18.54l9.31-99.88c-.27,1.17-8.86,38.71-9.99,82.7-1.09-14.14-3.76-30.22-9.67-43.76,1.68,25.87-44.02,80.04-44.02,80.04l20.64-54.71-32.69,57.75,2.94-14.41-9.77,21.65Z"/>
              <path class="cls-21" d="m1186.72,449.7l3.87-.04,14.32-83.35-10.81,23.86c.08-.86,2.89-28.58,15.44-58.81-2.97.86-5.85,1.94-8.63,3.22-.29.13-.58.27-.88.41h0c-1.29,2.09-2.46,4.32-3.55,6.66-14.71,31.65-12.06,83.59-9.75,108.05Z"/>
              <path class="cls-22" d="m1145.69,450.18c-.2-6.5-.95-54.4,17.89-82.33-.85,1.18-1.68,2.36-2.48,3.55-3.26,4.8-6.15,9.61-8.68,14.19,0,0,0,0,0,0-.75,1.34-1.46,2.67-2.15,3.97h0c-7.1,13.53-10.83,24.23-11.19,25.27.5-1.8,8.55-31.73-2.11-43.67-.04.03-.07.04-.07.04,9.6,16.82-11.32,71.8-14.22,79.23l23.01-.27Z"/>
            </g>
            <g>
              <path class="cls-26" d="m1082.86,449.51l8.63-40.84-4.28-2.87-9.17,43.22s-2.03-27.43-2.36-47.57c0,0-24.72-10.58-55.04-14.54l-1.41,14.54-1.88-14.54s-7.25-3.95-20.43-4.61c0,0-.11,37.24,8.02,57.68l-5.38-1.65s-5.97-30.65-20.62-46.14l-4.65.99s12.41,15.49,19.66,39.55c0,0-13.07-32.63-31.25-47.46l-3.68,4.28s21.75,21.16,33.29,60.51l90.57-.56Z"/>
              <path class="cls-34" d="m1075.67,401.45s-19.01-.03-29.44-1.52l-.72,12.55-3.03-13.37-13.47-4.29v3.31l-.79-3.55-7.55-3.92-.03-3.74s36.14,4.47,55.04,14.54Z"/>
              <path class="cls-24" d="m1017.33,386.91s-13.18-.55-20.43-4.61c0,0,12.16-1.69,20.43,4.61Z"/>
              <path class="cls-48" d="m1027.04,449.73s.35-25.92,0-43.93l-4.23,1.24s-6.13,35.04-6.57,42.56h-2.64s-7.29-54.94-9.36-72.93l-2.23-.85s4.09,53.79,8.5,74.24l16.53-.33Z"/>
              <path class="cls-27" d="m1075.67,401.45s1.98,37.5,2.36,47.57l-18.09.4s-1.14-27.72.03-38.02l2.12.03s-1.31,22.05-.62,31.88l4.73,2.47s.6-36.63,1.57-44.29l7.89-.05Z"/>
              <path class="cls-38" d="m1003.68,451.12s-7.37-40.58-24.76-58.93l-4.65.99s19.05,21.49,24.02,56.89l5.39,1.05Z"/>
              <path class="cls-45" d="m963.61,384.06s22.74,23.09,30.67,52.22l-4.3-1.71s-16.53-35.51-30.18-45.95l3.81-4.56Z"/>
              <path class="cls-47" d="m1007.59,449.24s-9.63-34.85-11.81-49.41l-4.64-3.18s8.61,38.18,13.77,52.95l2.67-.36Z"/>
            </g>
          </g>
        </g>
      </g>
    </g>
  </g>
</svg>