<?xml version="1.0" encoding="UTF-8"?>
<svg xmlns="http://www.w3.org/2000/svg" xmlns:xlink="http://www.w3.org/1999/xlink" viewBox="0 0 1350 450">
  <defs>
    <style>
      .cls-1 {
        fill: #54103d;
        mix-blend-mode: multiply;
        opacity: .35;
      }

      .cls-1, .cls-2 {
        fill-rule: evenodd;
      }

      .cls-3 {
        isolation: isolate;
      }

      .cls-2 {
        fill: url(#linear-gradient);
      }

      .cls-4 {
        clip-path: url(#clippath);
      }

      .cls-5 {
        fill: none;
      }
    </style>
    <clipPath id="clippath">
      <rect class="cls-5" width="1350" height="450"/>
    </clipPath>
    <linearGradient id="linear-gradient" x1="1159.34" y1="147.92" x2="1159.34" y2="388.74" gradientUnits="userSpaceOnUse">
      <stop offset="0" stop-color="#591139"/>
      <stop offset=".56" stop-color="#550f37"/>
      <stop offset=".99" stop-color="#4c0c32"/>
      <stop offset="1" stop-color="#4c0c32"/>
    </linearGradient>
  </defs>
  <g class="cls-3">
    <g id="Layer_2" data-name="Layer 2">
      <g id="layer1">
        <g class="cls-4">
          <g>
            <path class="cls-2" d="m1183.57,457.22l-10.05,1.74-.78.13-2.65.47-3.97.69-26.46,4.62s.44-4.1,1.13-12.34c.01-.19.04-.38.04-.59.92-10.97,2.23-28.95,3.5-53.99.06-1.07.1-2.15.16-3.25.47-9.66.92-20.29,1.36-31.97,0-.18.01-.37.01-.54.31-8.32.59-17.14.86-26.48.42-15.78.79-33,1.04-51.68.13-8.84.22-18.01.28-27.49.01-2.71.04-5.44.04-8.19.13-29.01-.03-60.93-.56-95.83-.04-2.43-.09-4.82-.13-7.19-.06-3.77-.13-7.43-.19-11.06-.37-19.65-.78-37.45-1.23-53.57-.03-1.23-.06-2.45-.1-3.66-.73-25.42-1.57-46.58-2.43-64.18-.13-2.71-.26-5.33-.4-7.87-.13-2.27-.25-4.45-.37-6.59-3.52-62.26-7.33-71.18-7.58-71.74l.85.79,14.62,13.47,8.75,8.06s.7,21.69,1.88,56.12c.29,8.53.62,17.85.97,27.83.41,11.43.84,23.71,1.32,36.63h0c.62,17.32,1.3,35.78,2.02,54.9.15,4.01.31,8.06.45,12.15l.04.75.06,1.77.19,5.32.15,3.56.13,3.58.04.95c2.39,62.1,5.14,128.41,7.88,183.32.18,3.22.32,6.4.48,9.54.03.45.04.91.07,1.33.23,4.5.45,8.89.69,13.2.7,13.13,1.39,25.33,2.08,36.38.34,5.33.66,10.39.98,15.14.41,5.98.81,11.47,1.2,16.43.76,9.64,1.51,17.26,2.21,22.42.07.51.15,1.01.21,1.47.04.2.07.38.1.57.1.66.2,1.26.31,1.8.25,1.42.51,2.46.76,3.11Z"/>
            <path class="cls-1" d="m1179.2,438.8c-1.19,5.44-2.26,9.69-3.21,12.97-.06.21-.1.38-.16.57-.19.63-.37,1.22-.54,1.77-.66,2.08-1.25,3.66-1.77,4.85-2.23,5.01-3.34,2.9-3.43.6l-3.97.69-26.46,4.62s.44-4.1,1.13-12.34c.01-.19.04-.38.04-.59.92-10.97,2.23-28.95,3.5-53.99.06-1.07.1-2.15.16-3.25.25-1.2.51-2.37.79-3.53,1.89-8.37,3.5-18.43,4.84-28.84,4.07-31.4,5.67-65.85,4.94-65.85-.97-.03-.84-39.59-5.64-21.74-.44,1.68-1,4.91-1.64,9.29.13-8.84.22-18.01.28-27.49,5.08-39.5,9.52-77.15,10.27-82.19,1.82-12.12.15-27.71.15-27.71,0,0,3.41-39.52.86-39.55-1.93,0-8.67,25.48-11.93,38.23-.06-3.77-.13-7.43-.19-11.06,3.06-8.44,13.88-38.7,13.91-41.94.01-.6-.59-8.06-1.73-19.65-.85-8.67-1.99-19.66-3.41-31.83-.31-2.58-.62-5.22-.94-7.9-1.1-8.98-2.32-18.42-3.66-27.93-.31-2.29-.64-4.59-.98-6.89-3.96-26.95-8.86-53.6-14.43-70.7l14.62,13.47,8.75,8.06s.7,21.69,1.88,56.12c.29,8.53.62,17.85.97,27.83.41,11.43.84,23.71,1.32,36.63h0c.62,17.32,1.3,35.78,2.02,54.9-.28,8.98-.56,18.37-.84,28.18-.94,34.9-7.44,43.85-9.54,59.09-2.62,11.77,2.05,41.36-.15,51.45-3.53,16.19,16.5,65.48,19.47,72.68.25.57.38.88.38.88.04,3.41.1,6.74.18,9.99.03,1.25.04,2.49.07,3.72-2.99-6.68-8.66-19-9.74-19-.64,0-3.16,11.6-5.6,29.99-1.35,10.2-2.68,22.48-3.63,36.02-1.19,16.73-1.82,35.39-1.25,54.43,0,.19,0,.38.01.59.09,3.05.21,6.1.37,9.16l1.17-9.17.09-.57,7.03-54.8,1.55-12.02c.13,0,10.15-21.85,10.3-21.85-.38,1.9.63,16.92,1.73,33.11.84,12.26,1.71,25.2,2.07,33.6.19,4.62.22,7.87,0,8.88Z"/>
          </g>
        </g>
      </g>
    </g>
  </g>
</svg>