<?xml version="1.0" encoding="UTF-8"?>
<svg xmlns="http://www.w3.org/2000/svg" xmlns:xlink="http://www.w3.org/1999/xlink" viewBox="0 0 1350 450">
  <defs>
    <style>
      .cls-1 {
        fill: #5a0c3c;
      }

      .cls-1, .cls-2, .cls-3, .cls-4, .cls-5, .cls-6, .cls-7, .cls-8, .cls-9, .cls-10, .cls-11, .cls-12, .cls-13, .cls-14, .cls-15, .cls-16, .cls-17 {
        fill-rule: evenodd;
      }

      .cls-18 {
        fill: url(#linear-gradient-51);
      }

      .cls-19 {
        fill: url(#linear-gradient-5);
      }

      .cls-19, .cls-20, .cls-3, .cls-21, .cls-22, .cls-23, .cls-6, .cls-24, .cls-25, .cls-26, .cls-10, .cls-27, .cls-12, .cls-28, .cls-29, .cls-16, .cls-30, .cls-31 {
        mix-blend-mode: multiply;
      }

      .cls-19, .cls-21, .cls-22, .cls-24, .cls-25, .cls-27, .cls-29 {
        opacity: .14;
      }

      .cls-20 {
        fill: url(#linear-gradient-14);
      }

      .cls-20, .cls-4, .cls-23, .cls-11, .cls-12, .cls-28, .cls-32, .cls-30, .cls-31 {
        opacity: .5;
      }

      .cls-2 {
        fill: #6b1816;
      }

      .cls-2, .cls-4, .cls-5, .cls-11, .cls-17 {
        mix-blend-mode: soft-light;
      }

      .cls-33 {
        fill: url(#linear-gradient-43);
      }

      .cls-34 {
        fill: url(#linear-gradient-15);
      }

      .cls-35 {
        fill: url(#linear-gradient-58);
      }

      .cls-36 {
        fill: url(#linear-gradient-56);
      }

      .cls-37 {
        fill: url(#linear-gradient-40);
      }

      .cls-38 {
        fill: url(#linear-gradient-52);
      }

      .cls-3, .cls-12 {
        fill: #822b2b;
      }

      .cls-39 {
        fill: url(#linear-gradient-36);
      }

      .cls-21 {
        fill: url(#linear-gradient-10);
      }

      .cls-40 {
        fill: url(#linear-gradient-53);
      }

      .cls-41 {
        isolation: isolate;
      }

      .cls-22 {
        fill: url(#linear-gradient-9);
      }

      .cls-4 {
        fill: #90305d;
      }

      .cls-5 {
        fill: #d9549f;
      }

      .cls-42 {
        fill: #ffc490;
      }

      .cls-43 {
        fill: url(#linear-gradient-35);
      }

      .cls-23 {
        fill: url(#linear-gradient-13);
      }

      .cls-44 {
        fill: url(#linear-gradient-48);
      }

      .cls-45 {
        fill: url(#linear-gradient-32);
      }

      .cls-6 {
        fill: #773c6b;
        opacity: .6;
      }

      .cls-24 {
        fill: url(#linear-gradient-2);
      }

      .cls-46 {
        fill: url(#linear-gradient-11);
      }

      .cls-47 {
        fill: url(#linear-gradient-50);
      }

      .cls-48 {
        fill: url(#linear-gradient-39);
      }

      .cls-25 {
        fill: url(#linear-gradient-3);
      }

      .cls-49 {
        fill: url(#linear-gradient-59);
      }

      .cls-7 {
        fill: url(#linear-gradient-26);
      }

      .cls-50 {
        fill: url(#linear-gradient-6);
        opacity: .21;
      }

      .cls-50, .cls-15, .cls-32 {
        mix-blend-mode: screen;
      }

      .cls-51 {
        fill: url(#linear-gradient-49);
      }

      .cls-52 {
        fill: url(#linear-gradient-37);
      }

      .cls-53 {
        fill: url(#linear-gradient-16);
      }

      .cls-8 {
        fill: url(#linear-gradient-28);
      }

      .cls-9 {
        fill: url(#linear-gradient-27);
      }

      .cls-54 {
        fill: url(#linear-gradient-41);
      }

      .cls-55 {
        fill: url(#linear-gradient-21);
      }

      .cls-26 {
        opacity: .33;
      }

      .cls-10 {
        fill: url(#linear-gradient-25);
        opacity: .2;
      }

      .cls-56 {
        fill: url(#linear-gradient-54);
      }

      .cls-57 {
        fill: url(#linear-gradient-45);
      }

      .cls-58 {
        fill: url(#linear-gradient-55);
      }

      .cls-59 {
        clip-path: url(#clippath);
      }

      .cls-11, .cls-17 {
        fill: #8e4241;
      }

      .cls-60 {
        fill: url(#linear-gradient-34);
      }

      .cls-61 {
        fill: none;
      }

      .cls-27 {
        fill: url(#linear-gradient-4);
      }

      .cls-13 {
        fill: url(#linear-gradient-20);
      }

      .cls-14 {
        fill: url(#linear-gradient-31);
      }

      .cls-28 {
        fill: url(#linear-gradient-17);
      }

      .cls-62 {
        fill: url(#linear-gradient-42);
      }

      .cls-15 {
        fill: url(#linear-gradient-22);
        opacity: .95;
      }

      .cls-63 {
        clip-path: url(#clippath-5);
      }

      .cls-32 {
        fill: url(#linear-gradient-7);
      }

      .cls-29 {
        fill: url(#linear-gradient-8);
      }

      .cls-16 {
        fill: url(#linear-gradient-24);
        opacity: .4;
      }

      .cls-64 {
        fill: url(#linear-gradient);
      }

      .cls-65 {
        fill: #832400;
      }

      .cls-66 {
        fill: url(#linear-gradient-33);
      }

      .cls-67 {
        fill: url(#linear-gradient-38);
      }

      .cls-68 {
        fill: url(#linear-gradient-29);
      }

      .cls-30 {
        fill: url(#linear-gradient-18);
      }

      .cls-69 {
        fill: url(#linear-gradient-30);
      }

      .cls-70 {
        fill: url(#linear-gradient-23);
      }

      .cls-31 {
        fill: url(#linear-gradient-19);
      }

      .cls-71 {
        fill: url(#linear-gradient-44);
      }

      .cls-72 {
        fill: url(#linear-gradient-57);
      }

      .cls-73 {
        fill: url(#linear-gradient-47);
      }

      .cls-74 {
        fill: url(#linear-gradient-46);
      }

      .cls-75 {
        fill: url(#linear-gradient-12);
      }
    </style>
    <clipPath id="clippath">
      <rect class="cls-61" width="1350" height="450"/>
    </clipPath>
    <linearGradient id="linear-gradient" x1="809.02" y1="316.79" x2="806.48" y2="236.59" gradientUnits="userSpaceOnUse">
      <stop offset="0" stop-color="#7a3c00"/>
      <stop offset="1" stop-color="#b73f01"/>
    </linearGradient>
    <linearGradient id="linear-gradient-2" x1="773.79" y1="-178.68" x2="1447.63" y2="495.17" gradientUnits="userSpaceOnUse">
      <stop offset="0" stop-color="#fff"/>
      <stop offset="1" stop-color="#832400"/>
    </linearGradient>
    <linearGradient id="linear-gradient-3" x1="985.29" y1="-103.7" x2="1385.54" y2="296.54" xlink:href="#linear-gradient-2"/>
    <linearGradient id="linear-gradient-4" x1="787.85" y1="143.8" x2="1109.73" y2="465.68" xlink:href="#linear-gradient-2"/>
    <linearGradient id="linear-gradient-5" x1="861.67" y1="-28.27" x2="1421.01" y2="531.07" xlink:href="#linear-gradient-2"/>
    <linearGradient id="linear-gradient-6" x1="951.53" y1="312.28" x2="948.99" y2="232.07" gradientUnits="userSpaceOnUse">
      <stop offset="0" stop-color="#be107e"/>
      <stop offset=".46" stop-color="#d01f65"/>
      <stop offset="1" stop-color="#ea3443"/>
    </linearGradient>
    <linearGradient id="linear-gradient-7" x1="814.65" y1="316.61" x2="825.78" y2="237.15" gradientUnits="userSpaceOnUse">
      <stop offset="0" stop-color="#be1044"/>
      <stop offset=".29" stop-color="#c82840"/>
      <stop offset=".89" stop-color="#e46735"/>
      <stop offset="1" stop-color="#ea7434"/>
    </linearGradient>
    <linearGradient id="linear-gradient-8" x1="510.22" y1="297.47" x2="510.22" y2="147.25" gradientUnits="userSpaceOnUse">
      <stop offset="0" stop-color="#832400"/>
      <stop offset="1" stop-color="#fff"/>
    </linearGradient>
    <linearGradient id="linear-gradient-9" x1="738.78" y1="352.43" x2="738.78" y2="210.94" xlink:href="#linear-gradient-8"/>
    <linearGradient id="linear-gradient-10" x1="585.1" y1="327.55" x2="585.1" y2="157.89" xlink:href="#linear-gradient-8"/>
    <linearGradient id="linear-gradient-11" x1="219.17" y1="161.06" x2="281.08" y2="384.1" gradientTransform="translate(1349.91) rotate(-180) scale(1 -1)" gradientUnits="userSpaceOnUse">
      <stop offset="0" stop-color="#320026"/>
      <stop offset="1" stop-color="#4d003f"/>
    </linearGradient>
    <linearGradient id="linear-gradient-12" x1="285.06" y1="166.85" x2="370.31" y2="474.02" xlink:href="#linear-gradient-11"/>
    <linearGradient id="linear-gradient-13" x1="227.09" y1="195.34" x2="249.77" y2="289.59" xlink:href="#linear-gradient-11"/>
    <linearGradient id="linear-gradient-14" x1="239.39" y1="159.77" x2="245.02" y2="222.34" gradientTransform="translate(1349.91) rotate(-180) scale(1 -1)" gradientUnits="userSpaceOnUse">
      <stop offset="0" stop-color="#320026"/>
      <stop offset="1" stop-color="#a1007b"/>
    </linearGradient>
    <linearGradient id="linear-gradient-15" x1="260.27" y1="120.11" x2="269.04" y2="284.19" xlink:href="#linear-gradient-11"/>
    <linearGradient id="linear-gradient-16" x1="377.1" y1="92.74" x2="387.23" y2="282.39" xlink:href="#linear-gradient-11"/>
    <linearGradient id="linear-gradient-17" x1="272.04" y1="205.66" x2="274.8" y2="257.12" xlink:href="#linear-gradient-11"/>
    <linearGradient id="linear-gradient-18" x1="281.95" y1="169.97" x2="283.31" y2="195.38" xlink:href="#linear-gradient-14"/>
    <linearGradient id="linear-gradient-19" x1="384.89" y1="241.41" x2="388.31" y2="308.44" xlink:href="#linear-gradient-11"/>
    <clipPath id="clippath-5">
      <polygon class="cls-61" points="0 321.21 0 450 1350 450 1350 307.96 359.44 307.96 0 321.21"/>
    </clipPath>
    <linearGradient id="linear-gradient-20" x1="678.13" y1="12065.1" x2="678.13" y2="12538.25" gradientTransform="translate(0 -4683.21) scale(1 .41)" gradientUnits="userSpaceOnUse">
      <stop offset="0" stop-color="#e1233f"/>
      <stop offset=".45" stop-color="#e12f3e"/>
      <stop offset="1" stop-color="#e23a3e"/>
    </linearGradient>
    <linearGradient id="linear-gradient-21" x1="693.95" y1="504.36" x2="693.95" y2="284.43" gradientTransform="matrix(1, 0, 0, 1, 0, 0)" xlink:href="#linear-gradient-20"/>
    <linearGradient id="linear-gradient-22" x1=".31" y1="305.9" x2="1358.33" y2="305.9" gradientUnits="userSpaceOnUse">
      <stop offset="0" stop-color="#451635"/>
      <stop offset=".33" stop-color="#461838"/>
      <stop offset=".66" stop-color="#4c1f44"/>
      <stop offset=".99" stop-color="#562c58"/>
      <stop offset="1" stop-color="#572d5a"/>
    </linearGradient>
    <linearGradient id="linear-gradient-23" x1="439.18" y1="313.96" x2="439.18" y2="96.74" gradientUnits="userSpaceOnUse">
      <stop offset=".01" stop-color="#521609"/>
      <stop offset=".99" stop-color="#6c230b"/>
    </linearGradient>
    <linearGradient id="linear-gradient-24" x1="-28.5" y1="246.2" x2="56.1" y2="246.2" gradientUnits="userSpaceOnUse">
      <stop offset="0" stop-color="#000"/>
      <stop offset=".15" stop-color="#7e191b"/>
      <stop offset=".41" stop-color="#000"/>
    </linearGradient>
    <linearGradient id="linear-gradient-25" x1="-53.69" y1="184.81" x2="196.21" y2="184.81" xlink:href="#linear-gradient-24"/>
    <linearGradient id="linear-gradient-26" x1="-10.48" y1="284.73" x2="602.27" y2="284.73" gradientUnits="userSpaceOnUse">
      <stop offset=".01" stop-color="#6a0c28"/>
      <stop offset=".99" stop-color="#600b31"/>
    </linearGradient>
    <linearGradient id="linear-gradient-27" x1="585.89" y1="222.25" x2="585.89" y2="-130.14" gradientTransform="translate(799.12 81.07) rotate(-168.39) scale(1 -1)" gradientUnits="userSpaceOnUse">
      <stop offset="0" stop-color="#5a0d06"/>
      <stop offset=".2" stop-color="#5d110c"/>
      <stop offset=".2" stop-color="#5e120d"/>
      <stop offset=".85" stop-color="#530f13"/>
      <stop offset=".99" stop-color="#500f15"/>
    </linearGradient>
    <linearGradient id="linear-gradient-28" x1="65.92" y1="241.69" x2="65.92" y2="-57.8" gradientUnits="userSpaceOnUse">
      <stop offset="0" stop-color="#561109"/>
      <stop offset=".35" stop-color="#500a0e"/>
      <stop offset=".36" stop-color="#500a0f"/>
      <stop offset=".91" stop-color="#45050d"/>
      <stop offset=".99" stop-color="#43050d"/>
    </linearGradient>
    <linearGradient id="linear-gradient-29" x1="332.79" y1="288.79" x2="1350" y2="288.79" gradientUnits="userSpaceOnUse">
      <stop offset="0" stop-color="#4a0a30"/>
      <stop offset=".99" stop-color="#5c0d27"/>
    </linearGradient>
    <linearGradient id="linear-gradient-30" x1="344.54" y1="272.83" x2="1349.88" y2="272.83" gradientUnits="userSpaceOnUse">
      <stop offset="0" stop-color="#6d130b"/>
      <stop offset=".99" stop-color="#6a250b"/>
    </linearGradient>
    <linearGradient id="linear-gradient-31" x1="675.16" y1="322.19" x2="675.16" y2="306.21" gradientUnits="userSpaceOnUse">
      <stop offset="0" stop-color="#4e1708"/>
      <stop offset="1" stop-color="#551709"/>
    </linearGradient>
    <linearGradient id="linear-gradient-32" x1="-57.87" y1="441.88" x2="1376.12" y2="441.88" xlink:href="#linear-gradient-31"/>
    <linearGradient id="linear-gradient-33" x1="561.4" y1="457.85" x2="537.3" y2="416.1" gradientUnits="userSpaceOnUse">
      <stop offset="0" stop-color="#472314"/>
      <stop offset="1" stop-color="#662e1d"/>
    </linearGradient>
    <linearGradient id="linear-gradient-34" x1="573.83" y1="452.27" x2="564.68" y2="436.42" gradientUnits="userSpaceOnUse">
      <stop offset="0" stop-color="#5e2f20"/>
      <stop offset="1" stop-color="#6e3520"/>
    </linearGradient>
    <linearGradient id="linear-gradient-35" x1="554.8" y1="452.27" x2="543.42" y2="432.55" xlink:href="#linear-gradient-34"/>
    <linearGradient id="linear-gradient-36" x1="614.47" y1="454.39" x2="603.2" y2="434.88" gradientUnits="userSpaceOnUse">
      <stop offset="0" stop-color="#37170d"/>
      <stop offset="1" stop-color="#532211"/>
    </linearGradient>
    <linearGradient id="linear-gradient-37" x1="477.53" y1="404.21" x2="457.37" y2="369.29" gradientTransform="translate(8.32 -75.93) rotate(-2.36) scale(1.02 .98) skewX(-2.01)" xlink:href="#linear-gradient-36"/>
    <linearGradient id="linear-gradient-38" x1="467.71" y1="393.25" x2="452.73" y2="367.3" gradientTransform="translate(8.32 -75.93) rotate(-2.36) scale(1.02 .98) skewX(-2.01)" xlink:href="#linear-gradient-34"/>
    <linearGradient id="linear-gradient-39" x1="676.6" y1="311.02" x2="659.13" y2="280.76" gradientUnits="userSpaceOnUse">
      <stop offset="0" stop-color="#4f2c1f"/>
      <stop offset=".99" stop-color="#612d1d"/>
    </linearGradient>
    <linearGradient id="linear-gradient-40" x1="713.42" y1="320.38" x2="690.45" y2="280.6" xlink:href="#linear-gradient-36"/>
    <linearGradient id="linear-gradient-41" x1="714.01" y1="320.54" x2="688.18" y2="275.79" xlink:href="#linear-gradient-33"/>
    <linearGradient id="linear-gradient-42" x1="697.97" y1="312.2" x2="686.21" y2="291.83" xlink:href="#linear-gradient-34"/>
    <linearGradient id="linear-gradient-43" x1="681.57" y1="309.84" x2="668.1" y2="286.51" xlink:href="#linear-gradient-34"/>
    <linearGradient id="linear-gradient-44" x1="732.2" y1="310.04" x2="717.84" y2="285.17" xlink:href="#linear-gradient-34"/>
    <linearGradient id="linear-gradient-45" x1="664.68" y1="311.79" x2="653.98" y2="293.26" xlink:href="#linear-gradient-34"/>
    <linearGradient id="linear-gradient-46" x1="705.17" y1="313.88" x2="696.15" y2="298.27" xlink:href="#linear-gradient-34"/>
    <linearGradient id="linear-gradient-47" x1="937.61" y1="306.1" x2="923.46" y2="281.58" xlink:href="#linear-gradient-39"/>
    <linearGradient id="linear-gradient-48" x1="967.46" y1="313.69" x2="948.84" y2="281.44" xlink:href="#linear-gradient-36"/>
    <linearGradient id="linear-gradient-49" x1="967.94" y1="313.82" x2="947" y2="277.55" xlink:href="#linear-gradient-33"/>
    <linearGradient id="linear-gradient-50" x1="954.93" y1="307.05" x2="945.4" y2="290.54" xlink:href="#linear-gradient-34"/>
    <linearGradient id="linear-gradient-51" x1="941.64" y1="305.14" x2="930.72" y2="286.23" xlink:href="#linear-gradient-34"/>
    <linearGradient id="linear-gradient-52" x1="982.68" y1="305.31" x2="971.04" y2="285.15" xlink:href="#linear-gradient-34"/>
    <linearGradient id="linear-gradient-53" x1="927.95" y1="306.72" x2="919.28" y2="291.7" xlink:href="#linear-gradient-34"/>
    <linearGradient id="linear-gradient-54" x1="960.77" y1="308.42" x2="953.46" y2="295.76" xlink:href="#linear-gradient-34"/>
    <linearGradient id="linear-gradient-55" x1="540.35" y1="393.7" x2="523.52" y2="364.55" gradientTransform="translate(8.32 -75.93) rotate(-2.36) scale(1.02 .98) skewX(-2.01)" xlink:href="#linear-gradient-34"/>
    <linearGradient id="linear-gradient-56" x1="478.53" y1="400.07" x2="457.53" y2="363.69" gradientTransform="translate(8.32 -75.93) rotate(-2.36) scale(1.02 .98) skewX(-2.01)" xlink:href="#linear-gradient-33"/>
    <linearGradient id="linear-gradient-57" x1="524.95" y1="395.11" x2="512.23" y2="373.09" gradientTransform="translate(8.32 -75.93) rotate(-2.36) scale(1.02 .98) skewX(-2.01)" xlink:href="#linear-gradient-34"/>
    <linearGradient id="linear-gradient-58" x1="448.66" y1="395.25" x2="435.95" y2="373.23" gradientTransform="translate(8.32 -75.93) rotate(-2.36) scale(1.02 .98) skewX(-2.01)" xlink:href="#linear-gradient-34"/>
    <linearGradient id="linear-gradient-59" x1="499.05" y1="393.99" x2="483.23" y2="366.59" gradientTransform="translate(8.32 -75.93) rotate(-2.36) scale(1.02 .98) skewX(-2.01)" xlink:href="#linear-gradient-34"/>
  </defs>
  <g class="cls-41">
    <g id="Layer_2" data-name="Layer 2">
      <g id="layer1">
        <g class="cls-59">
          <g>
            <path class="cls-42" d="m220.33,217.09s627.6,22.36,712.57,28.32c84.97,5.96,462.82-35.72,462.82-35.72l-.66,320.73H227.31l-6.99-313.33Z"/>
            <path class="cls-64" d="m218.68,221.4s627.6,22.36,712.57,28.32c84.97,5.96,464.78-35.72,464.78-35.72l-2.62,320.73H225.67l-6.99-313.33Z"/>
            <path class="cls-24" d="m1048.23,246.09c-16.23,1.09-31.64,2.01-45.85,2.71,80.85,4.48,289.91,14.99,393.27,10.23l.12-14.6c-65.03,1.56-263.02,5.79-347.55,1.66Z"/>
            <path class="cls-25" d="m1395.83,238.72l.04-5.05c-30.23-1.26-80.29-3.66-120.82-7.17-9.63.95-19.6,1.92-29.82,2.91,47.8,3.59,108.87,7.79,150.6,9.3Z"/>
            <path class="cls-27" d="m1020.66,287.32c125.41,20.71,35.33,0,35.33,0l-226.29-27.53c-24.32,1.39-47.43,2.63-69.29,3.71,43.57,1.64,160.45,7.34,260.26,23.82Z"/>
            <g class="cls-26">
              <polygon class="cls-65" points="746.61 295.55 1416.89 256.41 1415.76 280.83 752.52 303.6 746.61 295.55"/>
            </g>
            <path class="cls-19" d="m947.06,252.36c-14.25.98-28.19,1.91-41.8,2.8,114.31,7.14,393.61,23.51,490.27,19.56l.07-8.89c-71.73,1.16-361.27,4.61-448.55-13.47Z"/>
            <path class="cls-50" d="m988.62,249.43c-257.09,18.64-417.95,21.67-485.99,21.95l45.65,29.95,88.2-14.02s8.7-5.37,138.39-18.05c109.79-10.73,502.93-32.4,621.01-38.8l.13-16.46s-272.37,29.89-407.41,35.43Z"/>
            <path class="cls-32" d="m485.6,302.96l-20.54-31.75s171.66,3.73,523.57-21.79c-24.42,1-44.36,1.21-57.37.29-84.97-5.96-712.57-28.32-712.57-28.32l6.99,313.33h1167.74l1.51-185.21-909.32-46.56Z"/>
            <path class="cls-29" d="m601.61,269.71l-137.98-39.37c-15.29-.57-30.27-1.12-44.81-1.66,41.44,8.69,104.49,22.95,169.04,41.39,4.46-.11,9.05-.23,13.75-.36Z"/>
            <path class="cls-22" d="m793.77,261.77c8.32-.44,16.8-.91,25.43-1.4-20.54-6.37-45.32-13-74.21-19.2-27.54-1.11-56.71-2.27-86.65-3.44,46.31,6.24,95.33,14.31,135.43,24.03Z"/>
            <path class="cls-21" d="m490.81,231.36c49.97,9.45,119.43,23.03,178.02,36.16,3.48-.13,7-.27,10.57-.41-45.49-12.08-94.46-24.89-129.57-33.53-19.88-.75-39.63-1.5-59.02-2.22Z"/>
          </g>
          <g>
            <g>
              <path class="cls-46" d="m1087.77,258.13l14.74-1.01,8.67-.59h.16s.7-.05.7-.05l20.1-1.37-6.3-15.41-5.32-13-3.98-9.75,5.07,9.48.15.28,6.82-2.01-9.82-20.46-6.56-13.66,2.36-1.91s0,0-.03-.03c-.45-.56-6.82-8.69-9.39-18.68-.09-.34-.17-.68-.25-1.01l-10.38,24.46-.83,1.96.79,1.38c.4-1.23.82-2.36,1.23-3.41,2.08-5.21,4.11-8.06,4.21-8.18l-2.37,7.98-.03.1-1.73,5.8.1.19-2.03,9.58-2.83,13.36-.09.4,1.4,1.24-.47,3.58-.5,3.73-.63,4.76-2.69,20.24-.27,2.01Z"/>
              <polygon class="cls-75" points="1039.78 246.08 1043.93 248.04 1052.09 223.97 1039.78 246.08"/>
              <polygon class="cls-23" points="1086.94 259.51 1133.15 257.7 1120.53 226.7 1110.98 229.08 1106.73 214.67 1107.18 227.56 1091.02 222.17 1090.93 222.57 1092.33 223.81 1091.86 227.4 1091.36 231.12 1086.94 259.51"/>
              <polygon class="cls-20" points="1118.76 204.23 1112.2 190.57 1114.57 188.66 1109.99 191.45 1097.55 193.14 1097.52 193.24 1095.79 199.04 1095.89 199.23 1093.86 208.81 1118.76 204.23"/>
            </g>
            <path class="cls-34" d="m1042.89,271.61l26.85-1.85,2.37.37v-20.47l1.16,5.89,2.71,13.86.14.71,44.06,1.78c-.79-.78-1.65-1.69-2.55-2.75-2.18-2.58-4.63-5.92-7.17-9.7-.28-.41-.55-.83-.83-1.24-4.64-6.99-9.54-15.25-13.79-22.73-1.69-2.97-3.28-5.81-4.71-8.41-4.19-7.59-7.01-13.02-7.01-13.02l3.74-1.24-.59-1.78-8.5-28.02-3.29-10.85-.02-.05,3.84,1.01-2.65-14.26-6.66-35.7-.04-.21-.14-.76-.12-.7-.43,2.01-11.52,53.73-.07.34s0,0,.02,0l2.33-.64-4.84,16.21-6.81,22.85,2.41,2.67,7.69-20.62-4.67,21.29-7.2,32.77-2.95,13.45v.05l-.78,6.01Z"/>
            <polygon class="cls-53" points="950.04 276.94 963.53 275.3 976.53 273.72 974.73 262.3 974.15 258.7 974.08 258.24 976.46 262.93 977.03 264.05 976.87 263.4 973.68 249.79 971.67 241.17 971.14 238.9 972.61 238.26 963.29 195.07 963.2 195.58 956.49 233.41 956.42 233.75 958.39 233.11 958.88 231.81 957.56 236.08 953.64 248.8 950.53 258.88 952.98 258.24 955.44 251.15 952.89 263.33 950.04 276.94"/>
            <path class="cls-28" d="m1046.61,252.1l57.36,3.26c-1.69-2.97-19.84-41.29-19.84-41.29l3.74-1.24-17.26,3.65-3.34-10.62-1.21,14.26-12.25-.8-7.2,32.77Z"/>
            <path class="cls-30" d="m1055.2,193.14l23.59-10.11-3.29-10.85-7.3-1.82-10.43,6.87-.07.34s0,0,.02,0l2.33-.64-4.84,16.21Z"/>
            <polygon class="cls-31" points="950.04 276.94 963.53 275.3 976.53 273.72 974.73 262.3 974.15 258.7 966.64 244.91 965.73 261.53 952.89 263.33 950.04 276.94"/>
          </g>
          <g class="cls-63">
            <g>
              <path class="cls-13" d="m1357.37,291.07v192.73H-1.12v-188.28s13.62-.21,37.28-.56c6.01-.09,12.68-.19,19.94-.3,4.08-.05,8.35-.11,12.78-.18,3.14-.04,6.35-.1,9.66-.14,15.92-.23,33.8-.48,53.21-.74,5.9-.08,11.97-.17,18.16-.25,10.38-.14,21.13-.28,32.21-.43,2.07-.03,4.15-.05,6.23-.07,9.78-.13,19.79-.26,29.99-.39,7.47-.1,15.06-.19,22.75-.29,5.28-.07,10.61-.13,15.98-.19,33.72-.41,68.97-.82,104.57-1.2,3.77-.04,7.56-.08,11.35-.12,100.38-1.04,202.67-1.84,281.04-1.84,47.8,0,113.75.13,186.26.33h.02c2.84,0,5.68.02,8.53.02,48.6.14,99.89.31,150.46.48h.02c7.12.03,14.2.05,21.28.07,5.19.03,10.37.04,15.53.06,10.76.04,21.46.08,32.06.11,2.79,0,5.59.03,8.36.04,12.78.04,25.39.1,37.77.14,3.23,0,6.43.03,9.63.04,22.43.09,44.03.17,64.42.26h.02c98.54.39,168.97.7,168.97.7Z"/>
              <path class="cls-55" d="m1549.37,321.96c18.4-.05,36.81.86,54.95,2.72-55.26,2.13-110.61,3.4-165.97,3.82-6.87.05-14.17.02-19.99-2.22-2.92-1.12-5.31-2.75-8.47-3.59-2.82-.75-5.99-.81-9.06-.85-59.9-.85-119.82-1.21-179.74-1.08-7.06.02-14.5.1-20.61,2.26-4.56,1.62-7.89,4.22-11.62,6.49-21.66,13.17-55.38,14.44-85.89,14.91-12.12.19-25.48.12-34.62-4.75,2.61-3.11,5.22-6.22,7.84-9.33-6.63-3.51-16.66-1.95-25.41-1.49-26.84,1.43-50.83-9.34-76.52-14.28-18.02-3.47-37.18-4.06-56.08-3.93-49.27.33-98.13,2.74-147.59,2.96-52.02.23-104.03,1.14-156.02,2.39-112.65,2.7-225.19,6.98-337.88,9.22-27.84.55-335.44,1.17-334.88-2.81,1.9-13.64,13.79-24.99,22.55-37.97,134.9,6.61,269.89,13.22,405.32,15.96,103.87,2.1,207.83,1.92,311.74,1.22,52.55-.35,105.1-.85,157.64-1.24,49.2-.37,98.87-2.97,147.89.33,12.61.85,25.46,2.07,36.61,5.76,6.77,2.24,12.77,5.35,19.88,7.15,9.63,2.43,20.41,2.26,30.83,2.04,18.9-.39,38.01-.8,56.21-3.95,13.61-2.35,26.42-6.19,39.96-8.69,16.49-3.04,33.78-4.05,50.97-4.7,37.97-1.44,76.11-1.24,114.02.59,36.04,1.74,72.3,5.03,105.75,13.39,13.55,3.38,26.69,7.6,41,9.48,17.72,2.32,36.09.89,54.19.39,4.33-.12,8.67-.19,13.01-.2Zm-1104.01,7.76c30.43,2.62,63.12,2.17,94.07,2.15,156.01-.1,312.22-.94,467.93,3.6-110.56-12.99-227.98-13.27-343.14-11.93-70.04.82-151.08-1.36-218.86,6.18Zm1020.5,16.34c-60.02-1.75-121.01-4-180.83-.45-62.89,3.73-125.93,6.45-189.05,8.11-12.35.33-24.83.6-36.95-.87-12.37-1.5-23.95-4.78-36.07-6.9-24.55-4.3-50.62-3.76-76.12-2.76-55.71,2.19-111.2,6.4-166.11,12.59-5.48.62-11.16,1.25-16.56.43-3.63-.55-6.91-1.73-10.32-2.67-14.28-3.94-30.6-3.69-46.27-3.36-37.24.78-73.76,1.01-110.88.38-216.18-3.68-433.01-20.01-647.65-9.83,203.09-2.05,400.17,12.25,603.17,16.97,55.57,1.29,110.88,1,166.47,1.32,6.64.04,14.92.77,16.92,4.64.88,1.71.27,3.79,2.17,5.16,1.5,1.08,4.04,1.31,6.35,1.43,32.59,1.62,64.24-5.96,95.78-11.29,47.7-8.06,98.29-11.07,146.84-5.28,11.9,1.42,23.68,3.36,35.76,4,17.44.93,34.93-.86,52.4-1.66,29.2-1.32,58.5.15,87.75.8,52.41,1.16,104.87-.34,157.11-2.95,47.92-2.39,98.1-9.23,146.09-7.83Zm-1116.93,28.36c-54.85,4.32-109.73,9.16-164.6,11.97-5.97.31-12.58.48-17.27-1.8-11.78-5.71,1.49-16.77,13.95-21.93-123.48-20.54-256.9-18.27-378.42,6.45-5.46,1.11-11.15,2.37-14.92,5.03-6.96,4.91-4.4,12.92,2.76,17.7,7.16,4.78,17.61,7.1,27.68,9.14,24.83,5.04,51.84,12.13,76.89,15.7,27.12,3.87,57.13-8.5,84.99-7.62,18.88.6,36.53,5.71,55.09,7.9,41.98,4.96,84.98-5.26,127.67-3.79,16.14.55,33.08,3.12,44.23,10.27,2.93,1.88,5.52,4.09,9.35,5.21,3.45,1.01,7.44.98,11.27.93,41.78-.51,83.56-1.03,125.35-1.54,10.43-.13,73.08-1.62,46.15-18.17-3.21-1.97-7.61-3.04-11.1-4.82s-6-4.92-3.7-7.32c1.47-1.53,4.39-2.25,7.11-2.85,73-16.08,153.73-18.73,229.06-7.5-1.58,8.94-26.06,12.54-23.83,21.43,1.3,5.2,11.19,7.54,19.57,8.74,77.2,11.03,160.85,8.97,232.84-11.44,6.14-1.74,12.25-3.62,18.85-4.54,5.7-.79,11.59-.85,17.4-1.19,18.21-1.08,35.57-5.03,53.14-8.14,75.19-13.32,156.73-14.24,234.34-11.93,4.63.14,10.35.79,11.64,3.51.74,1.57-.41,3.24-1.72,4.67-3.93,4.31-9.5,8.06-16.15,10.86,14.8,4.51,32.11,4.3,48.64,3.99,36.07-.67,72.13-1.35,108.2-2.02,75.11-1.4,151.47-2.94,222.78-17.49,11.39-2.32,23.39-5.35,29.76-11.58-16.93-4.62-35.97-5.22-54.5-5.73-55.02-1.51-110.06-2.82-165.1-3.93-40.47-.82-80.94.37-121.42.69-34.69.27-67.42,4.28-101.62,4.53-84.28.62-168.59,1.49-252.77,4.32-29.63,1-59.72,2.29-87.59,8.54-15.88,3.56-30.76,8.68-46.77,12-16.02,3.32-34,4.72-49.59.74-2.47-.63-5.23-1.79-4.93-3.41.16-.87,1.19-1.57,2.16-2.2,5.52-3.6,11.03-7.2,16.55-10.8-8.94-4.43-21.36-4.82-32.87-5.01-29.97-.51-60.21-.35-90.13-1.53-21.38-.85-39.73-5.13-61.7-5.02-59.17.3-118.08,4.38-176.71,9.01Zm252.83,75.46c293.82-42.46,602.1-3.51,902.75-20.05-99.32,21.6-206.11,21.48-310.1,19.76-99.27-1.64-208.47-8.95-305.89,5.66-16.61,2.49-32.88,5.87-48.28,10.45,13.74,6.16,29.6,10.53,46.25,12.74-30.44,2.95-60.88,5.9-91.33,8.84-27.05,2.62-56.63,7.93-83.99,6.3-56.61-3.36-113.84,6.39-170.72,5.9-74.45,3.23-149.13,6.47-223.65,3.98-40.8-1.36-83.87-5.04-115.61-20.77,5.03,2.49,42.41-3.03,50.15-3.4,17.89-.85,35.83-1.31,53.77-1.39,31.45-.13,62.14-.22,93.52-1.47,69.44-2.78,135.84-16.84,203.14-26.56Zm345.96-44.8c-1.71.43-3.68,1.11-3.73,2.24-.05,1.38,2.73,2.04,4.95,2.29,41.87,4.62,84.84,3.23,127.33,1.61,17.84-.68,36.24-1.48,52.2-6.42,2.61-.81,5.52-2.22,4.88-3.96-.32-.86-1.45-1.5-2.57-2.06-22.18-11.13-59.33-8.95-86.08-7.75-33.27,1.48-66.16,6.22-96.98,14.06Z"/>
              <polygon class="cls-15" points=".31 301.28 1358.33 301.28 1357.37 310.51 1.22 310.51 .31 301.28"/>
              <polygon class="cls-5" points="280.54 292.59 986.35 290.78 903.42 290.35 289.52 292.46 280.54 292.59"/>
            </g>
          </g>
          <g>
            <polygon class="cls-1" points="-5.55 320.76 302.13 321.12 -12.34 333.28 -5.55 320.76"/>
            <g>
              <polygon class="cls-70" points="-10.48 96.74 347.26 247.49 480.05 280.65 888.83 266.71 338.59 303.74 -10.48 313.96 -10.48 96.74"/>
              <polygon class="cls-16" points="-28.5 247.57 25.18 240.95 56.1 240.95 14.15 251.45 -28.5 247.57"/>
              <polygon class="cls-10" points="-53.69 189.95 175 174.9 196.21 184.11 -31.22 194.72 -53.69 189.95"/>
              <polygon class="cls-7" points="602.27 285.28 350.6 285.68 355.34 291.84 137.06 268.8 -10.48 247.28 -10.48 322.19 456.42 308.25 602.27 285.28"/>
              <polygon class="cls-6" points="-10.48 247.28 24.91 259.86 24.91 321.13 50.4 320.37 62.02 264.37 74.64 264.8 70.29 319.13 75.49 318.42 81.48 264.8 155.63 275.07 162.42 303.54 114.4 318.46 208.59 315.65 173.81 306.35 170.75 275.07 273.02 286.48 272.7 308.34 289.89 308.25 290.23 284.97 -10.48 247.28"/>
              <polygon class="cls-6" points="355.34 291.84 355.34 307.96 401.43 307.96 402.67 285.6 350.6 285.68 355.34 291.84"/>
              <polygon class="cls-6" points="424.15 285.6 421.5 307.96 426.5 307.96 429.62 285.56 424.15 285.6"/>
              <polygon class="cls-11" points="-10.48 234.78 355.34 291.84 350.6 285.68 105.36 204.52 37.62 179.51 242.13 236.18 338.71 243.89 -10.48 96.74 -10.48 234.78"/>
            </g>
            <g>
              <polygon class="cls-9" points="196.21 184.11 210.71 -19.61 233.06 -106.03 267.07 -160.79 263.65 -161.77 235.72 -118.99 245.29 -165.55 238.99 -166.55 202.63 -6.34 192.26 92.59 174.68 176.44 196.21 184.11"/>
              <polygon class="cls-12" points="197.49 166.12 195.33 119.13 199.65 73.38 200.39 14.97 197.63 51.78 196.1 94.15 191.76 148.11 196.21 184.11 197.49 166.12"/>
              <polygon class="cls-12" points="187.41 181.18 185.37 172.21 186.4 152.26 183.45 171.82 181.97 179.04 187.41 181.18"/>
              <polygon class="cls-12" points="207.06 -17.49 208.69 8.89 211.03 -36.81 215.15 -61.53 205.46 -20.12 207.06 -17.49"/>
            </g>
            <g>
              <path class="cls-8" d="m25.18,240.95l13.06-177.4L52.64-14.81l-1.6-42.78h1.6l1.8,27.79,2.2,8.8,11.6-36.59h5.2L61.44-6.42l-2.4,15.19,9.84-14.67,4.56-18.52.8-.4-3,17.29,15.53-15.16,19.43-35.12.47.4-19.03,35.65-15.13,16.53-14.39,26.79-8.4,75.06,8,144s-20.42,2.15-32.52.32Z"/>
              <path class="cls-3" d="m25.18,240.95l5.11-23.97,11.35-39.08,11.02-28.04-.25,13.12-9.76,16.14-.92.38-2.83,16.57-5.36,29.86-.3,10.69,3.98,2.93,6.42-12.66,4.56-25.13-.67-21.47,4.89-11.42.25,4.72-2.91,12.3v36.51l-2.86,19.03s-15.98,1.39-21.71-.48Z"/>
              <polygon class="cls-3" points="29.08 188.01 41.55 169.7 43.64 157.26 44.91 125.13 49.82 98.74 49.71 96.63 43.71 117.6 43.58 121.27 42.66 125.6 38.92 156.64 37.28 164.28 29.78 178.56 29.08 188.01"/>
              <polygon class="cls-3" points="35.13 106.38 45.91 62.16 55.39 27 58.1 21.57 57.35 19.49 59.04 8.78 55.39 20.17 48.04 50.44 42.94 67.25 37.07 79.51 35.13 106.38"/>
              <polygon class="cls-3" points="61.44 -6.42 55.39 6.38 47.08 15.44 48.3 8.81 54.94 3.78 56.43 2.18 61.44 -11.25 64.47 -19.38 61.44 -6.42"/>
              <polygon class="cls-2" points="38.9 90.9 36.37 101.28 37.22 128.59 38.9 138.69 42.66 125.6 43.58 121.27 43.71 117.6 49.71 96.63 49.82 70.09 50.13 46.53 38.9 90.9"/>
              <polygon class="cls-2" points="59.04 8.78 55.39 20.17 48.34 49.19 42.94 67.25 37.15 78.42 38.25 63.56 44.67 28.57 51.47 14.38 59.04 8.78"/>
              <polygon class="cls-2" points="30.29 216.99 26.41 219.61 28.94 189.94 34.15 180.56 41.55 169.7 41.64 177.91 30.29 216.99"/>
            </g>
            <g>
              <polygon class="cls-68" points="1349.88 263.43 1350 307.96 709.01 308.15 588.4 314.15 449.88 307.96 332.79 308.62 850.19 279.27 1349.88 263.43"/>
              <polygon class="cls-69" points="1349.88 237.7 910.87 265.74 747.26 274.88 399.52 301.79 344.54 307.96 804.82 283.77 778.38 301.02 1100.13 278.15 1349.88 263.43 1349.88 237.7"/>
              <polygon class="cls-6" points="781.32 300.48 897.26 295.88 897.26 309.91 918.26 311.07 918.26 293.26 923.51 291.8 922.53 307.96 923.51 307.96 924.95 296.8 1074.49 283.45 1069.31 308 1088.56 307.96 1094.82 283.45 1093.44 308 1097.98 307.96 1104.43 281.21 1156.23 284.99 1152.26 307.96 1156.23 308 1161.64 277.37 1260.93 277.91 1255.71 302.5 1173.63 307.96 1349.88 307.96 1349.88 263.43 986.14 285.71 781.32 300.48"/>
              <polygon class="cls-6" points="776.42 308 778.38 301.02 804.82 283.77 741.67 287.05 349.12 308.25 490.5 303.65 490.54 307.96 496.18 307.96 498 303.12 568.02 300.5 567.64 307.96 594.2 308 597.23 301.96 599.68 301.72 598.67 307.96 601.1 307.97 602.21 301 723.62 294.38 725.51 308.25 776.42 308"/>
              <polygon class="cls-4" points="922.95 310.15 925.6 290.55 1077.03 280.14 1069.31 311.52 922.95 310.15"/>
              <polygon class="cls-4" points="813.26 309.12 817.63 298.23 836.41 296.5 833 309.31 813.26 309.12"/>
              <polygon class="cls-4" points="1154.35 312.32 1161.64 277.37 1211 277.37 1204.09 311.52 1154.35 312.32"/>
              <polygon class="cls-17" points="792.88 299.15 946.76 284.99 1209.02 259.37 1234.91 244.94 644.58 282.02 443.62 299.15 638.88 287.49 863.03 270.46 792.88 299.15"/>
            </g>
            <polygon class="cls-1" points="225 322.19 347.78 323.57 410.46 315.9 577.29 318.21 551.53 321.41 579.46 322.19 810.63 319.29 863.67 316.85 810.48 314.75 1353.44 314.2 1353.44 310.51 719.79 311.46 390.46 311.13 225 322.19"/>
            <path class="cls-14" d="m1353.44,306.21l-1128.44,1.75L-3.13,321.97l228.13.22,126-1.3,59.06-6.47,167.34,3.09-25.87,3.89s214.64-1.19,312.14-4.56l-68.3-2.7,558.07-1.75v-6.19Z"/>
            <path class="cls-45" d="m-57.87,390.88s159.35,42.48,569.67,38.24c410.33-4.24,864.33-38.24,864.33-38.24v102H-57.87v-102Z"/>
            <polygon class="cls-17" points="-69.38 436.13 1111.12 436.13 -82.88 470.62 -69.38 436.13"/>
          </g>
          <g>
            <g>
              <path class="cls-66" d="m534.71,455.03s6.88-33.1,17.86-47.75h3.24s-5.41,15.32-8.2,29.73l10.38-21.71,4.97,1.85s-6.1,22.85-6.63,38.94h4.19l3.85-24.4h1.56s-2.62,13.84-2.97,25.27l-28.26-1.92Z"/>
              <path class="cls-60" d="m565.93,455.03s1.57-12.38,4.8-22.1h1.43s-2.62,11.88-3.11,22.1h-3.11Z"/>
              <path class="cls-43" d="m546.21,455.81s.88-17.52,4.11-27.24h1.43s-2.84,17.17-3.33,27.39l-2.21-.15Z"/>
            </g>
            <path class="cls-39" d="m595.37,454.85l22.13-28.22,1.12,1.43s-7.5,7.44-12.38,18c0,0,6.53-7.75,13.47-13.74l1.39.41s-6.67,12.81-9.28,23.19l-16.44-1.08Z"/>
            <path class="cls-52" d="m506.54,295.12s0-11.43.42-19.86l-2.43.1-1.7,7.34.56-11.76-6.1-.31s-3.15,10.2-3.58,18.79c0,0-.49-15.12-.13-30.16l-5,.72s-8.17,19.41-8.89,32.57l-5.88,1.44s1.34-15.35,2.63-23.04l-5.06.13s-4.8,13.03-6.24,27.04l41.39-3.01Z"/>
            <path class="cls-67" d="m472.75,297.51s1.89-18.51,6.98-36.8l2.72-.46s-4.85,14.97-7.22,37.33l-2.48-.06Z"/>
            <g>
              <path class="cls-48" d="m665.66,316.12s-.85-25.57,2.67-40.66h1.63s-4.9,22.25-2.19,40.66h-2.1Z"/>
              <path class="cls-37" d="m722.75,314.99s2.21-23.81,2.72-33.49l-3.75-.81-4.9,20.08,1.63-13.81-5.86-.55s-3.57,11.57-4.08,21.42c0,0-1.1-12.26-.61-29.53l-9.51.56s-4.62,16.82-5.5,31.91l-6.55,1.37s5.94-20.12,7.42-28.9l-6.7-.7s-8.71,17.89-10.38,33.92l46.08-1.49Z"/>
              <path class="cls-54" d="m673.89,316.12s8.07-31.71,14.87-40.66l2.33,1.62s-3.44,8.18-4.98,13.81l6.7-12.62,1.37-.34s-6.89,21.5-10.15,33.17l9.11-22.94h15.33l-.56,9.5,2.07-9.5s-1.99,21.45-1.51,26.92c0,0,6.32-30.51,10.1-37.33l1.72-.68s-7.05,21.27-8.76,35.7h3.61l6.36-25.81,1.89-.68-1.37,8.18,3.95-12.28,3.27-.34s-6.36,20.8-7.56,34.27h-47.79Z"/>
              <path class="cls-62" d="m682.33,316.12s7.56-20.97,10.83-27.96h1.72s-5.5,14.29-6.27,23.09c0,0,6.27-17.8,9.88-26.5h1.55s-7.22,20.29-8.85,31.37h-8.85Z"/>
              <path class="cls-33" d="m672.38,313.94s1.35-19.93,2.9-31.38l1.48-1.05s-3.29,19.18-2.3,32.44h-2.09Z"/>
              <path class="cls-71" d="m718.45,316.12s7.99-29.25,11.28-37.81h1.4s-6.36,18.03-9.45,37.81h-3.23Z"/>
              <path class="cls-57" d="m654.18,316.45s5.46-18.72,8.64-28.3h1.41s-7.39,18.37-7.88,28.44l-2.17-.15Z"/>
              <path class="cls-74" d="m697.38,316.61s1.55-12.19,4.73-21.78h1.41s-2.58,11.7-3.07,21.78h-3.07Z"/>
            </g>
            <g>
              <path class="cls-73" d="m928.75,310.23s-.69-20.72,2.16-32.96h1.32s-3.97,18.03-1.78,32.96h-1.7Z"/>
              <path class="cls-44" d="m975.02,309.32s1.79-19.3,2.21-27.14l-3.04-.66-3.97,16.27,1.32-11.19-4.75-.45s-2.89,9.38-3.31,17.36c0,0-.89-9.94-.5-23.93l-7.71.46s-3.74,13.63-4.45,25.86l-5.31,1.11s4.81-16.31,6.01-23.42l-5.43-.56s-7.06,14.5-8.41,27.5l37.35-1.21Z"/>
              <path class="cls-51" d="m935.42,310.23s6.54-25.7,12.05-32.96l1.89,1.31s-2.79,6.63-4.04,11.19l5.43-10.23,1.11-.28s-5.58,17.43-8.22,26.89l7.39-18.59h12.43l-.45,7.7,1.68-7.7s-1.61,17.39-1.22,21.82c0,0,5.12-24.73,8.19-30.25l1.39-.55s-5.71,17.24-7.1,28.94h2.92l5.15-20.92,1.53-.55-1.11,6.63,3.2-9.95,2.65-.28s-5.15,16.86-6.13,27.78h-38.73Z"/>
              <path class="cls-47" d="m942.26,310.23s6.13-17,8.78-22.66h1.39s-4.46,11.58-5.08,18.71c0,0,5.08-14.43,8.01-21.48h1.25s-5.85,16.45-7.17,25.43h-7.17Z"/>
              <path class="cls-18" d="m934.19,308.47s1.1-16.15,2.35-25.44l1.2-.85s-2.66,15.54-1.86,26.29h-1.69Z"/>
              <path class="cls-38" d="m971.54,310.23s6.48-23.7,9.14-30.65h1.13s-5.15,14.62-7.66,30.65h-2.62Z"/>
              <path class="cls-40" d="m919.44,310.5s4.43-15.17,7.01-22.93h1.14s-5.99,14.89-6.39,23.05l-1.76-.12Z"/>
              <path class="cls-56" d="m954.46,310.63s1.25-9.88,3.83-17.65h1.14s-2.09,9.48-2.49,17.65h-2.49Z"/>
            </g>
            <path class="cls-58" d="m544.96,294.95s4.05-27.56,8.54-41.04l2.02-.08s-5.53,26.93-6.16,40.95l-4.39.18Z"/>
            <path class="cls-36" d="m473.07,297.08s5.74-29.5,15.4-42.46l2.87-.12s-4.73,13.33-7.13,25.78l9.09-18.99,4.41,1.4s-5.31,19.81-5.7,33.63l3.71-.15,3.3-21.06,1.38-.06s-2.26,11.97-2.52,21.77l-24.81.26Z"/>
            <path class="cls-72" d="m532.38,295.14s2.13-17.01,6.62-30.5l2.02-.08s-3.61,16.39-4.25,30.4l-4.39.18Z"/>
            <path class="cls-35" d="m454.89,298.48s2.13-17.01,6.62-30.5l2.02-.08s-3.61,16.39-4.25,30.4l-4.39.18Z"/>
            <path class="cls-49" d="m505.09,296.22s1.13-24,5.62-37.49l2.02-.08s-3.89,23.64-4.52,37.65l-3.12-.08Z"/>
          </g>
        </g>
      </g>
    </g>
  </g>
</svg>