<?xml version="1.0" encoding="UTF-8"?>
<svg xmlns="http://www.w3.org/2000/svg" xmlns:xlink="http://www.w3.org/1999/xlink" viewBox="0 0 1350 450">
  <defs>
    <style>
      .cls-1 {
        fill: url(#linear-gradient-4);
      }

      .cls-1, .cls-2, .cls-3, .cls-4, .cls-5, .cls-6, .cls-7, .cls-8, .cls-9 {
        fill-rule: evenodd;
      }

      .cls-2 {
        opacity: .7;
      }

      .cls-2, .cls-3, .cls-7 {
        fill: #6f1555;
        mix-blend-mode: multiply;
      }

      .cls-3 {
        opacity: .5;
      }

      .cls-10 {
        isolation: isolate;
      }

      .cls-4 {
        fill: url(#linear-gradient-2);
      }

      .cls-5 {
        fill: url(#linear-gradient);
      }

      .cls-6 {
        fill: url(#linear-gradient-5);
      }

      .cls-11 {
        clip-path: url(#clippath);
      }

      .cls-12 {
        fill: none;
      }

      .cls-7 {
        opacity: .89;
      }

      .cls-8 {
        fill: #8e2c79;
        mix-blend-mode: screen;
        opacity: .19;
      }

      .cls-9 {
        fill: url(#linear-gradient-3);
      }
    </style>
    <clipPath id="clippath">
      <rect class="cls-12" width="1350" height="450"/>
    </clipPath>
    <linearGradient id="linear-gradient" x1="1252.36" y1="34.15" x2="1252.36" y2="421.4" gradientUnits="userSpaceOnUse">
      <stop offset="0" stop-color="#4b0e31"/>
      <stop offset=".53" stop-color="#470d2f"/>
      <stop offset=".93" stop-color="#3e0c2b"/>
      <stop offset="1" stop-color="#3c0c2b"/>
    </linearGradient>
    <linearGradient id="linear-gradient-2" x1="1196.47" y1="265.05" x2="1317.55" y2="261.25" gradientUnits="userSpaceOnUse">
      <stop offset="0" stop-color="#430d2d"/>
      <stop offset=".56" stop-color="#3f0c2b"/>
      <stop offset=".99" stop-color="#360b27"/>
      <stop offset="1" stop-color="#360b27"/>
    </linearGradient>
    <linearGradient id="linear-gradient-3" x1="-2773.4" y1="112.47" x2="-2632.73" y2="108.06" gradientTransform="translate(3951.95)" xlink:href="#linear-gradient-2"/>
    <linearGradient id="linear-gradient-4" x1="-2779.1" y1="335.95" x2="-2647.19" y2="350.9" gradientTransform="translate(3951.95)" xlink:href="#linear-gradient-2"/>
    <linearGradient id="linear-gradient-5" x1="-2740.82" y1="400.52" x2="-2650.21" y2="432.76" gradientTransform="translate(3951.95)" xlink:href="#linear-gradient-2"/>
  </defs>
  <g class="cls-10">
    <g id="Layer_2" data-name="Layer 2">
      <g id="layer1">
        <g class="cls-11">
          <g>
            <path class="cls-5" d="m1292.22,84.64c-1.66,18.35-2.76,37.02-2.76,54.24,0,1.63.02,3.24.03,4.83.7,55.23,7.08,123.71,10.08,155.49.76,8.1,1.32,13.81,1.49,16.32.25,3.34-.11,15.06-.76,30.38-.02.33-.03.65-.03.98-.05.7-.08,1.41-.11,2.12-.05,1.32-.11,2.66-.17,4.03-.43,9.86-.96,20.78-1.5,31.69-1.44,28.75-3.03,57.43-3.53,66.48-.02.22-.03.42-.05.6-.08,1.52-.12,2.34-.12,2.34h-4.01l-9.37-.02h-32.82l-14.43-.02h-25.76l-10.85-.02c.93-.14,1.92-.76,2.97-1.81.19-.19.37-.39.56-.6,3.47-3.9,7.42-12.26,11.46-23.13.28-.71.54-1.44.82-2.18,3.61-9.97,7.28-21.83,10.75-34.22,3.72-13.27,7.18-27.16,10.06-39.98v-.02c1.64-7.28,3.08-14.23,4.29-20.51.56-2.91,1.07-5.67,1.5-8.25,0-.06.02-.11.02-.14.02-.03.02-.05.02-.06,1.16-6.78,1.9-12.4,2.15-16.32.54-9.14.76-31.03.77-56.67v-.02l-.03-21.66c-.03-15.65-.12-31.74-.22-46.53-.03-3.28-.05-6.5-.08-9.63-.22-28.67-.45-50.35-.45-50.35l2.86-33.6,3.33-39.13,1.39-16.3,3.98-46.77,20.62-3.33,3.59-.59,13.05-2.12.15-.03,16.06-2.59s-.19.93-.5,2.68c-1.22,6.61-4.51,24.99-7.88,48.68-.2,1.41-.4,2.85-.6,4.3-.71,5.16-1.42,10.53-2.12,16.07v.08c-.02.17-.06.59-.14,1.18-.02.14-.03.28-.05.42-.74,5.85-1.46,11.89-2.11,18.02-.56,5.16-1.08,10.39-1.56,15.65Z"/>
            <path class="cls-4" d="m1300.31,345.9c-.02.33-.03.65-.03.98-.05.7-.08,1.41-.11,2.12-.05,1.32-.11,2.66-.17,4.03-.26-1.33-.53-2.65-.81-3.98-.14-.68-.28-1.36-.42-2.03-.06-.33-.12-.65-.19-.96-1.5-7.12-3.08-14.18-4.71-21.04,0-.02-.02-.03-.02-.05-.02-.08-.03-.16-.06-.26-.05-.19-.09-.36-.14-.54-.03-.12-.06-.25-.09-.39-2.79-11.78-5.65-22.85-8.22-32.3v-.02c-.43-1.63-.87-3.2-1.28-4.72-1.44-5.25-2.74-9.85-3.86-13.64-.03-.09-.06-.17-.08-.26,0,0,0-.02-.02-.03-.02-.05-.03-.09-.03-.12-.02-.05-.02-.09-.03-.12-.03-.09-.05-.17-.06-.23-.02-.03-.02-.06-.02-.08-.02-.03-.03-.06-.03-.09,0-.02,0-.03-.02-.03,0-.05-.02-.09-.03-.12,0-.02,0-.03-.02-.05v-.06l-.02-.02v-.03s-.02-.02-.02-.02v-.02c-.93-3.22-1.69-5.78-2.2-7.52-.53-1.73-.82-2.68-.82-2.68l-8.83-20.58s-.02,0-.02-.02l-4.2-9.8-21.13-49.22c-.03-3.28-.05-6.5-.08-9.63,4.6,12.12,12.08,30.63,19.8,44.65l.03.05.02.03s.02.06.02.06c.94,1.7,1.89,3.33,2.82,4.86,1.13,1.87,2.25,3.67,3.34,5.4.82,1.3,1.63,2.57,2.42,3.79.39.6.77,1.19,1.15,1.78,2.57,3.92,4.94,7.42,7.06,10.44,2.12,3.03,3.99,5.59,5.53,7.65l.02.02.53.7c1.41,1.87,2.49,3.27,3.22,4.17l.59.74.37.48.02.02s.02.05.03.14c0,.03.02.05.02.08.02.05.03.09.05.15l.03.12s.02.08.03.14c.03.17.08.36.14.59.03.11.05.22.08.34l9.71,40.44c.76,8.1,1.32,13.81,1.49,16.32.25,3.34-.11,15.06-.76,30.38Z"/>
            <path class="cls-9" d="m1296.08,49.29s0,0,0,.01c0,0,0,.01,0,.02,0,.01,0,.03,0,.05-.15,1.34-2,18.54-2.29,19.62h0c-.12.46-5.4,13.81-11.62,30.14-8.82,23.13-19.53,52.24-20.17,59.08-1.09,11.67,6.77,30.23,6.77,32.17,0,.5.26,3.94.64,8.75h0c.77,9.67,2.03,24.91,2.72,33.23.02.21.03.42.05.63h0c.06.77.12,1.46.17,2.08.17,2.01.27,3.2.27,3.2l-7.35-10.83v-35.83s-7.2-23.69-7.2-35.18-9.66-106.34-9.74-107.15h0s1.39-16.31,1.39-16.31l26.59-47.79,1.61-2.9,13.05-2.11s-7.33,9.95-15.12,21.22c0,0,0,0,0,0-8.34,12.05-17.2,25.59-18.22,30.07-.46,2.01-.78,6.51-1.02,12.22,0,0,0,0,0,.03-.2,4.87-.33,10.62-.41,16.47h0c-.24,16.86-.1,34.56-.1,34.56,0,0,0,.02,0,.02,0,0,0,.02,0,.03.01.04.03.11.05.19.01.04.02.08.03.12,0,.02.01.05.02.07,1.07,3.91,8.95,32.61,10.58,32.61.4,0,2.15-4.1,4.6-10.44,8.29-21.36,24.68-68.08,24.68-68.08Z"/>
            <path class="cls-2" d="m1281.42,454.13c.02-.06.08-.6-.17-2.01-.02-.08-.03-.15-.05-.23-.03-.19-.08-.4-.14-.62-.57-2.62-2.04-7.32-5.74-15.36-.03-.06-.06-.11-.08-.17-.08-.14-.14-.29-.22-.43l-2.4-7.12-2.97-6.87-10.06-23.41s-1.77-3.16-4.29-8.3c-.17-.36-.36-.73-.54-1.1,0-.02-.02-.02-.02-.03-.91-1.86-1.89-3.96-2.93-6.22-.06-8.89-.11-19.94-.12-30.47-.02-.09-.02-.19,0-.28-.02-.33-.02-.67,0-.99-.05-15.03.02-28.74.26-33.16.65-11.18-8.9-66.3-9.04-67.13v-.02l-.03-21.66c.06.28,3.53,18.15,6.98,37.59,3.45,19.43,6.89,40.41,6.89,46.93,0,4.83,4.55,18.32,10.31,36,.11.32.22.63.31.96.09.28.19.57.28.85.08.22.14.43.22.65v.02c2.63,8.07,5.47,16.92,8.24,26.2.91,3.1,1.83,6.26,2.73,9.43.37,1.33.74,2.66,1.11,4.01,0,.03.02.05.02.06.02.05.02.08.03.12,5.08,18.66,9.32,38.09,10.48,55.32v.02c.11,1.53.19,3.03.23,4.54.02.2.02.4.02.6.02.09.02.2.02.29.02.68.03,1.35.05,2.03h-9.37v-.02Z"/>
            <path class="cls-2" d="m1281.42,454.13v.02l-7-.02h-25.83l-14.43-.02h-20.96s.45-.71,1.18-1.89c.11-.19.25-.4.37-.62.29-.46.6-.98.94-1.55,2.04-3.33,5.06-8.38,8.18-13.84,5.4-9.55,11.07-20.41,12.15-25.76.76-3.79,2.73-11.19,4.24-19.52.09-.48.17-.98.26-1.47,0-.03.02-.05.02-.08v-.03c.03-.15.06-.31.09-.48v-.02c2.54-14.93,3.34-32.08-6.46-36.69h-.02c-.29-.14,2.63-13.49,4.38-21.99-.05.5-.08.99-.09,1.47-.2,6.41,2.06,12.88,4.12,19.73,2.88,9.58,5.39,19.91.33,31.85.03,2.74.65,5.22,1.58,7.35,2.57,6.08,7.48,9.63,7.48,9.63,0,0,12.4,15.72,20.13,29.45l.02.02s0,.02.02.03c1.08,1.92,2.06,3.81,2.91,5.6l.2.59,5.22,15.39.22.6.08.23.68,2.01Z"/>
            <path class="cls-7" d="m1261.74,454.11l-10.06.02h-3.08l-14.43.02v-.03c.11-1.24,2.74-33.64,3.82-36.4.96-2.49,2.28-23.66,2.55-28.33v-.03c.03-.57.05-.88.05-.88,0,0,.02.14.05.39v.02c.31,3.07,2.35,22.74,2.24,25.95-.12,3.5,18.86,29.57,18.86,39.3Z"/>
            <path class="cls-1" d="m1276.1,377.72c5.32,5.68,12.31-48.58,12.09-62.54-.22-13.96-8.33-43.36-8.33-43.36,0,0,13.14,49.53,14.01,53.16.87,3.64-15.59,59.57-13.91,66.25s5.04,33.71,5.04,33.71l-8.9-47.22Z"/>
            <path class="cls-3" d="m1239.97,323.25s-.02.08-.02.14c-.15.74-.7,3.38-1.41,6.78.23-2.46.68-4.78,1.42-6.92Z"/>
            <path class="cls-8" d="m1242.75,126.12c-1.53,23.39,19.71,91.04,19.71,91.04l-19.57-47.66-.14-43.38Z"/>
            <path class="cls-8" d="m1279.93,94.51s-11.09,18.6-12.94,19.73c-1.85,1.13-6.79-21.13-6.79-21.13l-3.58-49.41s-1.36,47.71-.51,51.06c.85,3.35,10.7,33.05,10.7,33.05l13.13-33.3Z"/>
            <path class="cls-6" d="m1254.74,388.46c13.02,22.26,39.16,63.64,39.16,63.64h-15.25l-9-30.81-14.92-32.84Z"/>
            <path class="cls-2" d="m1292.22,84.64c-1.66,18.35-2.76,37.02-2.76,54.24,0,1.63.02,3.24.03,4.83.7,55.23,7.08,123.71,10.08,155.49.76,8.1,1.32,13.81,1.49,16.32.28,3.85-.23,18.78-1.07,37.5-1.83,41.31-5.2,101.12-5.2,101.12h-13.38l-7-.02.63-14.32v-.02l.17-3.9.02-.15.56-12.57v-.02l.31-6.8-8.24-64.83v-.02s3.08.53,11.19-7.01c.28-.26.57-.53.87-.81,6.94-6.64,5.34-40.1,4.37-53.82v-.05c-.05-.62-.09-1.21-.12-1.73-.05-.5-.08-.94-.11-1.35-.14-1.75-.23-2.76-.23-2.76.03.02.59.19,1.7.19s2.88-.17,5.25-.84c4.15-1.15.14-19.91-.99-24.91-.06-.23-.11-.42-.14-.59-.02-.06-.03-.09-.03-.14l-.03-.12c-.02-.06-.03-.11-.05-.15,0-.03-.02-.05-.02-.08-.02-.09-.03-.14-.03-.14l-.02-.02-.37-.48-3.81-4.91-.53-.7-.02-.02-12.42-16.01-3.81-4.92.08-2.72.79-28.29,1.63,32.08,1.1,1.15,15.11,15.79s.29-3.62,0-9.88c-.29-6.27-4.04-67.89-4.04-67.89l-9.92,20.24c.02-.06.33-1.04.84-2.65,2.46-7.87,9.48-31.06,9.09-39.09-.28-6.08-.62-23.97-.82-36.54-.06-3.31-.11-6.24-.14-8.5-.05-2.83-.08-4.6-.08-4.71l-2.38,4.13-1.46,2.54-7.23,12.6.31-1.04,1.7-5.54.02-.03,3.72-12.19v-.02l4.1-13.39,1.8-5.85.62-7.01-5.4,4.13s10.2-40.89,9.21-50.04c-.98-9.15.06-28.61-4.43-26.12-4.37,2.45-22.56,25.02-23.41,26.09l.02-.06,16.5-25.93c.05-.15,1.78-5.09,1.78-10.03,0-2.2-.34-4.4-1.32-6.18-.5-.88-1.15-1.67-1.98-2.31l3.59-.59,13.05-2.12.15-.03,16.06-2.59s-.19.93-.5,2.68c-1.22,6.61-4.51,24.99-7.88,48.68-.2,1.41-.4,2.85-.6,4.3-.71,5.16-1.42,10.53-2.12,16.07v.08c-.02.17-.06.59-.14,1.18-.45,4.21-1.9,17.51-2.15,18.44-.56,5.16-1.08,10.39-1.56,15.65Z"/>
          </g>
        </g>
      </g>
    </g>
  </g>
</svg>