<?xml version="1.0" encoding="UTF-8"?>
<svg xmlns="http://www.w3.org/2000/svg" xmlns:xlink="http://www.w3.org/1999/xlink" viewBox="0 0 1350 450">
  <defs>
    <style>
      .cls-1 {
        fill: url(#linear-gradient-12);
      }

      .cls-1, .cls-2, .cls-3, .cls-4 {
        mix-blend-mode: multiply;
      }

      .cls-1, .cls-2, .cls-4 {
        opacity: .65;
      }

      .cls-5 {
        fill: url(#linear-gradient-2);
      }

      .cls-6 {
        fill: #48212f;
      }

      .cls-7 {
        fill: url(#linear-gradient-6);
      }

      .cls-8 {
        isolation: isolate;
      }

      .cls-2 {
        fill: url(#linear-gradient-11);
      }

      .cls-9 {
        fill: #813c53;
      }

      .cls-10 {
        fill: url(#linear-gradient-5);
      }

      .cls-11 {
        clip-path: url(#clippath);
      }

      .cls-12 {
        fill: none;
      }

      .cls-3 {
        fill: url(#linear-gradient-9);
        opacity: .5;
      }

      .cls-13 {
        fill: url(#linear-gradient-7);
      }

      .cls-14 {
        fill: url(#linear-gradient-3);
      }

      .cls-15 {
        fill: #6d2f45;
      }

      .cls-16 {
        fill: url(#linear-gradient);
      }

      .cls-4 {
        fill: url(#linear-gradient-10);
      }

      .cls-17 {
        fill: url(#linear-gradient-4);
      }

      .cls-18 {
        fill: url(#linear-gradient-8);
      }
    </style>
    <clipPath id="clippath">
      <rect class="cls-12" width="1350" height="450"/>
    </clipPath>
    <linearGradient id="linear-gradient" x1="341.76" y1="462.79" x2="327.96" y2="164.69" gradientUnits="userSpaceOnUse">
      <stop offset="0" stop-color="#3e1c29"/>
      <stop offset="1" stop-color="#562836"/>
    </linearGradient>
    <linearGradient id="linear-gradient-2" x1="447.5" y1="457.9" x2="433.7" y2="159.8" xlink:href="#linear-gradient"/>
    <linearGradient id="linear-gradient-3" x1="311.24" y1="464.21" x2="297.44" y2="166.1" xlink:href="#linear-gradient"/>
    <linearGradient id="linear-gradient-4" x1="375" y1="461.25" x2="361.2" y2="163.15" xlink:href="#linear-gradient"/>
    <linearGradient id="linear-gradient-5" x1="358.66" y1="462.01" x2="344.86" y2="163.91" xlink:href="#linear-gradient"/>
    <linearGradient id="linear-gradient-6" x1="203.19" y1="469.21" x2="189.39" y2="171.11" xlink:href="#linear-gradient"/>
    <linearGradient id="linear-gradient-7" x1="213.02" y1="468.75" x2="199.22" y2="170.65" xlink:href="#linear-gradient"/>
    <linearGradient id="linear-gradient-8" x1="278.88" y1="465.7" x2="265.08" y2="167.6" xlink:href="#linear-gradient"/>
    <linearGradient id="linear-gradient-9" x1="278.5" y1="218.77" x2="213.49" y2="370.48" gradientUnits="userSpaceOnUse">
      <stop offset="0" stop-color="#dfb4c2"/>
      <stop offset=".19" stop-color="#d4a6b5"/>
      <stop offset=".53" stop-color="#b88394"/>
      <stop offset=".99" stop-color="#8c4c5f"/>
    </linearGradient>
    <linearGradient id="linear-gradient-10" x1="313.33" y1="233.7" x2="248.31" y2="385.4" gradientUnits="userSpaceOnUse">
      <stop offset="0" stop-color="#dfb4c2"/>
      <stop offset="1" stop-color="#4c2330"/>
    </linearGradient>
    <linearGradient id="linear-gradient-11" x1="365.05" y1="255.87" x2="300.03" y2="407.57" xlink:href="#linear-gradient-10"/>
    <linearGradient id="linear-gradient-12" x1="430.7" y1="284" x2="365.69" y2="435.7" xlink:href="#linear-gradient-10"/>
  </defs>
  <g class="cls-8">
    <g id="Layer_2" data-name="Layer 2">
      <g id="layer1">
        <g class="cls-11">
          <g>
            <g>
              <path class="cls-9" d="m269.68,286.43c-.28-.28-11.49-18.82-17.13-17.65-5.64,1.17,17.13,17.65,17.13,17.65Z"/>
              <path class="cls-9" d="m268.92,283.48c-.13-.2-2.71-13.73-7.5-12.63-4.79,1.1,7.5,12.63,7.5,12.63Z"/>
              <path class="cls-9" d="m265.81,283.7c-.25-.14-10.89-12.48-15.31-9.23-4.42,3.25,15.31,9.23,15.31,9.23Z"/>
              <path class="cls-9" d="m271.07,287.5c-.27-.08-13.41-6.89-16.64-5.08-3.23,1.81,16.64,5.08,16.64,5.08Z"/>
              <path class="cls-6" d="m309.37,346.87c-12.6-34.56-37.72-58.48-37.72-58.48l-7.35-11.86,2.26,6.22-10.32-2.76s16.96,8.24,31.16,28.64c14.2,20.4,20.37,41.28,20.37,41.28l1.6-3.05Z"/>
            </g>
            <g>
              <path class="cls-15" d="m310.61,261.68c-.26-.75-8.23-45.64-15.74-47.02-7.51-1.39,15.74,47.02,15.74,47.02Z"/>
              <path class="cls-15" d="m310.63,255.22c-.09-.49,1.14-29.52-5.27-30.48-6.41-.96,5.27,30.48,5.27,30.48Z"/>
              <path class="cls-9" d="m306.64,253.59c-.27-.45-9.59-32.43-16.24-28.81-6.65,3.62,16.24,28.81,16.24,28.81Z"/>
              <path class="cls-9" d="m312.01,264.76c-.31-.34-14.62-22.82-19.3-21.32-4.68,1.5,19.3,21.32,19.3,21.32Z"/>
              <path class="cls-6" d="m340.58,410.07c-4.4-78.13-28.14-143.13-28.14-143.13l-5.33-28.83.79,14.07-12.1-12.43s18.65,27.91,29.79,78.53c11.13,50.62,11.97,96.88,11.97,96.88l3.03-5.08Z"/>
            </g>
            <path class="cls-16" d="m352.98,384.14c2.43-85.75-36.34-126.5-36.34-126.5l36.34,126.5Z"/>
            <path class="cls-5" d="m460.79,377.9c-22.04,21.99-30.54,74.39-30.54,74.39,0,0,3.39-47.97,8.3-57.59,4.91-9.62,22.24-16.8,22.24-16.8Z"/>
            <path class="cls-14" d="m347.66,379.39c-25.71-106.81-87.13-138.98-87.13-138.98l87.13,138.98Z"/>
            <path class="cls-17" d="m368.82,390.81c-7.15-29.75,4.4-62.65,4.4-62.65l-4.4,62.65Z"/>
            <path class="cls-10" d="m358.27,389.67c-13.66-64.42-9.68-130.64-9.68-130.64l9.68,130.64Z"/>
            <path class="cls-7" d="m210.6,430.66l-21.06-57.75s19.82,26.87,21.06,57.75Z"/>
            <path class="cls-13" d="m213.35,427.05l-.66-7.08-11.49-123.27s10.91,46.94,12.33,102.07c.24,9.25.22,18.74-.17,28.27Z"/>
            <path class="cls-18" d="m427.69,457.68l-24.24-.29-28.39-.33-50.63-.6-4.77-.05-16.59-.2-173.91-2.05s3.14-42.41,28.08-59.96c1.64-1.15,3.3-1.94,4.99-2.42,19.18,18.07,32.63,44.9,33.31,46.26l-15.85-41.6c18.08,13.1,33.85,46.41,33.85,46.41,0,0-.88-9.23-.84-22.88.02-6.29.24-13.51.83-21.2,1.35-17.45,4.64-37.29,11.93-53.99,6.39-14.64,15.86-26.86,29.82-32.94,14.31,15.4,26.57,36.66,35.23,53.98l-25.5-57.05c2.77-.56,5.68-.92,8.74-1.04,2.55-.1,5.05-.08,7.51.09l20.73,45.75,13.34,29.44c-.1-1.06-3.56-35.27-19.05-72.56,3.67,1.06,7.22,2.39,10.65,3.98.36.17.72.33,1.08.5h0c8.78,4.2,16.79,9.95,24.04,16.58,0,0,0,0,0,0,2.83,2.6,5.54,5.32,8.13,8.15h0c4.29,4.67,8.27,9.6,11.92,14.6.1.13.19.26.29.4.18.25.35.49.54.74.01.02.03.04.04.07,1.05,1.46,2.07,2.91,3.06,4.38,4.02,5.92,7.59,11.86,10.71,17.51,0,0,0,0,0,0,.92,1.65,1.8,3.29,2.65,4.89h0c8.76,16.69,13.36,29.9,13.81,31.18-.62-2.22-10.55-39.14,2.6-53.87,1.23-1.39,2.68-2.58,4.36-3.53,3.44-1.95,6.8-.22,10.01,3.97-1.41,42.04,4.64,87.19,4.76,82.4.1-3.87,2.92-36.31,5.14-61.4,10.41,30.34,17.59,76.66,17.59,76.66Z"/>
            <path class="cls-3" d="m210.6,430.66l-21.06-57.75s19.82,26.87,21.06,57.75Z"/>
            <path class="cls-4" d="m303.07,456.22l-113.56-1.34c-1.61-11.27-6.89-35.91-23.54-59.39,17.17,17.82,28.92,41.28,29.56,42.55l-15.85-41.6c18.08,13.1,33.85,46.41,33.85,46.41,0,0-.88-9.23-.84-22.88l-11.49-123.24c.33,1.44,10.93,47.77,12.32,102.04,1.35-17.45,4.64-37.29,11.93-53.99-2.07,31.92,54.31,98.75,54.31,98.75l-25.46-67.5,40.33,71.25-3.62-17.78,12.06,26.72Z"/>
            <path class="cls-2" d="m324.44,456.47l-4.77-.05-17.67-102.83,13.34,29.44c-.1-1.06-3.56-35.27-19.05-72.56,3.67,1.06,7.22,2.39,10.65,3.98.36.17.72.33,1.08.5h0c1.59,2.58,3.04,5.33,4.38,8.21,18.15,39.05,14.88,103.13,12.03,133.31Z"/>
            <g>
              <path class="cls-9" d="m401.31,339.32c-.11-.64,1.41-34.86-6.17-39.71-7.58-4.85,6.17,39.71,6.17,39.71Z"/>
              <path class="cls-15" d="m402.75,335c.01-.37,7.7-19.17,1.18-23.16-6.52-3.99-1.18,23.16-1.18,23.16Z"/>
              <path class="cls-9" d="m398.92,331.82c-.18-.44-2.93-26.73-10.7-27.78-7.78-1.05,10.7,27.78,10.7,27.78Z"/>
              <path class="cls-9" d="m402.1,342.11c-.25-.39-10.33-22.92-15.57-24.36-5.24-1.44,15.57,24.36,15.57,24.36Z"/>
              <path class="cls-6" d="m400.08,454.34c12.59-54.62,1.99-110.55,1.99-110.55l.76-22.09-2.27,9.83-9.97-14.65s13.43,28.44,13.97,68.15c.54,39.71-8.78,71.13-8.78,71.13l4.3-1.82Z"/>
            </g>
            <path class="cls-1" d="m375.07,457.07c.24-8.01,1.17-67.12-22.07-101.58,1.05,1.46,2.07,2.91,3.06,4.38,4.02,5.92,7.59,11.86,10.71,17.51,0,0,0,0,0,0,.92,1.65,1.8,3.29,2.65,4.89h0c8.76,16.69,13.36,29.9,13.81,31.18-.62-2.22-10.55-39.14,2.6-53.87.05.03.08.05.08.05-11.85,20.75,13.97,88.59,17.55,97.76l-28.39-.33Z"/>
          </g>
        </g>
      </g>
    </g>
  </g>
</svg>