<?xml version="1.0" encoding="UTF-8"?>
<svg id="Layer_2" data-name="Layer 2" xmlns="http://www.w3.org/2000/svg" xmlns:xlink="http://www.w3.org/1999/xlink" viewBox="0 0 750 500">
  <defs>
    <style>
      .cls-1 {
        fill: #281f32;
      }

      .cls-2 {
        clip-path: url(#clippath);
      }

      .cls-3 {
        fill: none;
      }
    </style>
    <clipPath id="clippath">
      <rect class="cls-3" width="750" height="500"/>
    </clipPath>
  </defs>
  <g id="OBJECTS">
    <g class="cls-2">
      <g>
        <path class="cls-1" d="m281.06,191.64s1.66,4.54,10.69,6.57l5.1,2.85,3.18-.41-2.52-2.43s5.47-2.63,8.38-5.71l5.27-1.88s-8.77,1.29-13.21,4.92l-3.12,1.61-8.42-2.07s-3.8-1.93-5.33-3.43Z"/>
        <path class="cls-1" d="m14.95,80.85s1.38,3.78,8.89,5.46l4.24,2.37,2.64-.34-2.1-2.02s4.55-2.18,6.97-4.75l4.38-1.57s-7.29,1.07-10.99,4.1l-2.6,1.34-7-1.73s-3.16-1.61-4.43-2.86Z"/>
        <path class="cls-1" d="m191.71,175.34s2.11,7.09,15.72,11.02l7.52,4.83,4.89-.34-3.63-3.95s8.6-3.5,13.32-7.95l8.22-2.39s-13.51,1.15-20.63,6.29l-4.92,2.16-12.67-3.95s-5.62-3.3-7.82-5.74Z"/>
        <path class="cls-1" d="m228.31,142.74s1.3,4.35,9.65,6.74l4.61,2.95,3-.21-2.23-2.42s5.27-2.16,8.16-4.89l5.04-1.47s-8.28.72-12.64,3.88l-3.01,1.33-7.77-2.41s-3.45-2.02-4.8-3.51Z"/>
        <path class="cls-1" d="m142.86,190.39s.73,2.45,5.43,3.79l2.6,1.66,1.69-.12-1.25-1.36s2.96-1.21,4.59-2.75l2.84-.83s-4.66.41-7.12,2.19l-1.7.75-4.37-1.35s-1.94-1.14-2.7-1.97Z"/>
        <path class="cls-1" d="m343.92,172.61s.73,2.45,5.43,3.79l2.6,1.66,1.69-.12-1.25-1.36s2.96-1.21,4.59-2.75l2.84-.83s-4.66.41-7.12,2.19l-1.7.75-4.37-1.35s-1.94-1.14-2.7-1.97Z"/>
        <polygon class="cls-1" points="196.91 153.29 193.78 153.81 183.67 154.57 187.85 155.7 184.83 156.84 178.44 155.15 171.23 154.57 165.88 155.15 170.99 154.11 177.99 154.33 180.06 153.58 187.02 153.81 196.91 153.29"/>
        <polygon class="cls-1" points="385.48 236.77 381.46 237.44 368.52 238.41 373.87 239.87 370.01 241.32 361.82 239.15 352.6 238.41 345.76 239.15 352.3 237.83 361.26 238.11 363.91 237.15 372.82 237.44 385.48 236.77"/>
        <polygon class="cls-1" points="311.15 120.09 308.79 120.48 301.19 121.05 304.34 121.9 302.07 122.76 297.26 121.48 291.85 121.05 287.83 121.48 291.67 120.7 296.93 120.87 298.49 120.31 303.72 120.48 311.15 120.09"/>
        <polygon class="cls-1" points="222.99 114.65 221.32 114.93 215.94 115.33 218.17 115.94 216.56 116.54 213.16 115.64 209.32 115.33 206.48 115.64 209.2 115.09 212.92 115.21 214.02 114.81 217.73 114.93 222.99 114.65"/>
        <polygon class="cls-1" points="307.14 167.17 303.13 167.84 290.18 168.8 295.54 170.26 291.67 171.72 283.49 169.55 274.26 168.8 267.42 169.55 273.96 168.22 282.92 168.5 285.57 167.54 294.48 167.84 307.14 167.17"/>
        <polygon class="cls-1" points="102.35 104.17 98.33 104.84 85.39 105.81 90.74 107.26 86.88 108.72 78.69 106.55 69.47 105.81 62.63 106.55 69.17 105.22 78.13 105.51 80.78 104.55 89.69 104.84 102.35 104.17"/>
        <polygon class="cls-1" points="110.02 136.2 120.87 138.44 131.89 143.52 133.61 145.54 135.99 145.27 136.32 142.92 143.69 136.49 153.52 135.06 142.82 135.19 135.03 139.61 131.17 139.89 121.74 137.22 110.02 136.2"/>
      </g>
    </g>
  </g>
</svg>