<?xml version="1.0" encoding="UTF-8"?>
<svg xmlns="http://www.w3.org/2000/svg" xmlns:xlink="http://www.w3.org/1999/xlink" viewBox="0 0 1000 400">
  <defs>
    <style>
      .cls-1 {
        opacity: .5;
      }

      .cls-1, .cls-2, .cls-3 {
        fill-rule: evenodd;
      }

      .cls-1, .cls-3 {
        fill: #fff;
        mix-blend-mode: soft-light;
      }

      .cls-4 {
        isolation: isolate;
      }

      .cls-5 {
        clip-path: url(#clippath);
      }

      .cls-6 {
        fill: none;
      }

      .cls-2 {
        fill: url(#_Áåçûìÿííûé_ãðàäèåíò_32);
      }
    </style>
    <clipPath id="clippath">
      <rect class="cls-6" width="1000" height="400"/>
    </clipPath>
    <linearGradient id="_Áåçûìÿííûé_ãðàäèåíò_32" data-name="Áåçûìÿííûé ãðàäèåíò 32" x1="440.97" y1="382.41" x2="440.97" y2="145.2" gradientTransform="translate(990) rotate(-180) scale(1 -1)" gradientUnits="userSpaceOnUse">
      <stop offset="0" stop-color="#005489"/>
      <stop offset=".11" stop-color="#01437a"/>
      <stop offset=".33" stop-color="#042760"/>
      <stop offset=".55" stop-color="#07134e"/>
      <stop offset=".78" stop-color="#080743"/>
      <stop offset="1" stop-color="#090440"/>
    </linearGradient>
  </defs>
  <g class="cls-4">
    <g id="Layer_2" data-name="Layer 2">
      <g id="layer1">
        <g class="cls-5">
          <g>
            <polygon class="cls-2" points="95.73 290.83 145.37 272.57 149.44 272.53 289.99 194.17 330.19 226.51 334 227.84 384.2 261.82 388.02 263.15 403.67 271.17 428.48 276.89 360.88 258.29 363.05 258 396.38 237.19 403.64 233.95 439.52 260.69 441.87 260.46 448.3 269.18 457.32 275.12 515.42 200.55 518.19 200.55 554.21 147.14 557.66 145.2 579.91 174.6 581.59 175.03 665.72 272.58 668.55 273.08 734.63 245.78 739.21 245.4 820.13 304.95 871.67 261.62 874.72 261.82 950.3 205.7 1002.33 232.8 1002.33 382.41 95.73 382.19 95.73 290.83"/>
            <polygon class="cls-3" points="557.66 145.2 583.08 188.52 561.7 156.27 555.98 157.99 580.98 205.7 564.95 178.6 551.21 198.07 554.07 225.93 551.21 227.08 544.91 214.48 541.59 216.01 552.6 254.71 498.67 299.42 460.69 271.1 515.42 200.55 534.41 242.92 518.19 200.55 554.21 147.14 557.66 145.2"/>
            <polygon class="cls-3" points="632.71 259.69 583.08 188.52 609.04 227.46 607.9 228.99 621.64 253.46 632.71 259.69"/>
            <polygon class="cls-3" points="289.99 194.17 313.2 224.11 289.99 199.59 286.86 200.55 301.56 217.92 290.3 209.14 274.65 220.21 293.92 255.2 282.28 238.15 279.99 238.34 288.97 250.76 262.82 272.49 232.66 233.95 229.33 236.24 246.67 259.69 191.59 249.03 289.99 194.17"/>
            <polygon class="cls-3" points="739.21 245.4 750.79 256.85 742.01 251.13 739.21 250.36 754.86 275.94 739.21 280.14 716.56 257.49 714.48 257.74 717.96 261.62 712.1 256.22 707.98 256.79 721.65 275.68 699.25 276.7 688.82 264.49 734.63 245.78 739.21 245.4"/>
            <polygon class="cls-1" points="515.42 200.55 542.89 262.76 515.42 285.53 501.39 226.7 510.33 289.74 505.87 293.45 491.28 231.47 515.42 200.55"/>
            <polygon class="cls-3" points="554.21 147.14 555.98 157.99 580.98 205.7 564.95 178.6 551.21 198.07 542.89 174.02 554.07 225.93 551.21 227.08 544.91 214.48 533.85 177.33 554.21 147.14"/>
            <polygon class="cls-1" points="268.58 206.1 293.92 255.2 282.28 238.15 268.58 219.54 279.99 238.34 288.97 250.76 276.11 261.44 254.03 221.54 272.98 264.04 267.94 268.23 245.37 219.04 268.58 206.1"/>
            <polygon class="cls-3" points="840.32 287.98 871.67 261.62 915.76 308.35 874.72 261.82 950.3 205.7 969.64 218.43 964.81 233.69 945.93 223.11 944.03 223.08 975.5 249.98 939.61 273.39 911.68 245.4 908.86 245.4 948.58 294.2 916.71 259.69 899.85 255.2 970.15 332.99 904.89 344.12 855.51 296.63 883.88 328.59 840.32 287.98"/>
            <polygon class="cls-3" points="871.67 261.62 915.76 308.35 938.18 336.52 927.38 337.85 871.67 272.48 868.23 274.91 910.22 323.02 889.2 329.04 846.42 282.85 871.67 261.62"/>
            <polygon class="cls-3" points="950.3 205.7 969.64 218.43 967.07 226.56 948.01 210.28 947.12 211.55 965.35 231.97 964.81 233.69 935.98 216.34 950.3 205.7"/>
            <polygon class="cls-3" points="933.51 218.3 965.77 256.33 949.64 266.85 921.29 233.69 919 233.69 944.14 270.44 939.61 273.39 905.96 238.62 933.51 218.3"/>
          </g>
        </g>
      </g>
    </g>
  </g>
</svg>