<?xml version="1.0" encoding="UTF-8"?>
<svg xmlns="http://www.w3.org/2000/svg" xmlns:xlink="http://www.w3.org/1999/xlink" viewBox="0 0 1000 400">
  <defs>
    <style>
      .cls-1, .cls-2, .cls-3, .cls-4, .cls-5, .cls-6 {
        fill-rule: evenodd;
      }

      .cls-1, .cls-7 {
        fill: #0a001a;
      }

      .cls-2 {
        fill: #00061a;
      }

      .cls-8 {
        fill: url(#_Áåçûìÿííûé_ãðàäèåíò_42);
      }

      .cls-8, .cls-9 {
        mix-blend-mode: screen;
      }

      .cls-8, .cls-9, .cls-5 {
        opacity: .2;
      }

      .cls-10 {
        fill: url(#_Áåçûìÿííûé_ãðàäèåíò_18);
      }

      .cls-11 {
        isolation: isolate;
      }

      .cls-12 {
        fill: url(#linear-gradient-3);
      }

      .cls-12, .cls-13, .cls-14, .cls-6 {
        mix-blend-mode: soft-light;
      }

      .cls-15 {
        opacity: .4;
      }

      .cls-15, .cls-16, .cls-17 {
        fill: #773488;
        mix-blend-mode: multiply;
      }

      .cls-3 {
        fill: #7aa9f7;
      }

      .cls-9 {
        fill: url(#_Áåçûìÿííûé_ãðàäèåíò_42-2);
      }

      .cls-4 {
        fill: #4f8df4;
      }

      .cls-13 {
        fill: url(#linear-gradient);
      }

      .cls-18 {
        clip-path: url(#clippath);
      }

      .cls-14 {
        fill: url(#linear-gradient-2);
      }

      .cls-19 {
        fill: none;
      }

      .cls-5 {
        fill: #223995;
      }

      .cls-16 {
        opacity: .6;
      }

      .cls-6 {
        fill: #fff;
      }

      .cls-20 {
        fill: #160038;
      }

      .cls-17 {
        opacity: .3;
      }
    </style>
    <clipPath id="clippath">
      <rect class="cls-19" width="1000" height="400"/>
    </clipPath>
    <radialGradient id="_Áåçûìÿííûé_ãðàäèåíò_18" data-name="Áåçûìÿííûé ãðàäèåíò 18" cx="499.89" cy="360.89" fx="499.89" fy="69.23" r="485.91" gradientUnits="userSpaceOnUse">
      <stop offset="0" stop-color="#00819d"/>
      <stop offset=".26" stop-color="#004e71"/>
      <stop offset=".53" stop-color="#001e49"/>
      <stop offset=".67" stop-color="#00122f"/>
      <stop offset=".85" stop-color="#000412"/>
      <stop offset=".96" stop-color="#000008"/>
    </radialGradient>
    <linearGradient id="linear-gradient" x1="515.86" y1="448.66" x2="487.42" y2="316.81" gradientUnits="userSpaceOnUse">
      <stop offset="0" stop-color="#b3ecff"/>
      <stop offset=".37" stop-color="#b7ecff"/>
      <stop offset=".79" stop-color="#c4eeff"/>
      <stop offset="1" stop-color="#cff0ff"/>
    </linearGradient>
    <linearGradient id="linear-gradient-2" x1="369.22" y1="205.67" x2="334.27" y2="446" xlink:href="#linear-gradient"/>
    <linearGradient id="linear-gradient-3" x1="503.98" y1="286.74" x2="503.98" y2="416.84" xlink:href="#linear-gradient"/>
    <linearGradient id="_Áåçûìÿííûé_ãðàäèåíò_42" data-name="Áåçûìÿííûé ãðàäèåíò 42" x1="90.78" y1="389.19" x2="277.28" y2="389.19" gradientUnits="userSpaceOnUse">
      <stop offset="0" stop-color="#00439d"/>
      <stop offset=".36" stop-color="#00285f"/>
      <stop offset=".8" stop-color="#000b1b"/>
      <stop offset="1" stop-color="#000"/>
    </linearGradient>
    <linearGradient id="_Áåçûìÿííûé_ãðàäèåíò_42-2" data-name="Áåçûìÿííûé ãðàäèåíò 42" x1="14.93" y1="388.68" x2="155.4" y2="388.68" xlink:href="#_Áåçûìÿííûé_ãðàäèåíò_42"/>
  </defs>
  <g class="cls-11">
    <g id="Layer_2" data-name="Layer 2">
      <g id="layer1">
        <g class="cls-18">
          <g>
            <polygon class="cls-2" points="901.6 226.57 761.98 293.75 756.89 293.75 640.21 266.66 636.14 266.66 587.02 239.99 528.37 269.32 525.82 269.58 495.25 288.26 493.18 287.58 427.57 220.34 425.56 220.57 376.57 166.71 371.6 166.71 330.89 221.59 326.69 225.02 296.3 266.7 229.33 257.24 227.5 255.2 95.12 217.91 91.55 219.19 55.5 268.33 22.37 281.03 -5 246.93 -5 354.16 1002.33 371.62 1002.33 297.76 915.76 245.4 911.68 242.97 901.6 226.57"/>
            <polygon class="cls-6" points="427.57 220.34 432.43 226.67 453.04 271.1 428.61 250.49 421.9 247.56 420.85 250.36 424.03 260.03 418.94 250.36 425.56 220.57 427.57 220.34"/>
            <path class="cls-6" d="m459.29,295.1l-31.29-46.08-2.11-6.48,20.8,23.46,46.63,21.82-65.83-67.5-12.79,6.98,9.63-7.48-47.67-53.12h-4.97l-12.53,16.62,10.06-11.78,3.5-1.22,4.32,6.87-9.38,28.92,3.94-14.98-9.26,27.76,7.64-11.06,7.06,53.29-25.4,38.12,107.65-4.15Zm-86.42-14.07h-3.21l4.58-3.57,1.84-.77-3.21,4.33Zm37.37-5.22l2.3-1.02-2.3,17.56h-6.49l6.49-16.54Zm-38.15-70.33l6.98-29.1,2.16-1.35-2.42,28.24-6.72,2.22Zm6.22,57.86l6.36-1.9-12.46,16.16-4.71,2.54,10.82-16.79Z"/>
            <polygon class="cls-6" points="388.21 223.11 392.22 226.17 409.59 264.87 389.93 228.27 388.21 223.11"/>
            <polygon class="cls-6" points="486.13 302.69 453.04 271.1 475.05 295.6 469.58 293.69 474.09 302.23 486.13 302.69"/>
            <path class="cls-6" d="m528.36,269.33l16.35,35.63,47.83,1.83-18.36-22.96,23.92-12.72,4.96,6.74-8.65-9.98,5.73.13,18.83,12.14-35.31-31.54,3.36-8.6-58.66,29.33Zm59.58-12.59l4.48,1.53,6.17,7.31h-3.3l-7.35-8.84Zm-14.28,32.63l.9-1.71,2.67,3.43-1.78.76-1.78-2.48Zm-10.91-20.94l3.98,2.27,9.38,10.59h-2.45l-10.91-12.86Z"/>
            <polygon class="cls-6" points="525.82 269.58 541.59 304.83 503.94 302.69 495.25 288.26 508.54 280.14 518.42 299.25 512.12 277.95 525.82 269.58"/>
            <polygon class="cls-6" points="636.14 266.66 704.82 311.11 714.48 311.48 640.21 266.66 636.14 266.66"/>
            <path class="cls-6" d="m761.98,293.75l19.26,20.3,31.24,1.21-22.12-27.61,5.24-.75,30.95,28.89,67.64,2.61-37.03-67.64,13.37-4.98,48.78,63.99,8.08.58-41.21-59.59,3.06-1.73,18.69,13.74-6.32-36.21-139.62,67.19Zm40.36-14.72l2.3-1.51,10.14,10.12,7.44,17.26-19.89-25.87Z"/>
            <polygon class="cls-6" points="229.33 257.24 252.32 280.14 237.24 261.62 240.82 262.2 270.45 286.9 296.3 266.7 229.33 257.24"/>
            <polygon class="cls-6" points="146.1 232.27 180.74 269.58 146.1 242.55 115.08 233.95 165.98 290.7 132.37 289.08 108.47 249.03 127.8 288.9 118.41 288.54 82.64 237.17 79.45 239.29 104.38 287.65 55.5 268.33 91.55 219.19 95.12 217.91 146.1 232.27"/>
            <polygon class="cls-6" points="208.03 291.99 180.74 269.58 201.93 291.76 208.03 291.99"/>
            <polygon class="cls-6" points="175.78 249.03 180.74 250.76 197.92 272.07 175.78 249.03"/>
            <polygon class="cls-4" points="855.51 317.04 849.53 311.48 833.37 313.35 831.79 315.57 829.99 315.38 826.81 313.41 818.99 314.81 813.7 315.3 805.18 314.26 803.85 312.78 800.98 312.08 794.68 314.26 792.84 313.6 785.7 314.22 855.51 317.04"/>
            <polygon class="cls-4" points="673.37 309.9 667.25 306.79 657.52 306.79 626.79 308.35 673.37 309.9"/>
            <polygon class="cls-6" points="326.68 225.02 333.55 227.31 348.37 273.9 332.54 241.07 330.76 241.33 354.82 294.6 345.39 294.6 326.68 225.02"/>
            <polygon class="cls-6" points="428.61 250.49 452.17 270.37 438.51 246.89 427.21 225.02 432.43 226.67 427.57 220.34 425.56 220.57 420.28 246.36 421.9 247.56 428.61 250.49"/>
            <polygon class="cls-6" points="320.26 249.03 338.9 294.2 324.53 293.84 313.2 264.87 311.16 264.36 322.86 293.8 305.95 293.38 304.92 271.62 320.26 249.03"/>
            <polygon class="cls-6" points="598.1 271.11 587.95 256.73 592.43 258.26 600.14 268 606.05 268.36 608.49 268.99 583.66 248.59 587.02 239.99 558.89 254 566.73 270.69 556.59 255.21 549.33 258.84 577.23 300.19 587.95 300.46 574.18 283.83 591.33 274.71 576.11 256.73 592.46 274.11 598.1 271.11"/>
            <polygon class="cls-6" points="550.9 267.81 528.36 269.33 541.59 299.25 560.3 299.77 547.96 268.69 548.34 272.24 563.99 299.77 570.61 299.77 550.9 267.81"/>
            <polygon class="cls-6" points="804.82 273.14 804.65 277.53 814.79 287.65 822.87 306.16 831.79 306.58 818.22 270.98 834.54 306.58 841.89 306.58 822.23 268.56 867.48 307.48 879.37 307.48 822.23 264.76 804.82 273.14"/>
            <polygon class="cls-6" points="787.97 281.28 790.36 287.65 804.96 305.81 781.87 305.33 775.85 288.9 780.86 305.31 772.75 305.1 761.98 293.75 787.97 281.28"/>
            <polygon class="cls-6" points="165.98 290.7 102.36 219.95 95.12 217.91 91.55 219.19 80.69 233.98 118.41 288.54 121.96 288.9 94.85 237.77 106.69 251.13 124.25 288.77 127.8 288.9 110 249.03 132.37 289.08 157.58 290.7 112.16 233.33 162.42 289.77 165.98 290.7"/>
            <polygon class="cls-4" points="1002.33 312.11 -5 283.79 -5 382.19 1002.33 382.19 1002.33 312.11"/>
            <polygon class="cls-3" points="901.89 308.35 -5 283.79 901.89 318.7 901.89 308.35"/>
            <polygon class="cls-5" points="431.41 296.53 409.59 264.87 435.42 296.63 431.41 296.53"/>
            <polygon class="cls-5" points="618.96 280.13 639.27 301.75 636.14 301.67 618.96 280.13"/>
            <polygon class="cls-6" points="636.14 272.48 631.37 283.19 639.54 298.08 634.42 285.28 640.15 293.88 637.76 274.41 636.14 272.48"/>
            <polygon class="cls-6" points="404.94 268.23 397.56 283.57 404.94 280.13 404.94 268.23"/>
            <polygon class="cls-6" points="191.59 259.16 210.01 283.47 250.44 290.43 212.43 282.72 250.44 287.87 247.23 281.11 191.59 259.16"/>
            <polygon class="cls-6" points="925.8 294.2 961.67 294.2 999.28 312.1 978.33 311.72 945.93 296.62 942.48 296.36 959.08 310.73 936.79 309.46 925.8 294.2"/>
            <polygon class="cls-6" points="901.6 226.56 907.92 262.77 901.6 258.13 886.96 233.61 884.02 235.02 889.23 249.03 886.17 250.76 927.38 310.35 875.67 239.29 901.6 226.56"/>
            <polygon class="cls-6" points="78.34 237.19 103.91 286.74 101.95 286.69 77.39 245.31 76.63 246.36 95.73 284.23 83.31 279.32 67.94 251.37 78.34 237.19"/>
            <polygon class="cls-6" points="65.78 254.3 77.79 277.14 76.47 276.62 63.16 257.87 65.78 254.3"/>
            <polygon class="cls-6" points="51.21 269.97 70.84 286.9 53.15 286.03 40.68 274.8 37.22 275.33 46.37 285.35 37.22 285.42 29.46 278.43 51.21 269.97"/>
          </g>
          <g>
            <polygon class="cls-10" points="1005 438.33 -3 438.33 -5.22 283.44 910.78 299.67 1005 299.67 1005 438.33"/>
            <path class="cls-13" d="m386.66,332.23c92.41,5.38,180.96-1.41,226.15,0,45.18,1.41,265.49,13.37,299.81,25.9,34.32,12.53-488,44.04-488,44.04h582.55s-150.49-11.68-143.41-18.3c7.08-6.61,62.27-25.12,61.58-27.32-.69-2.2-164.87-18.51-165.21-21.15-.34-2.64-191.39-7.49-202.29-7.93-10.9-.44-147.41-6.61-147.41-6.61l-176.17,7.05-240.87-7.05-4.91,7.05,398.18,4.32Z"/>
            <path class="cls-14" d="m-15.41,343.68s240.49,17.79,330.98,14.45c90.49-3.34,391.41,1.32,393.83,14.86,2.42,13.54-317.65,36.01-317.65,36.01l-412.04-3.31,4.88-62.02Z"/>
            <path class="cls-12" d="m1011.62,318.42c-79.63-2.23-351.17-9.66-482.19-10.58-154.56-1.09-533.1,6.63-533.1,6.63v-11.67l1009.19,1.45,6.1,14.17Z"/>
          </g>
          <g>
            <path class="cls-1" d="m1025,366.98l-19.74,8.33-61.98,26.15H-5.5l6.22-8.64,10.74-14.94c1,.11,37.35.41,71.62.73,7.19.05,14.29.11,20.94.19h1.4c3.64.04,7.14.08,10.45.11h.09c13.2.2,25.79.38,36.6.54h.36c8.47.09,15.81.15,21.48.19,11.57.05,17.99-.2,21.3-.64h.01c.43-.06.8-.11,1.14-.18,6.09-1.14-4.51-3.19-3.18-4.25,1.09-.87,41.86.46,79.34,1.56,1.83.06,3.65.11,5.45.17.47.01.94.03,1.42.04.84.03,1.69.05,2.53.08.61.01,1.23.04,1.84.05.47.01.94.03,1.4.04.29.01.57.01.86.03,1.17.04,2.35.06,3.5.09.05.01.11.01.17.01.15,0,.29.01.45.01.78.01,1.56.04,2.34.06.19,0,.37.01.56.01.55.01,1.1.03,1.65.04.17.01.32.01.49.01.96.03,1.89.05,2.82.08,1.56.04,3.08.08,4.57.11.57.01,1.14.03,1.7.04h.03c15.18.34,26.65.47,29.65.1,11.1-1.35-25.71-5.64-22-7.59,1.02-.54,7.52-.47,16.73-.09h.04c7.83.45,17.94,1.02,29.86,1.56h.06c20.21,1.16,40.85,2.41,47.92,2.23,14.99-.4,9.14-2.15,14.02-2.15s31.14,3.31,37.76,3.31-2.92-2.53,0-3.31c2.92-.78,98.7,7.59,111.54,6.42,12.85-1.17,1.94-2.73,10.13-3.12,4.9-.23,40.49.17,68.14.52,18.39.23,33.28.45,33.28.45v-1.3c51.03.23,92.64.01,104.93-1.03,29.25-2.48,86.92-3.97,138.19-4.85,53.49-.92,100-1.17,100-1.17Z"/>
            <g>
              <path class="cls-15" d="m650.87,377.48s104.16,5.27,103.79,10.79-39.96,6.8-39.96,6.8l74.06-7.66s-1.28-14.05-3.83-14.05-134.06,4.12-134.06,4.12Z"/>
              <path class="cls-20" d="m1017.34,409.12l-415.01-5.11s10.48-1.02,26.08-2.55c37.63-3.73,105.02-10.48,126.25-13.22,1.58-.2,2.91-.38,3.95-.54,1.06-.17,2.08-.32,3.06-.47.17-.03.34-.06.52-.09,3.98-.65,7.3-1.3,9.53-1.93,2.06-.57,3.17-1.12,3-1.63-.74-2.21-51.08-2.72-88.48-3.98-11.01-.37-20.89-.8-28.07-1.38-.19-.01-.38-.03-.57-.04-.26-.03-.49-.04-.72-.05-2.36-.2-4.38-.41-6-.65-4.78-.68-6.09-1.52-2.27-2.58.29-.09.61-.17.97-.26,9.73-2.31,76.26-5.22,133.36-7.34,1.29-.04,2.59-.09,3.88-.14.54-.01,1.07-.04,1.61-.06,1.17-.04,2.35-.08,3.52-.11.54-.03,1.09-.05,1.62-.06,3.54-.13,7.02-.26,10.43-.37.88-.04,1.76-.06,2.63-.1.34-.01.69-.03,1.02-.03,1.95-.08,3.88-.14,5.78-.2,1.34-.05,2.67-.1,3.98-.14.08,0,.15-.01.23-.01,3.03-.1,5.95-.2,8.79-.29,24.52-.83,41.49-1.34,41.49-1.34l57.07,3.73,79.57,5.21.69,1.94,12.08,33.81Z"/>
              <path class="cls-7" d="m771.72,385.21c2.06-.57,3.17-1.12,3-1.63-.96-2.87-86.04-2.87-117.12-5.4,23.11,1.39,138.88-3.49,141.38-.98,1.62,1.62-14.97,5.45-27.26,8.02Z"/>
            </g>
            <polygon class="cls-16" points="795.15 366.98 800.26 366.98 797.83 367.24 795.15 366.98"/>
            <g>
              <path class="cls-20" d="m432.49,402.73s-71.09.83-155.66,1.49c-7.21.06-14.53.11-21.91.17h-.77c-12.39.09-24.94.18-37.49.26-8.72.05-17.44.1-26.11.14-99.72.49-192.12.31-190.94-2.06.15-.31.29-.74.41-1.28.41-1.84.61-4.94.7-8.64.26-13-1.11-33.49-1.11-33.49l46.63,4.67c2.32,1.05,5.01,2.27,6.46,2.95.4.18.7.32.88.4.06.04.13.06.19.09l27.35,2.36,9.65.84,2.04.18.69-2.07,1.35.14,100.83,10.11h.01l78.29,7.84,2.44.26h.17s2.08.22,2.08.22l.63.06,2.82.28,2.94.29,3.06.32h.11l6.31.64,12,1.2,3.31.33,6.15.61,103.74,10.41,12.73,1.28Z"/>
              <polygon class="cls-8" points="277.28 409.63 277.28 409.64 267.79 407.48 254.16 404.39 241.19 401.45 175.52 386.58 156.67 382.3 105.59 379.75 104.02 378.79 91.04 370.78 90.78 370.63 92.83 370.81 93.51 368.74 94.87 368.88 108.15 378.47 152.56 379.44 152.92 379.44 166.89 379.75 214.14 389.96 214.14 392.51 215.41 388.68 230.74 392.51 230.74 397.62 232.01 392.51 271.13 401.45 276.71 402.73 276.83 404.22 277.28 409.63"/>
              <path class="cls-7" d="m280.54,410.39l-70.23,5.11s-8.98-4.92-19.75-10.71c-1.09-.59-2.17-1.17-3.28-1.78-.97-.52-1.94-1.03-2.91-1.56-10.14-5.44-20.66-10.98-26.25-13.66-1.79-.86-3.06-1.42-3.68-1.6-.14-.04-.24-.06-.31-.06-.28,0-1.2-.05-2.62-.13h-.14c-11.77-.69-56.12-3.7-57.26-3.7-.37,0-4.8-1.48-11.02-3.7-8.38-3-20-7.34-29.31-11.17-.06-.03-.13-.05-.19-.09-.34-.13-.68-.27-1.01-.41h.13s28.42,2.86,28.42,2.86l9.91,1,1.6.17c3.87,2.76,9.37,6.21,12.8,7.84,1.24.6,2.21.96,2.72.96,2.55,0,52.35,1.28,54.91,2.55.54.27,6.01,1.66,14.33,3.68,16.08,3.93,42.8,10.25,65.02,15.48,4.39,1.03,8.59,2.02,12.51,2.94,4.95,1.17,9.46,2.22,13.24,3.12,3.86.89,6.97,1.62,9.12,2.12,2.09.5,3.26.77,3.26.77Z"/>
              <polygon class="cls-9" points="41.75 382.3 155.4 386.13 14.93 395.07 26.42 382.3 41.75 382.3"/>
              <g>
                <path class="cls-17" d="m199.91,393.22c0,.42-.68.75-1.51.75s-1.51-.34-1.51-.75.68-.76,1.51-.76,1.51.34,1.51.76Z"/>
                <path class="cls-17" d="m196.89,394.06c0,.13-.35.21-.77.19-.42-.03-.75-.15-.74-.28,0-.13.35-.21.77-.19.42.03.75.15.74.28Z"/>
                <path class="cls-17" d="m211.58,395.68c-.02.27-2.15.36-4.76.2-2.61-.16-4.71-.51-4.7-.78.02-.27,2.15-.36,4.76-.2,2.61.16,4.71.51,4.7.78Z"/>
                <path class="cls-17" d="m200.58,395.7c0,.13-.35.21-.77.19-.42-.03-.75-.15-.74-.28,0-.13.35-.21.77-.19.42.03.75.15.74.28Z"/>
                <path class="cls-17" d="m190.91,392.99c-.02.26-.53.44-1.16.4-.62-.04-1.12-.28-1.1-.54.02-.26.53-.44,1.16-.4.62.04,1.12.28,1.1.54Z"/>
                <path class="cls-17" d="m193.97,392.46c0,.13-.18.22-.39.21-.21-.01-.37-.13-.36-.26,0-.13.18-.22.39-.21.21.01.37.13.36.26Z"/>
              </g>
              <path class="cls-17" d="m268.16,407.51l-80.89-4.49c-10.98-5.9-23.04-12.28-29.17-15.22,4.28.24,10.16.36,13.89-.38,2.5-.5,4.23-1,5.39-1.43,19.26,4.71,53.77,12.83,77.54,18.41,4.95,1.17,9.46,2.22,13.24,3.12Z"/>
            </g>
          </g>
        </g>
      </g>
    </g>
  </g>
</svg>