<?xml version="1.0" encoding="UTF-8"?>
<svg id="Layer_2" data-name="Layer 2" xmlns="http://www.w3.org/2000/svg" xmlns:xlink="http://www.w3.org/1999/xlink" viewBox="0 0 1000 400">
  <defs>
    <style>
      .cls-1 {
        fill: #6d63cf;
      }

      .cls-2 {
        clip-path: url(#clippath);
      }

      .cls-3 {
        fill: #6dcaff;
      }

      .cls-4 {
        fill: none;
      }
    </style>
    <clipPath id="clippath">
      <rect class="cls-4" width="1000" height="400"/>
    </clipPath>
  </defs>
  <g id="layer1">
    <g class="cls-2">
      <g>
        <path class="cls-3" d="m714.06,381.83s0-.01,0-.01,0,.01,0,.01Z"/>
        <path class="cls-3" d="m426.96,337.61c.77,0,.77-1.19,0-1.19s-.77,1.19,0,1.19Z"/>
        <path class="cls-3" d="m534.94,342.5c.77,0,.77-1.19,0-1.19s-.77,1.19,0,1.19Z"/>
        <path class="cls-3" d="m570.94,343.21c.77,0,.77-1.19,0-1.19s-.77,1.19,0,1.19Z"/>
        <path class="cls-3" d="m605.43,349.32c.77,0,.77-1.19,0-1.19s-.77,1.19,0,1.19Z"/>
        <path class="cls-3" d="m600.61,340.95c.77,0,.77-1.19,0-1.19s-.77,1.19,0,1.19Z"/>
        <path class="cls-3" d="m661.61,343.13c.77,0,.77-1.19,0-1.19s-.77,1.19,0,1.19Z"/>
        <path class="cls-3" d="m586.47,340.19c.77,0,.77-1.19,0-1.19s-.77,1.19,0,1.19Z"/>
        <path class="cls-3" d="m545.16,343.13c.77,0,.77-1.19,0-1.19s-.77,1.19,0,1.19Z"/>
        <path class="cls-3" d="m540.18,339.81c.77,0,.77-1.19,0-1.19s-.77,1.19,0,1.19Z"/>
        <path class="cls-3" d="m942.69,387.38s0-.01,0-.01,0,.01,0,.01Z"/>
        <path class="cls-3" d="m276.92,340.19c.77,0,.77-1.19,0-1.19s-.77,1.19,0,1.19Z"/>
        <path class="cls-3" d="m249.98,300.06c.77,0,.77-1.19,0-1.19s-.77,1.19,0,1.19Z"/>
        <path class="cls-3" d="m233.29,340.95c.77,0,.77-1.19,0-1.19s-.77,1.19,0,1.19Z"/>
        <path class="cls-3" d="m380.31,348.49c.77,0,.77-1.19,0-1.19s-.77,1.19,0,1.19Z"/>
        <path class="cls-3" d="m433.27,338.71c.77,0,.77-1.19,0-1.19s-.77,1.19,0,1.19Z"/>
        <path class="cls-3" d="m315.15,339.47c.77,0,.77-1.19,0-1.19s-.77,1.19,0,1.19Z"/>
        <path class="cls-3" d="m408.69,339.66c.77,0,.77-1.19,0-1.19s-.77,1.19,0,1.19Z"/>
        <path class="cls-3" d="m287.86,343.13c.77,0,.77-1.19,0-1.19s-.77,1.19,0,1.19Z"/>
        <path class="cls-3" d="m334.09,345.15c.77,0,.77-1.19,0-1.19s-.77,1.19,0,1.19Z"/>
        <path class="cls-3" d="m325.26,340.19c.77,0,.77-1.19,0-1.19s-.77,1.19,0,1.19Z"/>
        <path class="cls-3" d="m480.38,346.29c.77,0,.77-1.19,0-1.19s-.77,1.19,0,1.19Z"/>
        <path class="cls-3" d="m405.34,319.01c.77,0,.77-1.19,0-1.19s-.77,1.19,0,1.19Z"/>
        <path class="cls-3" d="m344.45,338.71c.77,0,.77-1.19,0-1.19s-.77,1.19,0,1.19Z"/>
        <path class="cls-3" d="m357.29,339.56c.77,0,.77-1.19,0-1.19s-.77,1.19,0,1.19Z"/>
        <path class="cls-3" d="m675.1,340.95c.77,0,.77-1.19,0-1.19s-.77,1.19,0,1.19Z"/>
        <path class="cls-3" d="m453.33,340.19c.77,0,.77-1.19,0-1.19s-.77,1.19,0,1.19Z"/>
        <path class="cls-3" d="m704.71,337.95c.77,0,.77-1.19,0-1.19s-.77,1.19,0,1.19Z"/>
        <path class="cls-3" d="m741.64,343.89c.77,0,.77-1.19,0-1.19s-.77,1.19,0,1.19Z"/>
        <path class="cls-3" d="m939.43,353.36c.77,0,.77-1.19,0-1.19s-.77,1.19,0,1.19Z"/>
        <path class="cls-3" d="m395.47,340.1c.77,0,.77-1.19,0-1.19s-.77,1.19,0,1.19Z"/>
        <path class="cls-3" d="m828.25,375.85c.77,0,.77-1.19,0-1.19s-.77,1.19,0,1.19Z"/>
        <path class="cls-3" d="m464.83,343.89c.77,0,.77-1.19,0-1.19s-.77,1.19,0,1.19Z"/>
        <path class="cls-3" d="m413.65,340.95c.77,0,.77-1.19,0-1.19s-.77,1.19,0,1.19Z"/>
        <path class="cls-3" d="m992.71,312.94c.77,0,.77-1.19,0-1.19s-.77,1.19,0,1.19Z"/>
        <path class="cls-3" d="m784.58,318.23c.77,0,.77-1.19,0-1.19s-.77,1.19,0,1.19Z"/>
        <path class="cls-3" d="m570.94,330.5c.77,0,.77-1.19,0-1.19s-.77,1.19,0,1.19Z"/>
        <path class="cls-3" d="m462.82,340.95c.77,0,.77-1.19,0-1.19s-.77,1.19,0,1.19Z"/>
        <path class="cls-3" d="m535.33,347.84c.77,0,.77-1.19,0-1.19s-.77,1.19,0,1.19Z"/>
        <path class="cls-3" d="m546.98,340.95c.77,0,.77-1.19,0-1.19s-.77,1.19,0,1.19Z"/>
        <path class="cls-3" d="m427.31,342.7c.77,0,.77-1.19,0-1.19s-.77,1.19,0,1.19Z"/>
        <path class="cls-3" d="m698.26,342.5c.77,0,.77-1.19,0-1.19s-.77,1.19,0,1.19Z"/>
        <path class="cls-3" d="m904.02,329.57c.77,0,.77-1.19,0-1.19s-.77,1.19,0,1.19Z"/>
        <path class="cls-3" d="m967.96,331.1c.77,0,.77-1.19,0-1.19s-.77,1.19,0,1.19Z"/>
        <path class="cls-3" d="m857.09,323.82c.77,0,.77-1.19,0-1.19s-.77,1.19,0,1.19Z"/>
        <path class="cls-3" d="m181,334.86c.77,0,.77-1.19,0-1.19s-.77,1.19,0,1.19Z"/>
        <path class="cls-3" d="m233.29,322.05c.77,0,.77-1.19,0-1.19s-.77,1.19,0,1.19Z"/>
        <path class="cls-3" d="m125.26,326.21c.77,0,.77-1.19,0-1.19s-.77,1.19,0,1.19Z"/>
        <path class="cls-3" d="m196.27,320.77c.77,0,.77-1.19,0-1.19s-.77,1.19,0,1.19Z"/>
        <path class="cls-3" d="m929.84,307.67c.77,0,.77-1.19,0-1.19s-.77,1.19,0,1.19Z"/>
        <path class="cls-3" d="m938.07,331.1c.77,0,.77-1.19,0-1.19s-.77,1.19,0,1.19Z"/>
        <path class="cls-3" d="m857.77,308.21c.77,0,.77-1.19,0-1.19s-.77,1.19,0,1.19Z"/>
        <path class="cls-3" d="m825.55,327.1c.77,0,.77-1.19,0-1.19s-.77,1.19,0,1.19Z"/>
        <path class="cls-3" d="m778.67,321.24c.77,0,.77-1.19,0-1.19s-.77,1.19,0,1.19Z"/>
        <path class="cls-3" d="m672.41,323.23c.77,0,.77-1.19,0-1.19s-.77,1.19,0,1.19Z"/>
        <path class="cls-3" d="m763.3,324.23c.77,0,.77-1.19,0-1.19s-.77,1.19,0,1.19Z"/>
        <path class="cls-3" d="m99.15,322.64c.77,0,.77-1.19,0-1.19s-.77,1.19,0,1.19Z"/>
        <path class="cls-3" d="m983.41,301.25c.77,0,.77-1.19,0-1.19s-.77,1.19,0,1.19Z"/>
        <path class="cls-3" d="m938.07,287.24c.77,0,.77-1.19,0-1.19s-.77,1.19,0,1.19Z"/>
        <path class="cls-3" d="m.79,311.17c.77,0,.77-1.19,0-1.19s-.77,1.19,0,1.19Z"/>
        <path class="cls-3" d="m46.35,307.67c.77,0,.77-1.19,0-1.19s-.77,1.19,0,1.19Z"/>
        <path class="cls-3" d="m243.7,327.1c.77,0,.77-1.19,0-1.19s-.77,1.19,0,1.19Z"/>
        <path class="cls-3" d="m310.22,331.53c.77,0,.77-1.19,0-1.19s-.77,1.19,0,1.19Z"/>
        <path class="cls-3" d="m196.27,346.95c.77,0,.77-1.19,0-1.19s-.77,1.19,0,1.19Z"/>
        <path class="cls-3" d="m128.3,319.6c.77,0,.77-1.19,0-1.19s-.77,1.19,0,1.19Z"/>
        <path class="cls-3" d="m866.91,324.23c.77,0,.77-1.19,0-1.19s-.77,1.19,0,1.19Z"/>
        <path class="cls-3" d="m604.12,329.57c.77,0,.77-1.19,0-1.19s-.77,1.19,0,1.19Z"/>
        <path class="cls-3" d="m694.8,327.1c.77,0,.77-1.19,0-1.19s-.77,1.19,0,1.19Z"/>
        <path class="cls-1" d="m993.12,312.5c.6,0,.6-.93,0-.93s-.6.93,0,.93Z"/>
        <path class="cls-1" d="m830.26,316.64c.6,0,.6-.93,0-.93s-.6.93,0,.93Z"/>
        <path class="cls-1" d="m923.72,325.51c.6,0,.6-.93,0-.93s-.6.93,0,.93Z"/>
        <path class="cls-1" d="m887,321.01c.6,0,.6-.93,0-.93s-.6.93,0,.93Z"/>
        <path class="cls-1" d="m943.92,308.38c.6,0,.6-.93,0-.93s-.6.93,0,.93Z"/>
        <path class="cls-1" d="m950.36,326.7c.6,0,.6-.93,0-.93s-.6.93,0,.93Z"/>
        <path class="cls-1" d="m887.53,308.8c.6,0,.6-.93,0-.93s-.6.93,0,.93Z"/>
        <path class="cls-1" d="m862.32,323.57c.6,0,.6-.93,0-.93s-.6.93,0,.93Z"/>
        <path class="cls-1" d="m825.64,318.99c.6,0,.6-.93,0-.93s-.6.93,0,.93Z"/>
        <path class="cls-1" d="m742.48,320.55c.6,0,.6-.93,0-.93s-.6.93,0,.93Z"/>
        <path class="cls-1" d="m813.61,321.33c.6,0,.6-.93,0-.93s-.6.93,0,.93Z"/>
        <path class="cls-1" d="m985.84,303.35c.6,0,.6-.93,0-.93s-.6.93,0,.93Z"/>
        <path class="cls-1" d="m950.36,292.39c.6,0,.6-.93,0-.93s-.6.93,0,.93Z"/>
        <path class="cls-1" d="m894.68,321.33c.6,0,.6-.93,0-.93s-.6.93,0,.93Z"/>
        <path class="cls-1" d="m760.01,323.57c.6,0,.6-.93,0-.93s-.6.93,0,.93Z"/>
        <path class="cls-3" d="m250.92,331.26c.77,0,.77-1.19,0-1.19s-.77,1.19,0,1.19Z"/>
        <path class="cls-3" d="m122.45,337.26c.77,0,.77-1.19,0-1.19s-.77,1.19,0,1.19Z"/>
        <path class="cls-3" d="m31.19,332.13c.77,0,.77-1.19,0-1.19s-.77,1.19,0,1.19Z"/>
        <path class="cls-1" d="m237.99,309.67c.56,0,.57-.88,0-.88s-.57.88,0,.88Z"/>
        <path class="cls-1" d="m187.19,335.3c.56,0,.57-.88,0-.88s-.57.88,0,.88Z"/>
        <path class="cls-1" d="m225.71,325.87c.56,0,.57-.88,0-.88s-.57.88,0,.88Z"/>
        <path class="cls-1" d="m146.12,328.94c.56,0,.57-.88,0-.88s-.57.88,0,.88Z"/>
        <path class="cls-1" d="m198.43,324.93c.56,0,.57-.88,0-.88s-.57.88,0,.88Z"/>
        <path class="cls-1" d="m126.89,326.31c.56,0,.57-.88,0-.88s-.57.88,0,.88Z"/>
        <path class="cls-1" d="m54.44,317.85c.56,0,.57-.88,0-.88s-.57.88,0,.88Z"/>
        <path class="cls-1" d="m44.86,286.55c.56,0,.57-.88,0-.88s-.57.88,0,.88Z"/>
        <path class="cls-1" d="m88,315.28c.56,0,.57-.88,0-.88s-.57.88,0,.88Z"/>
        <path class="cls-1" d="m41.7,313.16c.56,0,.57-.88,0-.88s-.57.88,0,.88Z"/>
        <path class="cls-1" d="m233.37,329.59c.56,0,.57-.88,0-.88s-.57.88,0,.88Z"/>
        <path class="cls-1" d="m282.37,332.85c.56,0,.57-.88,0-.88s-.57.88,0,.88Z"/>
        <path class="cls-1" d="m148.37,324.07c.56,0,.57-.88,0-.88s-.57.88,0,.88Z"/>
        <path class="cls-1" d="m238.69,332.65c.56,0,.57-.88,0-.88s-.57.88,0,.88Z"/>
        <path class="cls-1" d="m76.84,333.29c.56,0,.57-.88,0-.88s-.57.88,0,.88Z"/>
        <path class="cls-3" d="m701.29,340.95c.77,0,.77-1.19,0-1.19s-.77,1.19,0,1.19Z"/>
        <path class="cls-3" d="m781.08,346.29c.77,0,.77-1.19,0-1.19s-.77,1.19,0,1.19Z"/>
        <path class="cls-3" d="m985.79,346.88c.77,0,.77-1.19,0-1.19s-.77,1.19,0,1.19Z"/>
        <path class="cls-3" d="m450.52,340.19c.77,0,.77-1.19,0-1.19s-.77,1.19,0,1.19Z"/>
        <path class="cls-3" d="m474.81,340.95c.77,0,.77-1.19,0-1.19s-.77,1.19,0,1.19Z"/>
        <path class="cls-3" d="m679.18,346.29c.77,0,.77-1.19,0-1.19s-.77,1.19,0,1.19Z"/>
        <path class="cls-3" d="m647.87,346.29c.77,0,.77-1.19,0-1.19s-.77,1.19,0,1.19Z"/>
        <path class="cls-3" d="m631.07,340.95c.77,0,.77-1.19,0-1.19s-.77,1.19,0,1.19Z"/>
        <path class="cls-3" d="m565.69,342.5c.77,0,.77-1.19,0-1.19s-.77,1.19,0,1.19Z"/>
        <path class="cls-3" d="m684.49,348.49c.77,0,.77-1.19,0-1.19s-.77,1.19,0,1.19Z"/>
        <path class="cls-3" d="m862.78,346.29c.77,0,.77-1.19,0-1.19s-.77,1.19,0,1.19Z"/>
        <path class="cls-3" d="m387.72,337.61c.77,0,.77-1.19,0-1.19s-.77,1.19,0,1.19Z"/>
        <path class="cls-3" d="m577.31,339.47c.77,0,.77-1.19,0-1.19s-.77,1.19,0,1.19Z"/>
        <path class="cls-3" d="m260.65,343.89c.77,0,.77-1.19,0-1.19s-.77,1.19,0,1.19Z"/>
        <path class="cls-3" d="m180.31,357.94c.77,0,.77-1.19,0-1.19s-.77,1.19,0,1.19Z"/>
        <path class="cls-3" d="m46.92,349.92c.77,0,.77-1.19,0-1.19s-.77,1.19,0,1.19Z"/>
        <path class="cls-3" d="m367.1,342.7c.77,0,.77-1.19,0-1.19s-.77,1.19,0,1.19Z"/>
        <path class="cls-3" d="m245.44,339.81c.77,0,.77-1.19,0-1.19s-.77,1.19,0,1.19Z"/>
        <path class="cls-3" d="m416.2,337.26c.77,0,.77-1.19,0-1.19s-.77,1.19,0,1.19Z"/>
      </g>
    </g>
  </g>
</svg>