<?xml version="1.0" encoding="UTF-8"?>
<svg id="Layer_2" data-name="Layer 2" xmlns="http://www.w3.org/2000/svg" xmlns:xlink="http://www.w3.org/1999/xlink" viewBox="0 0 1000 400">
  <defs>
    <style>
      .cls-1 {
        clip-path: url(#clippath);
      }

      .cls-2 {
        fill: #6dcaff;
      }

      .cls-3 {
        fill: none;
      }
    </style>
    <clipPath id="clippath">
      <rect class="cls-3" width="1000" height="400"/>
    </clipPath>
  </defs>
  <g id="layer1">
    <g class="cls-1">
      <g>
        <path class="cls-2" d="m374.85,35.71c.7,0,.7-1.09,0-1.09s-.7,1.09,0,1.09Z"/>
        <path class="cls-2" d="m411.81,82.39c.7,0,.7-1.09,0-1.09s-.7,1.09,0,1.09Z"/>
        <path class="cls-2" d="m638.24,24.08s0,0,0,0,0,0,0,0Z"/>
        <path class="cls-2" d="m631.31,62.9s0,0,0,0,0,0,0,0Z"/>
        <path class="cls-2" d="m492.68,127.67c.7,0,.7-1.09,0-1.09s-.7,1.09,0,1.09Z"/>
        <path class="cls-2" d="m610.05,87.47c.7,0,.7-1.09,0-1.09s-.7,1.09,0,1.09Z"/>
        <path class="cls-2" d="m737.83,52.58c.7,0,.7-1.09,0-1.09s-.7,1.09,0,1.09Z"/>
        <path class="cls-2" d="m722.58,130.21c.7,0,.7-1.09,0-1.09s-.7,1.09,0,1.09Z"/>
        <path class="cls-2" d="m347.58,159.33c.7,0,.7-1.09,0-1.09s-.7,1.09,0,1.09Z"/>
        <path class="cls-2" d="m224.9,100.41c.7,0,.7-1.09,0-1.09s-.7,1.09,0,1.09Z"/>
        <path class="cls-2" d="m184.69,158.63c.7,0,.7-1.09,0-1.09s-.7,1.09,0,1.09Z"/>
        <path class="cls-2" d="m176.38,14.46c.7,0,.7-1.09,0-1.09s-.7,1.09,0,1.09Z"/>
        <path class="cls-2" d="m502.16,24.16c.7,0,.7-1.09,0-1.09s-.7,1.09,0,1.09Z"/>
        <path class="cls-2" d="m558.99,10.99c.7,0,.7-1.09,0-1.09s-.7,1.09,0,1.09Z"/>
        <path class="cls-2" d="m847.34,29.17s0,0,0,0,0,0,0,0Z"/>
        <path class="cls-2" d="m836.95,124.67c.7,0,.7-1.09,0-1.09s-.7,1.09,0,1.09Z"/>
        <path class="cls-2" d="m676.83,161.4c.7,0,.7-1.09,0-1.09s-.7,1.09,0,1.09Z"/>
        <path class="cls-2" d="m560.38,212c.7,0,.7-1.09,0-1.09s-.7,1.09,0,1.09Z"/>
        <path class="cls-2" d="m539.58,248.05c.7,0,.7-1.09,0-1.09s-.7,1.09,0,1.09Z"/>
        <path class="cls-2" d="m394.02,238.34c.7,0,.7-1.09,0-1.09s-.7,1.09,0,1.09Z"/>
        <path class="cls-2" d="m525.51,251.06c.7,0,.7-1.09,0-1.09s-.7,1.09,0,1.09Z"/>
        <path class="cls-2" d="m299.06,183.59c.7,0,.7-1.09,0-1.09s-.7,1.09,0,1.09Z"/>
        <path class="cls-2" d="m330.95,65.75c.7,0,.7-1.09,0-1.09s-.7,1.09,0,1.09Z"/>
        <path class="cls-2" d="m159.05,92.09c.7,0,.7-1.09,0-1.09s-.7,1.09,0,1.09Z"/>
        <path class="cls-2" d="m117.46,42.88c.7,0,.7-1.09,0-1.09s-.7,1.09,0,1.09Z"/>
        <path class="cls-2" d="m184,18.62c.7,0,.7-1.09,0-1.09s-.7,1.09,0,1.09Z"/>
        <path class="cls-2" d="m168.75,8.22c.7,0,.7-1.09,0-1.09s-.7,1.09,0,1.09Z"/>
        <path class="cls-2" d="m165.29,42.18c.7,0,.7-1.09,0-1.09s-.7,1.09,0,1.09Z"/>
        <path class="cls-2" d="m191.62,36.64c.7,0,.7-1.09,0-1.09s-.7,1.09,0,1.09Z"/>
        <path class="cls-2" d="m132.01,135.22s0,0,0,0,0,0,0,0Z"/>
        <path class="cls-2" d="m162.51,207.85c.7,0,.7-1.09,0-1.09s-.7,1.09,0,1.09Z"/>
        <path class="cls-2" d="m265.1,200.91c.7,0,.7-1.09,0-1.09s-.7,1.09,0,1.09Z"/>
        <path class="cls-2" d="m289.36,242.5c.7,0,.7-1.09,0-1.09s-.7,1.09,0,1.09Z"/>
        <path class="cls-2" d="m386.4,237.65c.7,0,.7-1.09,0-1.09s-.7,1.09,0,1.09Z"/>
        <path class="cls-2" d="m375.31,192.06s0,0,0,0,0,0,0,0Z"/>
        <path class="cls-2" d="m434.92,218.94c.7,0,.7-1.09,0-1.09s-.7,1.09,0,1.09Z"/>
        <path class="cls-2" d="m627.61,250.52c.7,0,.7-1.09,0-1.09s-.7,1.09,0,1.09Z"/>
        <path class="cls-2" d="m592.88,237.36c.7,0,.7-1.09,0-1.09s-.7,1.09,0,1.09Z"/>
        <path class="cls-2" d="m477.89,202.3c.7,0,.7-1.09,0-1.09s-.7,1.09,0,1.09Z"/>
        <path class="cls-2" d="m426.6,99.71c.7,0,.7-1.09,0-1.09s-.7,1.09,0,1.09Z"/>
        <path class="cls-2" d="m476.51,62.98c.7,0,.7-1.09,0-1.09s-.7,1.09,0,1.09Z"/>
        <path class="cls-2" d="m596.42,173.88c.7,0,.7-1.09,0-1.09s-.7,1.09,0,1.09Z"/>
        <path class="cls-2" d="m304.61,2.67c.7,0,.7-1.09,0-1.09s-.7,1.09,0,1.09Z"/>
        <path class="cls-2" d="m299.76,47.73c.7,0,.7-1.09,0-1.09s-.7,1.09,0,1.09Z"/>
        <path class="cls-2" d="m279.65,25.55c.7,0,.7-1.09,0-1.09s-.7,1.09,0,1.09Z"/>
        <path class="cls-2" d="m667.82,27.63c.7,0,.7-1.09,0-1.09s-.7,1.09,0,1.09Z"/>
        <path class="cls-2" d="m677.52,72.68c.7,0,.7-1.09,0-1.09s-.7,1.09,0,1.09Z"/>
        <path class="cls-2" d="m646.33,114.27c.7,0,.7-1.09,0-1.09s-.7,1.09,0,1.09Z"/>
        <path class="cls-2" d="m578.4,107.34c.7,0,.7-1.09,0-1.09s-.7,1.09,0,1.09Z"/>
        <path class="cls-2" d="m568,57.43c.7,0,.7-1.09,0-1.09s-.7,1.09,0,1.09Z"/>
        <path class="cls-2" d="m614.44,16.54c.7,0,.7-1.09,0-1.09s-.7,1.09,0,1.09Z"/>
        <path class="cls-2" d="m714.26,51.19c.7,0,.7-1.09,0-1.09s-.7,1.09,0,1.09Z"/>
        <path class="cls-2" d="m742.68,18.62c.7,0,.7-1.09,0-1.09s-.7,1.09,0,1.09Z"/>
        <path class="cls-2" d="m814.07,8.22c.7,0,.7-1.09,0-1.09s-.7,1.09,0,1.09Z"/>
        <path class="cls-2" d="m792.58,44.26c.7,0,.7-1.09,0-1.09s-.7,1.09,0,1.09Z"/>
        <path class="cls-2" d="m782.88,111.5c.7,0,.7-1.09,0-1.09s-.7,1.09,0,1.09Z"/>
        <path class="cls-2" d="m832.09,153.78c.7,0,.7-1.09,0-1.09s-.7,1.09,0,1.09Z"/>
        <path class="cls-2" d="m876.45,137.84c.7,0,.7-1.09,0-1.09s-.7,1.09,0,1.09Z"/>
        <path class="cls-2" d="m886.16,58.82c.7,0,.7-1.09,0-1.09s-.7,1.09,0,1.09Z"/>
        <path class="cls-2" d="m847.34,87.93c.7,0,.7-1.09,0-1.09s-.7,1.09,0,1.09Z"/>
        <path class="cls-2" d="m830.01,62.98c.7,0,.7-1.09,0-1.09s-.7,1.09,0,1.09Z"/>
        <path class="cls-2" d="m859.13,40.1c.7,0,.7-1.09,0-1.09s-.7,1.09,0,1.09Z"/>
        <path class="cls-2" d="m901.41,8.37s0,0,0,0,0,0,0,0Z"/>
        <path class="cls-2" d="m789.81,162.1c.7,0,.7-1.09,0-1.09s-.7,1.09,0,1.09Z"/>
        <path class="cls-2" d="m726.73,207.15c.7,0,.7-1.09,0-1.09s-.7,1.09,0,1.09Z"/>
        <path class="cls-2" d="m730.2,233.49c.7,0,.7-1.09,0-1.09s-.7,1.09,0,1.09Z"/>
        <path class="cls-2" d="m773.87,219.09s0,0,0,0,0,0,0,0Z"/>
        <path class="cls-2" d="m686.53,233.49c.7,0,.7-1.09,0-1.09s-.7,1.09,0,1.09Z"/>
        <path class="cls-2" d="m596.42,173.88c.7,0,.7-1.09,0-1.09s-.7,1.09,0,1.09Z"/>
        <path class="cls-2" d="m535.43,137.14c.7,0,.7-1.09,0-1.09s-.7,1.09,0,1.09Z"/>
        <path class="cls-2" d="m437,148.24c.7,0,.7-1.09,0-1.09s-.7,1.09,0,1.09Z"/>
        <path class="cls-2" d="m395.41,114.96c.7,0,.7-1.09,0-1.09s-.7,1.09,0,1.09Z"/>
        <path class="cls-2" d="m417.59,171.11c.7,0,.7-1.09,0-1.09s-.7,1.09,0,1.09Z"/>
        <path class="cls-2" d="m420.36,140.61c.7,0,.7-1.09,0-1.09s-.7,1.09,0,1.09Z"/>
        <path class="cls-2" d="m368.38,218.24c.7,0,.7-1.09,0-1.09s-.7,1.09,0,1.09Z"/>
        <path class="cls-2" d="m398.88,214.78c.7,0,.7-1.09,0-1.09s-.7,1.09,0,1.09Z"/>
        <path class="cls-2" d="m343.42,126.75c.7,0,.7-1.09,0-1.09s-.7,1.09,0,1.09Z"/>
        <path class="cls-2" d="m308.07,126.05c.7,0,.7-1.09,0-1.09s-.7,1.09,0,1.09Z"/>
        <path class="cls-2" d="m475.82,85.16c.7,0,.7-1.09,0-1.09s-.7,1.09,0,1.09Z"/>
        <path class="cls-2" d="m441.85,32.48c.7,0,.7-1.09,0-1.09s-.7,1.09,0,1.09Z"/>
        <path class="cls-2" d="m545.82,58.13c.7,0,.7-1.09,0-1.09s-.7,1.09,0,1.09Z"/>
        <path class="cls-2" d="m645.64,40.8c.7,0,.7-1.09,0-1.09s-.7,1.09,0,1.09Z"/>
        <path class="cls-2" d="m508.05,95.9c.7,0,.7-1.09,0-1.09s-.7,1.09,0,1.09Z"/>
        <path class="cls-2" d="m501.81,104.91c.7,0,.7-1.09,0-1.09s-.7,1.09,0,1.09Z"/>
        <path class="cls-2" d="m504.58,95.56c.7,0,.7-1.09,0-1.09s-.7,1.09,0,1.09Z"/>
        <path class="cls-2" d="m491.41,104.22c.7,0,.7-1.09,0-1.09s-.7,1.09,0,1.09Z"/>
        <path class="cls-2" d="m477.89,117.39c.7,0,.7-1.09,0-1.09s-.7,1.09,0,1.09Z"/>
        <path class="cls-2" d="m476.86,101.79c.7,0,.7-1.09,0-1.09s-.7,1.09,0,1.09Z"/>
        <path class="cls-2" d="m492.1,112.54c.7,0,.7-1.09,0-1.09s-.7,1.09,0,1.09Z"/>
        <path class="cls-2" d="m485.17,119.12c.7,0,.7-1.09,0-1.09s-.7,1.09,0,1.09Z"/>
        <path class="cls-2" d="m482.75,112.19c.7,0,.7-1.09,0-1.09s-.7,1.09,0,1.09Z"/>
        <path class="cls-2" d="m470.96,130.21c.7,0,.7-1.09,0-1.09s-.7,1.09,0,1.09Z"/>
        <path class="cls-2" d="m451.9,144.08c.7,0,.7-1.09,0-1.09s-.7,1.09,0,1.09Z"/>
        <path class="cls-2" d="m414.82,166.26c.7,0,.7-1.09,0-1.09s-.7,1.09,0,1.09Z"/>
        <path class="cls-2" d="m421.06,155.51c.7,0,.7-1.09,0-1.09s-.7,1.09,0,1.09Z"/>
        <path class="cls-2" d="m408.58,161.4c.7,0,.7-1.09,0-1.09s-.7,1.09,0,1.09Z"/>
        <path class="cls-2" d="m402,171.11c.7,0,.7-1.09,0-1.09s-.7,1.09,0,1.09Z"/>
        <path class="cls-2" d="m389.52,173.19c.7,0,.7-1.09,0-1.09s-.7,1.09,0,1.09Z"/>
        <path class="cls-2" d="m386.4,179.77c.7,0,.7-1.09,0-1.09s-.7,1.09,0,1.09Z"/>
        <path class="cls-2" d="m389.87,183.59c.7,0,.7-1.09,0-1.09s-.7,1.09,0,1.09Z"/>
        <path class="cls-2" d="m394.02,179.43c.7,0,.7-1.09,0-1.09s-.7,1.09,0,1.09Z"/>
        <path class="cls-2" d="m390.9,177.69c.7,0,.7-1.09,0-1.09s-.7,1.09,0,1.09Z"/>
        <path class="cls-2" d="m380.16,189.82c.7,0,.7-1.09,0-1.09s-.7,1.09,0,1.09Z"/>
        <path class="cls-2" d="m367.68,190.17c.7,0,.7-1.09,0-1.09s-.7,1.09,0,1.09Z"/>
        <path class="cls-2" d="m361.45,200.22c.7,0,.7-1.09,0-1.09s-.7,1.09,0,1.09Z"/>
        <path class="cls-2" d="m339.96,209.93c.7,0,.7-1.09,0-1.09s-.7,1.09,0,1.09Z"/>
        <path class="cls-2" d="m323.32,231.76c.7,0,.7-1.09,0-1.09s-.7,1.09,0,1.09Z"/>
        <path class="cls-2" d="m319.16,225.17c.7,0,.7-1.09,0-1.09s-.7,1.09,0,1.09Z"/>
        <path class="cls-2" d="m629.45,179.5c.7,0,.7-1.09,0-1.09s-.7,1.09,0,1.09Z"/>
        <path class="cls-2" d="m464.43,265.9c.7,0,.7-1.09,0-1.09s-.7,1.09,0,1.09Z"/>
        <path class="cls-2" d="m491.76,233.59c.7,0,.7-1.09,0-1.09s-.7,1.09,0,1.09Z"/>
        <path class="cls-2" d="m308.42,231.07c.7,0,.7-1.09,0-1.09s-.7,1.09,0,1.09Z"/>
        <path class="cls-2" d="m312.93,245.28c.7,0,.7-1.09,0-1.09s-.7,1.09,0,1.09Z"/>
        <path class="cls-2" d="m397.5,243.44c.7,0,.7-1.09,0-1.09s-.7,1.09,0,1.09Z"/>
        <path class="cls-2" d="m346.54,226.56c.7,0,.7-1.09,0-1.09s-.7,1.09,0,1.09Z"/>
        <path class="cls-2" d="m325.39,256.05c.7,0,.7-1.09,0-1.09s-.7,1.09,0,1.09Z"/>
        <path class="cls-2" d="m343.08,193.98c.7,0,.7-1.09,0-1.09s-.7,1.09,0,1.09Z"/>
        <path class="cls-2" d="m671.49,222.43c.7,0,.7-1.09,0-1.09s-.7,1.09,0,1.09Z"/>
        <path class="cls-2" d="m287.15,219.48c.7,0,.7-1.09,0-1.09s-.7,1.09,0,1.09Z"/>
        <path class="cls-2" d="m331.29,204.73c.7,0,.7-1.09,0-1.09s-.7,1.09,0,1.09Z"/>
        <path class="cls-2" d="m352.09,199.18c.7,0,.7-1.09,0-1.09s-.7,1.09,0,1.09Z"/>
        <path class="cls-2" d="m531.96,69.91c.7,0,.7-1.09,0-1.09s-.7,1.09,0,1.09Z"/>
        <path class="cls-2" d="m511.17,58.13c.7,0,.7-1.09,0-1.09s-.7,1.09,0,1.09Z"/>
        <path class="cls-2" d="m517.75,72.68c.7,0,.7-1.09,0-1.09s-.7,1.09,0,1.09Z"/>
        <path class="cls-2" d="m528.15,89.32c.7,0,.7-1.09,0-1.09s-.7,1.09,0,1.09Z"/>
        <path class="cls-2" d="m542.01,76.15c.7,0,.7-1.09,0-1.09s-.7,1.09,0,1.09Z"/>
        <path class="cls-2" d="m528.84,77.88c.7,0,.7-1.09,0-1.09s-.7,1.09,0,1.09Z"/>
        <path class="cls-2" d="m520.87,78.23c.7,0,.7-1.09,0-1.09s-.7,1.09,0,1.09Z"/>
        <path class="cls-2" d="m524.34,30.05c.7,0,.7-1.09,0-1.09s-.7,1.09,0,1.09Z"/>
        <path class="cls-2" d="m533.69,5.45c.7,0,.7-1.09,0-1.09s-.7,1.09,0,1.09Z"/>
        <path class="cls-2" d="m558.65,16.88c.7,0,.7-1.09,0-1.09s-.7,1.09,0,1.09Z"/>
        <path class="cls-2" d="m544.44,17.23c.7,0,.7-1.09,0-1.09s-.7,1.09,0,1.09Z"/>
        <path class="cls-2" d="m558.65,36.98c.7,0,.7-1.09,0-1.09s-.7,1.09,0,1.09Z"/>
        <path class="cls-2" d="m558.3,62.63c.7,0,.7-1.09,0-1.09s-.7,1.09,0,1.09Z"/>
        <path class="cls-2" d="m576.32,61.94c.7,0,.7-1.09,0-1.09s-.7,1.09,0,1.09Z"/>
        <path class="cls-2" d="m588.11,24.16c.7,0,.7-1.09,0-1.09s-.7,1.09,0,1.09Z"/>
        <path class="cls-2" d="m576.67,10.3c.7,0,.7-1.09,0-1.09s-.7,1.09,0,1.09Z"/>
        <path class="cls-2" d="m573.9,29.36c.7,0,.7-1.09,0-1.09s-.7,1.09,0,1.09Z"/>
        <path class="cls-2" d="m562.81,25.89c.7,0,.7-1.09,0-1.09s-.7,1.09,0,1.09Z"/>
        <path class="cls-2" d="m571.82,11.69c.7,0,.7-1.09,0-1.09s-.7,1.09,0,1.09Z"/>
        <path class="cls-2" d="m551.37,28.67c.7,0,.7-1.09,0-1.09s-.7,1.09,0,1.09Z"/>
        <path class="cls-2" d="m556.91,48.77c.7,0,.7-1.09,0-1.09s-.7,1.09,0,1.09Z"/>
        <path class="cls-2" d="m573.55,44.26c.7,0,.7-1.09,0-1.09s-.7,1.09,0,1.09Z"/>
        <path class="cls-2" d="m553.45,45.65c.7,0,.7-1.09,0-1.09s-.7,1.09,0,1.09Z"/>
        <path class="cls-2" d="m558.99,73.38c.7,0,.7-1.09,0-1.09s-.7,1.09,0,1.09Z"/>
        <path class="cls-2" d="m553.45,85.85c.7,0,.7-1.09,0-1.09s-.7,1.09,0,1.09Z"/>
        <path class="cls-2" d="m540.62,85.85c.7,0,.7-1.09,0-1.09s-.7,1.09,0,1.09Z"/>
        <path class="cls-2" d="m536.12,102.14c.7,0,.7-1.09,0-1.09s-.7,1.09,0,1.09Z"/>
        <path class="cls-2" d="m519.14,103.18c.7,0,.7-1.09,0-1.09s-.7,1.09,0,1.09Z"/>
        <path class="cls-2" d="m516.71,96.94c.7,0,.7-1.09,0-1.09s-.7,1.09,0,1.09Z"/>
        <path class="cls-2" d="m481.71,56.05c.7,0,.7-1.09,0-1.09s-.7,1.09,0,1.09Z"/>
        <path class="cls-2" d="m485.87,71.3c.7,0,.7-1.09,0-1.09s-.7,1.09,0,1.09Z"/>
        <path class="cls-2" d="m472.7,71.64c.7,0,.7-1.09,0-1.09s-.7,1.09,0,1.09Z"/>
        <path class="cls-2" d="m459.87,74.41c.7,0,.7-1.09,0-1.09s-.7,1.09,0,1.09Z"/>
        <path class="cls-2" d="m465.07,94.67s0,0,0,0,0,0,0,0Z"/>
        <path class="cls-2" d="m469.58,100.75c.7,0,.7-1.09,0-1.09s-.7,1.09,0,1.09Z"/>
        <path class="cls-2" d="m461.26,108.03c.7,0,.7-1.09,0-1.09s-.7,1.09,0,1.09Z"/>
        <path class="cls-2" d="m450.86,100.75c.7,0,.7-1.09,0-1.09s-.7,1.09,0,1.09Z"/>
        <path class="cls-2" d="m459.53,88.62c.7,0,.7-1.09,0-1.09s-.7,1.09,0,1.09Z"/>
        <path class="cls-2" d="m492.1,126.75c.7,0,.7-1.09,0-1.09s-.7,1.09,0,1.09Z"/>
        <path class="cls-2" d="m480.32,125.36c.7,0,.7-1.09,0-1.09s-.7,1.09,0,1.09Z"/>
        <path class="cls-2" d="m503.54,132.99c.7,0,.7-1.09,0-1.09s-.7,1.09,0,1.09Z"/>
        <path class="cls-2" d="m508.74,113.92c.7,0,.7-1.09,0-1.09s-.7,1.09,0,1.09Z"/>
        <path class="cls-2" d="m543.4,116.7c.7,0,.7-1.09,0-1.09s-.7,1.09,0,1.09Z"/>
        <path class="cls-2" d="m500.77,143.04c.7,0,.7-1.09,0-1.09s-.7,1.09,0,1.09Z"/>
        <path class="cls-2" d="m482.4,150.31c.7,0,.7-1.09,0-1.09s-.7,1.09,0,1.09Z"/>
        <path class="cls-2" d="m484.13,163.48c.7,0,.7-1.09,0-1.09s-.7,1.09,0,1.09Z"/>
        <path class="cls-2" d="m498.34,163.83c.7,0,.7-1.09,0-1.09s-.7,1.09,0,1.09Z"/>
        <path class="cls-2" d="m521.56,128.48c.7,0,.7-1.09,0-1.09s-.7,1.09,0,1.09Z"/>
        <path class="cls-2" d="m700.16,72.68c.7,0,.7-1.09,0-1.09s-.7,1.09,0,1.09Z"/>
        <path class="cls-2" d="m708.02,91.17c.7,0,.7-1.09,0-1.09s-.7,1.09,0,1.09Z"/>
        <path class="cls-2" d="m683.07,112.42c.7,0,.7-1.09,0-1.09s-.7,1.09,0,1.09Z"/>
        <path class="cls-2" d="m665.04,96.71c.7,0,.7-1.09,0-1.09s-.7,1.09,0,1.09Z"/>
        <path class="cls-2" d="m684.91,120.28c.7,0,.7-1.09,0-1.09s-.7,1.09,0,1.09Z"/>
        <path class="cls-2" d="m689.54,112.42c.7,0,.7-1.09,0-1.09s-.7,1.09,0,1.09Z"/>
        <path class="cls-2" d="m698.32,121.2c.7,0,.7-1.09,0-1.09s-.7,1.09,0,1.09Z"/>
        <path class="cls-2" d="m803.21,116.12c.7,0,.7-1.09,0-1.09s-.7,1.09,0,1.09Z"/>
        <path class="cls-2" d="m793.05,123.51c.7,0,.7-1.09,0-1.09s-.7,1.09,0,1.09Z"/>
        <path class="cls-2" d="m820.31,122.13c.7,0,.7-1.09,0-1.09s-.7,1.09,0,1.09Z"/>
        <path class="cls-2" d="m824.01,115.2c.7,0,.7-1.09,0-1.09s-.7,1.09,0,1.09Z"/>
        <path class="cls-2" d="m829.55,141.53c.7,0,.7-1.09,0-1.09s-.7,1.09,0,1.09Z"/>
        <path class="cls-2" d="m819.39,159.09c.7,0,.7-1.09,0-1.09s-.7,1.09,0,1.09Z"/>
        <path class="cls-2" d="m857.74,172.03c.7,0,.7-1.09,0-1.09s-.7,1.09,0,1.09Z"/>
        <path class="cls-2" d="m891.01,126.29c.7,0,.7-1.09,0-1.09s-.7,1.09,0,1.09Z"/>
        <path class="cls-2" d="m887.78,85.62c.7,0,.7-1.09,0-1.09s-.7,1.09,0,1.09Z"/>
        <path class="cls-2" d="m862.36,94.4c.7,0,.7-1.09,0-1.09s-.7,1.09,0,1.09Z"/>
        <path class="cls-2" d="m873.91,104.57c.7,0,.7-1.09,0-1.09s-.7,1.09,0,1.09Z"/>
        <path class="cls-2" d="m874.84,119.28s0,0,0,0,0,0,0,0Z"/>
        <path class="cls-2" d="m878.53,96.71c.7,0,.7-1.09,0-1.09s-.7,1.09,0,1.09Z"/>
        <path class="cls-2" d="m969.87,72.3c.7,0,.7-1.09,0-1.09s-.7,1.09,0,1.09Z"/>
        <path class="cls-2" d="m915.81,59.13c.7,0,.7-1.09,0-1.09s-.7,1.09,0,1.09Z"/>
        <path class="cls-2" d="m965.02,101.41c.7,0,.7-1.09,0-1.09s-.7,1.09,0,1.09Z"/>
        <path class="cls-2" d="m935.29,73.03c.7,0,.7-1.09,0-1.09s-.7,1.09,0,1.09Z"/>
        <path class="cls-2" d="m980.27,35.56c.7,0,.7-1.09,0-1.09s-.7,1.09,0,1.09Z"/>
        <path class="cls-2" d="m962.94,10.61c.7,0,.7-1.09,0-1.09s-.7,1.09,0,1.09Z"/>
        <path class="cls-2" d="m922.74,109.73c.7,0,.7-1.09,0-1.09s-.7,1.09,0,1.09Z"/>
        <path class="cls-2" d="m906.8,166.72s0,0,0,0,0,0,0,0Z"/>
        <path class="cls-2" d="m936.14,63.75c.7,0,.7-1.09,0-1.09s-.7,1.09,0,1.09Z"/>
        <path class="cls-2" d="m925.98,71.15c.7,0,.7-1.09,0-1.09s-.7,1.09,0,1.09Z"/>
        <path class="cls-2" d="m953.24,69.76c.7,0,.7-1.09,0-1.09s-.7,1.09,0,1.09Z"/>
        <path class="cls-2" d="m956.94,62.83c.7,0,.7-1.09,0-1.09s-.7,1.09,0,1.09Z"/>
        <path class="cls-2" d="m962.48,89.17c.7,0,.7-1.09,0-1.09s-.7,1.09,0,1.09Z"/>
        <path class="cls-2" d="m952.32,106.73c.7,0,.7-1.09,0-1.09s-.7,1.09,0,1.09Z"/>
        <path class="cls-2" d="m990.67,119.67c.7,0,.7-1.09,0-1.09s-.7,1.09,0,1.09Z"/>
        <path class="cls-2" d="m949.84,61.47c.7,0,.7-1.09,0-1.09s-.7,1.09,0,1.09Z"/>
        <path class="cls-2" d="m946.61,20.81c.7,0,.7-1.09,0-1.09s-.7,1.09,0,1.09Z"/>
        <path class="cls-2" d="m921.19,29.59c.7,0,.7-1.09,0-1.09s-.7,1.09,0,1.09Z"/>
        <path class="cls-2" d="m932.74,39.75c.7,0,.7-1.09,0-1.09s-.7,1.09,0,1.09Z"/>
        <path class="cls-2" d="m933.67,54.46s0,0,0,0,0,0,0,0Z"/>
        <path class="cls-2" d="m937.37,31.9c.7,0,.7-1.09,0-1.09s-.7,1.09,0,1.09Z"/>
        <path class="cls-2" d="m953.63,207.12c.7,0,.7-1.09,0-1.09s-.7,1.09,0,1.09Z"/>
        <path class="cls-2" d="m963.33,128.1c.7,0,.7-1.09,0-1.09s-.7,1.09,0,1.09Z"/>
        <path class="cls-2" d="m978.58,77.65s0,0,0,0,0,0,0,0Z"/>
        <path class="cls-2" d="m968.18,195.56c.7,0,.7-1.09,0-1.09s-.7,1.09,0,1.09Z"/>
        <path class="cls-2" d="m964.95,154.9c.7,0,.7-1.09,0-1.09s-.7,1.09,0,1.09Z"/>
        <path class="cls-2" d="m939.53,163.68c.7,0,.7-1.09,0-1.09s-.7,1.09,0,1.09Z"/>
        <path class="cls-2" d="m461.79,234.67c.7,0,.7-1.09,0-1.09s-.7,1.09,0,1.09Z"/>
        <path class="cls-2" d="m342.55,264.66c.7,0,.7-1.09,0-1.09s-.7,1.09,0,1.09Z"/>
        <path class="cls-2" d="m440.92,255.85c.7,0,.7-1.09,0-1.09s-.7,1.09,0,1.09Z"/>
        <path class="cls-2" d="m597.05,216.66c.7,0,.7-1.09,0-1.09s-.7,1.09,0,1.09Z"/>
        <path class="cls-2" d="m951.08,173.85c.7,0,.7-1.09,0-1.09s-.7,1.09,0,1.09Z"/>
        <path class="cls-2" d="m952.01,188.55s0,0,0,0,0,0,0,0Z"/>
        <path class="cls-2" d="m955.7,165.99c.7,0,.7-1.09,0-1.09s-.7,1.09,0,1.09Z"/>
        <path class="cls-2" d="m930.45,226.95c.7,0,.7-1.09,0-1.09s-.7,1.09,0,1.09Z"/>
        <path class="cls-2" d="m940.15,147.93c.7,0,.7-1.09,0-1.09s-.7,1.09,0,1.09Z"/>
        <path class="cls-2" d="m644.24,237.59c.7,0,.7-1.09,0-1.09s-.7,1.09,0,1.09Z"/>
        <path class="cls-2" d="m709.32,155.32c.7,0,.7-1.09,0-1.09s-.7,1.09,0,1.09Z"/>
        <path class="cls-2" d="m955.4,97.48s0,0,0,0,0,0,0,0Z"/>
        <path class="cls-2" d="m67.69,11.29s0,0,0,0,0,0,0,0Z"/>
        <path class="cls-2" d="m12.94,26.39c.7,0,.7-1.09,0-1.09s-.7,1.09,0,1.09Z"/>
        <path class="cls-2" d="m22.71,107.52c.7,0,.7-1.09,0-1.09s-.7,1.09,0,1.09Z"/>
        <path class="cls-2" d="m32.41,28.5c.7,0,.7-1.09,0-1.09s-.7,1.09,0,1.09Z"/>
        <path class="cls-2" d="m67.69,70.06c.7,0,.7-1.09,0-1.09s-.7,1.09,0,1.09Z"/>
        <path class="cls-2" d="m34.97,142.01c.7,0,.7-1.09,0-1.09s-.7,1.09,0,1.09Z"/>
        <path class="cls-2" d="m50.37,45.1c.7,0,.7-1.09,0-1.09s-.7,1.09,0,1.09Z"/>
        <path class="cls-2" d="m79.48,22.23c.7,0,.7-1.09,0-1.09s-.7,1.09,0,1.09Z"/>
        <path class="cls-2" d="m10.16,144.23c.7,0,.7-1.09,0-1.09s-.7,1.09,0,1.09Z"/>
        <path class="cls-2" d="m23.56,98.25c.7,0,.7-1.09,0-1.09s-.7,1.09,0,1.09Z"/>
        <path class="cls-2" d="m13.4,105.64c.7,0,.7-1.09,0-1.09s-.7,1.09,0,1.09Z"/>
        <path class="cls-2" d="m34.03,55.3c.7,0,.7-1.09,0-1.09s-.7,1.09,0,1.09Z"/>
        <path class="cls-2" d="m8.62,64.08c.7,0,.7-1.09,0-1.09s-.7,1.09,0,1.09Z"/>
        <path class="cls-2" d="m20.17,74.25c.7,0,.7-1.09,0-1.09s-.7,1.09,0,1.09Z"/>
        <path class="cls-2" d="m21.09,88.96s0,0,0,0,0,0,0,0Z"/>
        <path class="cls-2" d="m24.79,66.39c.7,0,.7-1.09,0-1.09s-.7,1.09,0,1.09Z"/>
        <path class="cls-2" d="m94.23,54.94s0,0,0,0,0,0,0,0Z"/>
        <path class="cls-2" d="m39.47,70.04c.7,0,.7-1.09,0-1.09s-.7,1.09,0,1.09Z"/>
        <path class="cls-2" d="m78.98,179.56c.7,0,.7-1.09,0-1.09s-.7,1.09,0,1.09Z"/>
        <path class="cls-2" d="m58.95,72.15c.7,0,.7-1.09,0-1.09s-.7,1.09,0,1.09Z"/>
        <path class="cls-2" d="m70.7,127.94c.7,0,.7-1.09,0-1.09s-.7,1.09,0,1.09Z"/>
        <path class="cls-2" d="m106.01,65.88c.7,0,.7-1.09,0-1.09s-.7,1.09,0,1.09Z"/>
        <path class="cls-2" d="m36.7,187.87c.7,0,.7-1.09,0-1.09s-.7,1.09,0,1.09Z"/>
        <path class="cls-2" d="m76.44,167.31c.7,0,.7-1.09,0-1.09s-.7,1.09,0,1.09Z"/>
        <path class="cls-2" d="m66.27,184.87c.7,0,.7-1.09,0-1.09s-.7,1.09,0,1.09Z"/>
        <path class="cls-2" d="m77.28,206.24c.7,0,.7-1.09,0-1.09s-.7,1.09,0,1.09Z"/>
        <path class="cls-2" d="m69.36,175.62s0,0,0,0,0,0,0,0Z"/>
        <path class="cls-2" d="m99.56,18.95s0,0,0,0,0,0,0,0Z"/>
        <path class="cls-2" d="m44.8,34.04c.7,0,.7-1.09,0-1.09s-.7,1.09,0,1.09Z"/>
        <path class="cls-2" d="m64.28,36.15c.7,0,.7-1.09,0-1.09s-.7,1.09,0,1.09Z"/>
        <path class="cls-2" d="m99.56,77.71c.7,0,.7-1.09,0-1.09s-.7,1.09,0,1.09Z"/>
        <path class="cls-2" d="m82.23,52.76c.7,0,.7-1.09,0-1.09s-.7,1.09,0,1.09Z"/>
        <path class="cls-2" d="m111.34,29.88c.7,0,.7-1.09,0-1.09s-.7,1.09,0,1.09Z"/>
        <path class="cls-2" d="m65.89,62.95c.7,0,.7-1.09,0-1.09s-.7,1.09,0,1.09Z"/>
        <path class="cls-2" d="m40.48,71.73c.7,0,.7-1.09,0-1.09s-.7,1.09,0,1.09Z"/>
        <path class="cls-2" d="m56.65,74.04c.7,0,.7-1.09,0-1.09s-.7,1.09,0,1.09Z"/>
        <path class="cls-2" d="m44.73,123.34c.7,0,.7-1.09,0-1.09s-.7,1.09,0,1.09Z"/>
        <path class="cls-2" d="m97.86,119.8s0,0,0,0,0,0,0,0Z"/>
        <path class="cls-2" d="m51.04,27.55c.7,0,.7-1.09,0-1.09s-.7,1.09,0,1.09Z"/>
        <path class="cls-2" d="m46.19,56.66c.7,0,.7-1.09,0-1.09s-.7,1.09,0,1.09Z"/>
        <path class="cls-2" d="m16.45,28.27c.7,0,.7-1.09,0-1.09s-.7,1.09,0,1.09Z"/>
        <path class="cls-2" d="m3.91,64.98c.7,0,.7-1.09,0-1.09s-.7,1.09,0,1.09Z"/>
        <path class="cls-2" d="m17.31,19c.7,0,.7-1.09,0-1.09s-.7,1.09,0,1.09Z"/>
        <path class="cls-2" d="m7.14,26.4c.7,0,.7-1.09,0-1.09s-.7,1.09,0,1.09Z"/>
        <path class="cls-2" d="m34.41,25.01c.7,0,.7-1.09,0-1.09s-.7,1.09,0,1.09Z"/>
        <path class="cls-2" d="m38.1,18.08c.7,0,.7-1.09,0-1.09s-.7,1.09,0,1.09Z"/>
        <path class="cls-2" d="m43.65,44.42c.7,0,.7-1.09,0-1.09s-.7,1.09,0,1.09Z"/>
        <path class="cls-2" d="m33.48,61.98c.7,0,.7-1.09,0-1.09s-.7,1.09,0,1.09Z"/>
        <path class="cls-2" d="m71.84,74.92c.7,0,.7-1.09,0-1.09s-.7,1.09,0,1.09Z"/>
        <path class="cls-2" d="m31.01,16.72c.7,0,.7-1.09,0-1.09s-.7,1.09,0,1.09Z"/>
        <path class="cls-2" d="m14.84,9.71s0,0,0,0,0,0,0,0Z"/>
        <path class="cls-2" d="m59.75,32.9s0,0,0,0,0,0,0,0Z"/>
        <path class="cls-2" d="m36.57,52.73s0,0,0,0,0,0,0,0Z"/>
        <path class="cls-2" d="m945,215.39c.7,0,.7-1.09,0-1.09s-.7,1.09,0,1.09Z"/>
        <path class="cls-2" d="m941.77,174.73c.7,0,.7-1.09,0-1.09s-.7,1.09,0,1.09Z"/>
        <path class="cls-2" d="m916.35,183.51c.7,0,.7-1.09,0-1.09s-.7,1.09,0,1.09Z"/>
        <path class="cls-2" d="m927.91,193.68c.7,0,.7-1.09,0-1.09s-.7,1.09,0,1.09Z"/>
        <path class="cls-2" d="m928.83,208.39s0,0,0,0,0,0,0,0Z"/>
        <path class="cls-2" d="m932.53,185.82c.7,0,.7-1.09,0-1.09s-.7,1.09,0,1.09Z"/>
        <path class="cls-2" d="m45.62,39.14c.7,0,.7-1.09,0-1.09s-.7,1.09,0,1.09Z"/>
        <path class="cls-2" d="m60.18,27.59c.7,0,.7-1.09,0-1.09s-.7,1.09,0,1.09Z"/>
        <path class="cls-2" d="m43.08,5.87c.7,0,.7-1.09,0-1.09s-.7,1.09,0,1.09Z"/>
        <path class="cls-2" d="m44,20.58s0,0,0,0,0,0,0,0Z"/>
        <path class="cls-2" d="m696.93,188.21c.7,0,.7-1.09,0-1.09s-.7,1.09,0,1.09Z"/>
        <path class="cls-2" d="m660.42,167.41c.7,0,.7-1.09,0-1.09s-.7,1.09,0,1.09Z"/>
        <path class="cls-2" d="m624.84,177.58c.7,0,.7-1.09,0-1.09s-.7,1.09,0,1.09Z"/>
        <path class="cls-2" d="m629.93,195.6c.7,0,.7-1.09,0-1.09s-.7,1.09,0,1.09Z"/>
        <path class="cls-2" d="m617.45,202.07c.7,0,.7-1.09,0-1.09s-.7,1.09,0,1.09Z"/>
        <path class="cls-2" d="m624.38,217.32c.7,0,.7-1.09,0-1.09s-.7,1.09,0,1.09Z"/>
        <path class="cls-2" d="m623.46,226.1c.7,0,.7-1.09,0-1.09s-.7,1.09,0,1.09Z"/>
        <path class="cls-2" d="m646.33,182.75c.7,0,.7-1.09,0-1.09s-.7,1.09,0,1.09Z"/>
        <path class="cls-2" d="m660.42,192.83c.7,0,.7-1.09,0-1.09s-.7,1.09,0,1.09Z"/>
        <path class="cls-2" d="m645.17,151.24c.7,0,.7-1.09,0-1.09s-.7,1.09,0,1.09Z"/>
        <path class="cls-2" d="m617.45,125.82c.7,0,.7-1.09,0-1.09s-.7,1.09,0,1.09Z"/>
        <path class="cls-2" d="m598.5,142.46c.7,0,.7-1.09,0-1.09s-.7,1.09,0,1.09Z"/>
        <path class="cls-2" d="m609.59,145.23c.7,0,.7-1.09,0-1.09s-.7,1.09,0,1.09Z"/>
        <path class="cls-2" d="m568,171.57c.7,0,.7-1.09,0-1.09s-.7,1.09,0,1.09Z"/>
        <path class="cls-2" d="m550.91,167.41c.7,0,.7-1.09,0-1.09s-.7,1.09,0,1.09Z"/>
        <path class="cls-2" d="m518.56,171.57c.7,0,.7-1.09,0-1.09s-.7,1.09,0,1.09Z"/>
        <path class="cls-2" d="m526.42,189.59c.7,0,.7-1.09,0-1.09s-.7,1.09,0,1.09Z"/>
        <path class="cls-2" d="m506.54,183.59c.7,0,.7-1.09,0-1.09s-.7,1.09,0,1.09Z"/>
        <path class="cls-2" d="m468.65,170.18c.7,0,.7-1.09,0-1.09s-.7,1.09,0,1.09Z"/>
        <path class="cls-2" d="m501.92,202.53c.7,0,.7-1.09,0-1.09s-.7,1.09,0,1.09Z"/>
        <path class="cls-2" d="m519.95,206.23c.7,0,.7-1.09,0-1.09s-.7,1.09,0,1.09Z"/>
        <path class="cls-2" d="m553.22,206.23c.7,0,.7-1.09,0-1.09s-.7,1.09,0,1.09Z"/>
        <path class="cls-2" d="m526.42,231.18c.7,0,.7-1.09,0-1.09s-.7,1.09,0,1.09Z"/>
        <path class="cls-2" d="m561.53,246.43c.7,0,.7-1.09,0-1.09s-.7,1.09,0,1.09Z"/>
        <path class="cls-2" d="m593.88,221.48c.7,0,.7-1.09,0-1.09s-.7,1.09,0,1.09Z"/>
        <path class="cls-2" d="m587.41,195.6c.7,0,.7-1.09,0-1.09s-.7,1.09,0,1.09Z"/>
        <path class="cls-2" d="m322.63,161.4c.7,0,.7-1.09,0-1.09s-.7,1.09,0,1.09Z"/>
        <path class="cls-2" d="m328.87,175.96c.7,0,.7-1.09,0-1.09s-.7,1.09,0,1.09Z"/>
        <path class="cls-2" d="m297.68,155.86c.7,0,.7-1.09,0-1.09s-.7,1.09,0,1.09Z"/>
        <path class="cls-2" d="m310.85,188.44c.7,0,.7-1.09,0-1.09s-.7,1.09,0,1.09Z"/>
        <path class="cls-2" d="m358.67,152.39c.7,0,.7-1.09,0-1.09s-.7,1.09,0,1.09Z"/>
        <path class="cls-2" d="m378.77,128.13c.7,0,.7-1.09,0-1.09s-.7,1.09,0,1.09Z"/>
        <path class="cls-2" d="m261.63,117.04c.7,0,.7-1.09,0-1.09s-.7,1.09,0,1.09Z"/>
        <path class="cls-2" d="m229.05,187.05c.7,0,.7-1.09,0-1.09s-.7,1.09,0,1.09Z"/>
        <path class="cls-2" d="m231.13,143.38c.7,0,.7-1.09,0-1.09s-.7,1.09,0,1.09Z"/>
        <path class="cls-2" d="m248.46,134.37c.7,0,.7-1.09,0-1.09s-.7,1.09,0,1.09Z"/>
        <path class="cls-2" d="m240.15,90.7c.7,0,.7-1.09,0-1.09s-.7,1.09,0,1.09Z"/>
        <path class="cls-2" d="m211.03,108.03c.7,0,.7-1.09,0-1.09s-.7,1.09,0,1.09Z"/>
        <path class="cls-2" d="m220.74,117.04c.7,0,.7-1.09,0-1.09s-.7,1.09,0,1.09Z"/>
        <path class="cls-2" d="m238.07,97.64c.7,0,.7-1.09,0-1.09s-.7,1.09,0,1.09Z"/>
        <path class="cls-2" d="m252.62,66.44c.7,0,.7-1.09,0-1.09s-.7,1.09,0,1.09Z"/>
        <path class="cls-2" d="m199.94,85.85c.7,0,.7-1.09,0-1.09s-.7,1.09,0,1.09Z"/>
        <path class="cls-2" d="m208.26,56.74c.7,0,.7-1.09,0-1.09s-.7,1.09,0,1.09Z"/>
        <path class="cls-2" d="m174.3,58.82c.7,0,.7-1.09,0-1.09s-.7,1.09,0,1.09Z"/>
        <path class="cls-2" d="m151.42,87.93c.7,0,.7-1.09,0-1.09s-.7,1.09,0,1.09Z"/>
        <path class="cls-2" d="m133.4,49.12c.7,0,.7-1.09,0-1.09s-.7,1.09,0,1.09Z"/>
        <path class="cls-2" d="m366.99,86.55c.7,0,.7-1.09,0-1.09s-.7,1.09,0,1.09Z"/>
        <path class="cls-2" d="m298.37,87.93c.7,0,.7-1.09,0-1.09s-.7,1.09,0,1.09Z"/>
        <path class="cls-2" d="m312.93,95.56c.7,0,.7-1.09,0-1.09s-.7,1.09,0,1.09Z"/>
        <path class="cls-2" d="m109.83,82.39c.7,0,.7-1.09,0-1.09s-.7,1.09,0,1.09Z"/>
        <path class="cls-2" d="m102.21,129.52c.7,0,.7-1.09,0-1.09s-.7,1.09,0,1.09Z"/>
        <path class="cls-2" d="m125.08,146.85c.7,0,.7-1.09,0-1.09s-.7,1.09,0,1.09Z"/>
        <path class="cls-2" d="m148.65,210.62c.7,0,.7-1.09,0-1.09s-.7,1.09,0,1.09Z"/>
        <path class="cls-2" d="m720.5,91.4c.7,0,.7-1.09,0-1.09s-.7,1.09,0,1.09Z"/>
        <path class="cls-2" d="m726.73,81.69c.7,0,.7-1.09,0-1.09s-.7,1.09,0,1.09Z"/>
        <path class="cls-2" d="m698.32,88.62c.7,0,.7-1.09,0-1.09s-.7,1.09,0,1.09Z"/>
        <path class="cls-2" d="m706.63,109.42c.7,0,.7-1.09,0-1.09s-.7,1.09,0,1.09Z"/>
        <path class="cls-2" d="m730.2,112.19c.7,0,.7-1.09,0-1.09s-.7,1.09,0,1.09Z"/>
        <path class="cls-2" d="m751.69,86.01s0,0,0,0,0,0,0,0Z"/>
        <path class="cls-2" d="m743.37,78.23c.7,0,.7-1.09,0-1.09s-.7,1.09,0,1.09Z"/>
      </g>
    </g>
  </g>
</svg>